<svg id="Capa_1" enable-background="new 0 0 512 512" height="512" viewBox="0 0 512 512" width="512" xmlns="http://www.w3.org/2000/svg"><g><g><path d="m446.662 426.814c40.621-45.31 65.338-105.172 65.338-170.814 0-141.385-114.615-256-256-256s-256 114.615-256 256c0 65.642 24.717 125.504 65.338 170.814z" fill="#ffdd40"/></g><g><circle cx="256" cy="256" fill="#ffb332" r="170"/></g><g><path d="m417 364c-22-19.425-117.305-35.119-117.305-35.119h-87.39s-95.305 15.694-117.305 35.119c-9.048 7.989-19.954 34.439-29.662 62.814 40.245 44.892 96.112 75.474 159.049 83.229v-.552l31.613-18.831 31.614 19.373v.01c62.937-7.755 118.803-38.338 159.049-83.229-9.709-28.375-20.615-54.825-29.663-62.814z" fill="#e9efff"/></g><g><path d="m224.386 509.491 31.614-18.831 31.614 19.373v.029c36.245-4.467 70.144-16.51 100.067-34.495-8.893.937-17.918 1.432-27.06 1.432-96.1 0-179.817-52.962-223.596-131.281-18.118 5.323-34.435 11.58-42.025 18.282-9.048 7.989-19.954 34.439-29.662 62.814 40.245 44.892 96.112 75.474 159.049 83.229v-.552z" fill="#d3dcfb"/></g><g><path d="m287.614 510.033v-.541l-16.761-101.21-14.853-22.554-14.852 22.554-16.761 101.21v.541c10.36 1.282 20.905 1.967 31.613 1.967s21.253-.685 31.614-1.967z" fill="#3c58a0"/></g><g><path d="m271.632 411.728h-31.265c-2.278 0-4.267-1.539-4.84-3.744l-12.527-48.256h66l-12.528 48.256c-.572 2.205-2.562 3.744-4.84 3.744z" fill="#4b6bb2"/></g><g><path d="m255.528 407.984-12.528-48.256h-20l12.528 48.257c.572 2.204 2.562 3.743 4.84 3.743h20c-2.278 0-4.268-1.54-4.84-3.744z" fill="#3c58a0"/></g><g><path d="m212.305 216.812v112.07c0 17.036 19.563 30.846 43.695 30.846s43.695-13.81 43.695-30.846v-112.07z" fill="#fcad6d"/></g><g><path d="m212.305 216.812v112.07c46.932 0 73.247-36.019 73.247-36.019l14.143-76.05h-87.39z" fill="#fd995b"/></g><g><path d="m337.249 173.222c0 59.83-36.377 129.999-81.249 129.999s-81.249-70.169-81.249-129.999 36.376-102.85 81.249-102.85 81.249 43.019 81.249 102.85z" fill="#f9ba8f"/></g><g><path d="m202.691 173.222c0-53.479 29.064-93.521 67.279-101.421-4.539-.938-9.206-1.428-13.97-1.428-44.873 0-81.249 43.019-81.249 102.849s36.377 129.999 81.249 129.999c4.764 0 9.431-.798 13.97-2.284-38.215-12.506-67.279-74.237-67.279-127.715z" fill="#fcad6d"/></g><g><path d="m256 23.939c-92.5 0-123.5 79.561-123.5 91.561s33.302 43.456 33.302 43.456h90.198 90.198s33.302-31.456 33.302-43.456-31-91.561-123.5-91.561z" fill="#3c58a0"/></g><g><path d="m220.883 59.056c0-19.395 15.723-35.117 35.117-35.117-92.5 0-123.5 79.561-123.5 91.561s33.302 43.456 33.302 43.456h90.198v-64.783c-19.395 0-35.117-15.722-35.117-35.117z" fill="#2a428c"/></g><g><path d="m346.198 87.255c-4.142 0-7.5 3.358-7.5 7.5v94.92h15v-94.92c0-4.142-3.358-7.5-7.5-7.5z" fill="#d3dcfb"/></g><g><path d="m353.936 224.211c8.284 0 15-6.716 15-15v-39.173c0-8.284-6.716-15-15-15-8.284 0-15 6.716-15 15v39.173c0 8.285 6.716 15 15 15z" fill="#e9efff"/></g><g><path d="m165.564 87.255c-4.142 0-7.5 3.358-7.5 7.5v94.92h15v-94.92c0-4.142-3.358-7.5-7.5-7.5z" fill="#d3dcfb"/></g><g><path d="m158.064 224.211c8.284 0 15-6.716 15-15v-39.173c0-8.284-6.716-15-15-15-8.284 0-15 6.716-15 15v39.173c0 8.285 6.716 15 15 15z" fill="#e9efff"/></g><g><path d="m319.361 156.036c-32.092-4.32-45.258 6.789-63.361 6.789s-31.269-11.109-63.361-6.789-38.881 23.04-32.298 50.607c6.583 27.566 38.47 39.292 57.396 33.121 18.926-6.172 31.064-8.669 38.264-8.669s19.338 2.498 38.264 8.669c18.926 6.172 50.813-5.554 57.396-33.121 6.581-27.566-.207-46.287-32.3-50.607z" fill="#fff"/></g><g><path d="m305.13 226.371c-2.326 0-4.475-.3-6.216-.868-19.685-6.418-33.321-9.408-42.914-9.408s-23.229 2.99-42.914 9.408c-1.741.568-3.89.868-6.215.868-10.961 0-28.117-7.202-31.94-23.212-1.864-7.806-3.267-18.305.635-23.994 3.558-5.186 12.336-7.356 19.074-8.263 4.316-.581 8.33-.863 12.27-.863 10.269 0 17.713 1.928 25.594 3.97 7.242 1.876 14.731 3.816 23.496 3.816 8.766 0 16.254-1.94 23.496-3.816 7.881-2.042 15.325-3.97 25.595-3.97 3.94 0 7.953.282 12.27.863 6.737.907 15.516 3.077 19.074 8.263 3.902 5.689 2.5 16.188.635 23.994-3.824 16.01-20.979 23.212-31.94 23.212z" fill="#9bd8f9"/></g><g><path d="m258.583 216.169c7.276.366 16.657 2.242 28.843 5.782l-23.801-44.619c-2.447.3-4.972.493-7.625.493-7.105 0-13.367-1.279-19.344-2.761z" fill="#73c3f9"/></g><g><path d="m317.36 170.902c-1.744-.235-3.428-.408-5.088-.546l21.603 40.5c1.41-2.296 2.515-4.855 3.193-7.697 1.864-7.806 3.267-18.305-.635-23.994-3.557-5.186-12.335-7.356-19.073-8.263z" fill="#73c3f9"/></g><g><path d="m282.116 173.334 28.049 52.583c3.52-.598 7.314-1.801 10.934-3.647l-27.41-51.385c-4.079.611-7.82 1.492-11.573 2.449z" fill="#73c3f9"/></g><g><path d="m208.573 170.058 26.22 49.154c4.292-1.038 8.157-1.81 11.639-2.325l-24.173-45.317c-4.158-.821-8.576-1.406-13.686-1.512z" fill="#73c3f9"/></g><g><path d="m195.336 170.819c-.234.03-.46.051-.696.083-6.738.907-15.516 3.077-19.074 8.263-.084.123-.152.26-.232.387l24.522 45.972c2.478.566 4.866.847 7.014.847 2.325 0 4.475-.3 6.215-.868 3.449-1.125 6.702-2.138 9.791-3.054z" fill="#73c3f9"/></g><g><path d="m212.305 315 43.695 44.728s-17 30.744-28 30.744-30.007-59.011-30.007-59.011z" fill="#fff"/></g><g><path d="m299.695 315-43.695 44.728s17 30.744 28 30.744 30.007-59.011 30.007-59.011z" fill="#fff"/></g><g><path d="m399.18 436.247-11.516 39.331c7.351-4.417 14.467-9.186 21.314-14.296v-23.629c0-5.78-8.174-6.953-9.798-1.406z" fill="#bec8f7"/></g><g><path d="m103.022 437.651v23.629c6.847 5.111 13.963 9.879 21.314 14.296l-11.516-39.331c-1.624-5.545-9.798-4.372-9.798 1.406z" fill="#bec8f7"/></g><g><path d="m346.198 175.331c0 9.09-8.344 15.887-17.245 14.04-18.183-3.774-47.646-8.928-72.953-8.928s-54.77 5.154-72.953 8.928c-8.901 1.847-17.245-4.949-17.245-14.04 0-37.889 26.497-70.722 63.592-78.44 8.164-1.699 17.047-2.718 26.606-2.718s18.442 1.02 26.606 2.718c37.095 7.718 63.592 40.551 63.592 78.44z" fill="#4b6bb2"/></g><g><path d="m256 94.173c-9.56 0-18.442 1.02-26.606 2.718-37.095 7.717-63.592 40.551-63.592 78.44 0 9.091 8.344 15.887 17.245 14.04 5.765-1.197 12.667-2.532 20.208-3.797-2.12-41.25 18.144-91.401 52.745-91.401z" fill="#3c58a0"/></g></g></svg>