<svg id="Capa_1" enable-background="new 0 0 512 512" height="512" viewBox="0 0 512 512" width="512" xmlns="http://www.w3.org/2000/svg"><g><g><circle cx="256" cy="256" fill="#4fabf7" r="256"/></g><g><path d="m472.923 422h-433.846v-320c0-11.046 8.954-20 20-20h393.846c11.046 0 20 8.954 20 20z" fill="#fff"/></g><g><path d="m147.979 82h-88.902c-11.046 0-20 8.954-20 20v320h108.902v-30c-8.284 0-15-6.716-15-15s6.716-15 15-15v-250c-8.284 0-15-6.716-15-15s6.716-15 15-15z" fill="#e9efff"/></g><g><path d="m69.077 322v-210h373.847v210l-186.924 20z" fill="#49d88b"/></g><g><path d="m173.404 186.258h-60.904c-4.142 0-7.5-3.358-7.5-7.5 0-4.142 3.358-7.5 7.5-7.5h60.904c4.142 0 7.5 3.358 7.5 7.5 0 4.143-3.358 7.5-7.5 7.5z" fill="#73f9a9"/></g><g><path d="m352.817 211.683h-60.904c-4.142 0-7.5-3.358-7.5-7.5 0-4.142 3.358-7.5 7.5-7.5h60.904c4.142 0 7.5 3.358 7.5 7.5 0 4.142-3.358 7.5-7.5 7.5z" fill="#73f9a9"/></g><g><path d="m177.056 299.849h-60.904c-4.142 0-7.5-3.358-7.5-7.5 0-4.142 3.358-7.5 7.5-7.5h60.904c4.142 0 7.5 3.358 7.5 7.5 0 4.142-3.357 7.5-7.5 7.5z" fill="#73f9a9"/></g><g><path d="m405.424 254.78h-75.559c-4.142 0-7.5-3.358-7.5-7.5 0-4.142 3.358-7.5 7.5-7.5h75.559c4.142 0 7.5 3.358 7.5 7.5 0 4.142-3.358 7.5-7.5 7.5z" fill="#73f9a9"/></g><g><path d="m69.077 322h373.847v40h-373.847z" fill="#1c2e7a"/></g><g><path d="m69.077 322h119.029v40h-119.029z" fill="#112360"/></g><g><path d="m442.924 172h-60c-4.142 0-7.5-3.358-7.5-7.5 0-4.142 3.358-7.5 7.5-7.5h60z" fill="#73f9a9"/></g><g><path d="m69.077 141.258h22.5c4.142 0 7.5 3.358 7.5 7.5 0 4.142-3.358 7.5-7.5 7.5h-22.5z" fill="#73f9a9"/></g><g><path d="m442.924 142h-22.5c-4.142 0-7.5-3.358-7.5-7.5 0-4.142 3.358-7.5 7.5-7.5h22.5z" fill="#73f9a9"/></g><g><path d="m131.904 239.78h-35.288c-4.142 0-7.5-3.358-7.5-7.5 0-4.142 3.358-7.5 7.5-7.5h35.288c4.142 0 7.5 3.358 7.5 7.5 0 4.142-3.358 7.5-7.5 7.5z" fill="#73f9a9"/></g><g><path d="m383.306 299.849h-35.288c-4.142 0-7.5-3.358-7.5-7.5 0-4.142 3.358-7.5 7.5-7.5h35.288c4.142 0 7.5 3.358 7.5 7.5 0 4.142-3.358 7.5-7.5 7.5z" fill="#73f9a9"/></g><g><path d="m502 452h-492c-5.523 0-10-4.477-10-10v-40c0-5.523 4.477-10 10-10h492c5.523 0 10 4.477 10 10v40c0 5.523-4.477 10-10 10z" fill="#e9efff"/></g><g><path d="m241 437c0-8.284 6.716-15 15-15v-30h-246c-5.523 0-10 4.477-10 10v40c0 5.523 4.477 10 10 10h246c-8.284 0-15-6.716-15-15z" fill="#d3dcfb"/></g><g><path d="m336 392h-160l14.063 21.094c3.709 5.564 9.954 8.906 16.641 8.906h98.593c6.687 0 12.932-3.342 16.641-8.906z" fill="#bec8f7"/></g><g><circle cx="420.423" cy="422" fill="#bec8f7" r="7.5"/></g><g><circle cx="465.423" cy="422" fill="#bec8f7" r="7.5"/></g><g><path d="m121.577 429.5h-75c-4.142 0-7.5-3.358-7.5-7.5 0-4.142 3.358-7.5 7.5-7.5h75c4.142 0 7.5 3.358 7.5 7.5 0 4.142-3.358 7.5-7.5 7.5z" fill="#bec8f7"/></g><g><g><path d="m199.38 142.525h113.241c26.026 0 44.139-25.864 35.24-50.322l-24.602-67.617c-1.254-3.448-4.532-5.743-8.201-5.743-4.735 0-8.621 3.774-8.723 8.508-.414 19.133-6.107 63.89-50.335 63.89-44.227 0-49.921-44.758-50.335-63.89-.102-4.734-3.988-8.508-8.723-8.508-3.669 0-6.946 2.295-8.201 5.743l-24.601 67.617c-8.899 24.458 9.213 50.322 35.24 50.322z" fill="#3c58a0"/></g><g><path d="m209.751 125.025h92.499v75h-92.499z" fill="#e9efff"/></g><g><path d="m312.25 220.486v-32.961c0-5.523-4.477-10-10-10h-92.5c-5.523 0-10 4.477-10 10v32.961c0 31.066 25.184 56.25 56.25 56.25 31.066 0 56.25-25.184 56.25-56.25z" fill="#fff"/></g><g><path d="m209.75 76.025h92.5c5.523 0 10 4.477 10 10v61.5c0 5.523-4.477 10-10 10h-92.5c-5.523 0-10-4.477-10-10v-61.5c0-5.523 4.477-10 10-10z" fill="#fff"/></g><g><path d="m230.388 220.486v-32.961c0-5.523 4.477-10 10-10h-30.638c-5.523 0-10 4.477-10 10v32.961c0 31.066 25.184 56.25 56.25 56.25 5.313 0 10.447-.752 15.319-2.129-23.617-6.673-40.931-28.368-40.931-54.121z" fill="#e9efff"/></g><g><path d="m230.388 147.525v-61.5c0-5.523 4.477-10 10-10h-30.638c-5.523 0-10 4.477-10 10v61.5c0 5.523 4.477 10 10 10h30.638c-5.523 0-10-4.477-10-10z" fill="#e9efff"/></g><g><path d="m267.25 157.526v-127.433c0-6.213-5.037-11.25-11.25-11.25-6.213 0-11.25 5.037-11.25 11.25v127.749c0 6.818 6.066 12.22 13.096 11.103 5.205-.827 9.404-6.149 9.404-11.419z" fill="#3c58a0"/></g></g></g></svg>