<svg id="Capa_1" enable-background="new 0 0 512 512" height="512" viewBox="0 0 512 512" width="512" xmlns="http://www.w3.org/2000/svg"><g><g><path d="m256 0c-119.286 0-219.516 81.585-247.935 192l368.935 289.643c80.359-43.183 135-128.028 135-225.643 0-141.385-114.615-256-256-256z" fill="#4fabf7"/></g><g><path d="m297.563 51.094-28.126-42.188c-3.709-5.564-9.954-8.906-16.641-8.906h-97.796c-11.046 0-20 8.954-20 20v280c0 11.046 8.954 20 20 20h337c11.046 0 20-8.954 20-20v-220c0-11.046-8.954-20-20-20h-177.796c-6.687 0-12.932-3.342-16.641-8.906z" fill="#2a428c"/></g><g><path d="m388.5 120h-130c-8.284 0-15-6.716-15-15 0-8.284 6.716-15 15-15h130c8.284 0 15 6.716 15 15 0 8.284-6.716 15-15 15z" fill="#1c2e7a"/></g><g><path d="m357 222h-162v-202c0-11.046 8.954-20 20-20h-60c-11.046 0-20 8.954-20 20v280c0 11.046 8.954 20 20 20h252v-48c0-27.57-22.43-50-50-50z" fill="#1c2e7a"/></g><g><g><path d="m267.024 188.14-42.426-42.426-104.906 104.906c-11.716 11.716-11.716 30.711 0 42.426 11.716 11.716 30.711 11.716 42.426 0z" fill="#fff"/></g><g><path d="m224.597 145.714-63.64 63.64c11.716-11.716 30.711-11.716 42.426 0 11.716 11.716 11.716 30.711 0 42.426l63.64-63.64z" fill="#d3dcfb"/></g><g><path d="m285.159 116.796-93.784 7.675c-5.945.486-8.596 7.709-4.379 11.926l89.344 89.344c4.217 4.217 11.44 1.566 11.926-4.379l7.675-93.784c.504-6.151-4.63-11.285-10.782-10.782z" fill="#fff"/></g></g><g><path d="m357 252h-177.796c-6.687 0-12.932-3.342-16.641-8.906l-28.125-42.188c-3.709-5.564-9.954-8.906-16.641-8.906h-109.732c-5.265 20.456-8.065 41.901-8.065 64 0 141.385 114.615 256 256 256 43.77 0 84.968-10.994 121-30.357v-209.643c0-11.046-8.954-20-20-20z" fill="#ffdd40"/></g><g><path d="m48.065 192h-40c-5.265 20.456-8.065 41.901-8.065 64 0 141.385 114.615 256 256 256 43.77 0 84.968-10.994 121-30.357h-39.292c-159.965 0-289.643-129.678-289.643-289.643z" fill="#ffb332"/></g><g><path d="m253.5 339.718h-130c-8.284 0-15-6.716-15-15 0-8.284 6.716-15 15-15h130c8.284 0 15 6.716 15 15 0 8.285-6.716 15-15 15z" fill="#ffb332"/></g><g><g><path d="m244.976 323.86 42.426 42.426 104.906-104.906c11.716-11.716 11.716-30.711 0-42.426-11.716-11.716-30.711-11.716-42.426 0z" fill="#ff4155"/></g><g><path d="m287.403 366.286 63.64-63.64c-11.716 11.716-30.711 11.716-42.426 0-11.716-11.716-11.716-30.711 0-42.426l-63.64 63.64z" fill="#e80054"/></g><g><path d="m226.841 395.204 93.784-7.675c5.945-.486 8.596-7.709 4.379-11.926l-89.344-89.344c-4.217-4.217-11.44-1.566-11.926 4.379l-7.675 93.784c-.504 6.151 4.63 11.285 10.782 10.782z" fill="#ff4155"/></g></g></g></svg>