<svg id="Capa_1" enable-background="new 0 0 512 512" height="512" viewBox="0 0 512 512" width="512" xmlns="http://www.w3.org/2000/svg"><g><g><path d="m.076 251.992 255.924 135.004 255.924-135.004.025.014c-2.136-139.541-115.899-252.006-255.949-252.006-140.055 0-253.822 112.474-255.95 252.023z" fill="#1c2e7a"/></g><g><path d="m68.821 261.992h198.903c6.412-22.663 3.486-44.927.545-58.017-.861-3.833-5.641-5.129-8.356-2.297-3.84 4.011-10.164 5.912-19.971-3.142-19.125-17.651-25.991-40.709-16.184-87.3 6.052-28.738-.582-47.397-6.564-57.483-2.188-3.701-7.735-3.034-8.953 1.094-5.501 18.574-22.872 47.405-41.539 24.998-15.921-19.109-14.757-52.138-12.569-70.471.163-1.342.326-2.607.489-3.778.566-4.019-3.732-6.952-7.254-4.95-18.24 10.358-29.273 24.137-35.162 40.089-8.271 22.337-6.463 48.949-.272 76.391 11.281 50.027-10.792 97.107-35.806 91.714-4.161-.899-7.848-2.363-11.103-4.181-5.159-2.882-11.37 1.488-10.507 7.333 2.583 17.515 7.46 34.284 14.303 50z" fill="#ff9100"/></g><g><path d="m187.083 261.992h256.053c16.623-30.231 18.501-57.159 7.595-77.103-9.72-17.75-26.67-36.47-35.39-45.54-2.7-2.82-7.48-1.24-7.96 2.64-3.07 24.61 23.71 58.82-4.99 79.63-32.08 23.24-59.35-.93-46.33-30.68 13.01-29.75 28.51-63.84 13.01-97.93-10.66-23.45-30.71-45.73-42.18-67.48-3.83-7.26-6.7-14.47-7.95-21.64-.64-3.66-5.09-5.18-7.76-2.61-3.11 2.99-6.58 7.47-8.89 13.87-2.91 8.03-4 19.08-.31 34.02 10.23 41.37 33.94 72.97 5.12 89.71-28.82 16.73-42.3-18.13-33.94-36.72 4.08-9.06 2.42-17.9-.35-24.58-1.69-4.07-7.61-3.73-8.78.52-2.64 9.62-9.25 23.82-25.73 38.47-29.28 26.03 14.41 59.49 16.27 85.52 1.73 24.23-31.56 37.18-48.55 8.15-1.83-3.13-6.33-3.14-8.09.03-4.98 9-12.14 25.69-11.22 46.21.084 1.897.21 3.731.372 5.513z" fill="#ffdd40"/></g><g><path d="m263.449 511.882 63.375-37.884h63.375v.027c5.136-3.168 10.151-6.513 15.038-10.026h-.038l9.154-14.532 17.488-7.476h.04c5.073-4.799 9.95-9.803 14.618-15h-.046v-17.801h14.644c5.389-7.204 10.421-14.691 15.041-22.453h-.064l5.875-24.078 13.337-15.667h.051c1.875-4.929 3.6-9.931 5.174-15h-.031l-70-70h-349.011l-69.985 69.985c1.575 5.074 3.302 10.081 5.179 15.015h.001l13.336 15.668 5.875 24.078h-.013c4.62 7.762 9.651 15.249 15.041 22.453h14.594v17.796c4.672 5.202 9.553 10.21 14.631 15.014l17.469 7.468 9.144 14.516c4.88 3.509 9.888 6.849 15.017 10.015h63.368l63.374 37.883c2.491.071 4.99.117 7.5.117 2.492 0 4.974-.046 7.449-.116z" fill="#e9efff"/></g><g><path d="m96.75 251.992h-96.699c-.021 1.335-.051 2.668-.051 4.008 0 26.461 4.016 51.983 11.469 75.992h85.281c5.523 0 10-4.477 10-10v-60c0-5.523-4.477-10-10-10z" fill="#ff4155"/></g><g><path d="m11.469 331.992h18.531c-5.523 0-10-4.477-10-10v-60c0-5.523 4.477-10 10-10h-29.949c-.021 1.335-.051 2.668-.051 4.008 0 26.461 4.016 51.983 11.469 75.992z" fill="#e80054"/></g><g><path d="m131.75 251.992h106.75c5.523 0 10 4.477 10 10v60c0 5.523-4.477 10-10 10h-106.75c-5.523 0-10-4.477-10-10v-60c0-5.523 4.477-10 10-10z" fill="#ff4155"/></g><g><path d="m161.75 321.992v-60c0-5.523 4.477-10 10-10h-40c-5.523 0-10 4.477-10 10v60c0 5.523 4.477 10 10 10h40c-5.523 0-10-4.477-10-10z" fill="#e80054"/></g><g><path d="m273.5 251.992h106.75c5.523 0 10 4.477 10 10v60c0 5.523-4.477 10-10 10h-106.75c-5.523 0-10-4.477-10-10v-60c0-5.523 4.477-10 10-10z" fill="#ff4155"/></g><g><path d="m405.25 261.992v60c0 5.523 4.477 10 10 10h85.281c7.453-24.009 11.469-49.531 11.469-75.992 0-1.34-.03-2.673-.051-4.008h-96.699c-5.523 0-10 4.477-10 10z" fill="#ff4155"/></g><g><path d="m167.625 346.992h-106.75c-5.523 0-10 4.477-10 10v52.199c4.606 6.157 9.492 12.091 14.621 17.801h102.129c5.523 0 10-4.477 10-10v-60c0-5.523-4.477-10-10-10z" fill="#ff4155"/></g><g><path d="m202.625 346.992h106.75c5.523 0 10 4.477 10 10v60c0 5.523-4.477 10-10 10h-106.75c-5.523 0-10-4.477-10-10v-60c0-5.523 4.477-10 10-10z" fill="#ff4155"/></g><g><path d="m461.125 409.191v-52.199c0-5.523-4.477-10-10-10h-106.75c-5.523 0-10 4.477-10 10v60c0 5.523 4.477 10 10 10h102.129c5.129-5.711 10.015-11.644 14.621-17.801z" fill="#ff4155"/></g><g><path d="m495.337 346.992h-9.212c-5.523 0-10 4.477-10 10v29.745c7.495-12.591 13.937-25.879 19.212-39.745z" fill="#e80054"/></g><g><path d="m25.875 346.992h-9.212c5.275 13.866 11.717 27.154 19.212 39.745v-29.745c0-5.523-4.477-10-10-10z" fill="#ff4155"/></g><g><path d="m303.5 321.992v-60c0-5.523 4.477-10 10-10h-40c-5.523 0-10 4.477-10 10v60c0 5.523 4.477 10 10 10h40c-5.523 0-10-4.477-10-10z" fill="#e80054"/></g><g><path d="m445.25 321.992v-60c0-5.523 4.477-10 10-10h-40c-5.523 0-10 4.477-10 10v60c0 5.523 4.477 10 10 10h40c-5.523 0-10-4.477-10-10z" fill="#e80054"/></g><g><path d="m374.375 416.992v-60c0-5.523 4.477-10 10-10h-40c-5.523 0-10 4.477-10 10v60c0 5.523 4.477 10 10 10h40c-5.523 0-10-4.477-10-10z" fill="#e80054"/></g><g><path d="m232.625 416.992v-60c0-5.523 4.477-10 10-10h-40c-5.523 0-10 4.477-10 10v60c0 5.523 4.477 10 10 10h40c-5.523 0-10-4.477-10-10z" fill="#e80054"/></g><g><path d="m100.875 346.992h-40c-5.523 0-10 4.477-10 10v52.199c4.606 6.157 9.492 12.091 14.621 17.801h35.379c-5.523 0-10-4.477-10-10v-60c0-5.523 4.477-10 10-10z" fill="#e80054"/></g><g><path d="m96.75 441.992h-16.642c8.367 7.915 17.268 15.269 26.642 22.008v-12.008c0-5.523-4.477-10-10-10z" fill="#ff4155"/></g><g><path d="m238.5 441.992h-106.75c-5.523 0-10 4.477-10 10v22.006c37.044 22.861 80.347 36.548 126.75 37.884v-59.89c0-5.523-4.477-10-10-10z" fill="#ff4155"/></g><g><path d="m121.75 451.992v22.006c12.647 7.805 26.018 14.549 40 20.089v-42.095c0-5.523 4.477-10 10-10h-40c-5.523 0-10 4.477-10 10z" fill="#e80054"/></g><g><path d="m380.25 441.992h-106.75c-5.523 0-10 4.477-10 10v59.89c46.403-1.336 89.706-15.022 126.75-37.884v-22.006c0-5.523-4.477-10-10-10z" fill="#ff4155"/></g><g><path d="m431.892 441.992h-16.642c-5.523 0-10 4.477-10 10v12.008c9.375-6.739 18.276-14.093 26.642-22.008z" fill="#e80054"/></g><g><path d="m263.5 451.992v59.89c13.628-.392 26.986-1.857 40-4.299v-55.591c0-5.523 4.477-10 10-10h-40c-5.523 0-10 4.477-10 10z" fill="#e80054"/></g></g></svg>