<svg id="Capa_1" enable-background="new 0 0 512 512" height="512" viewBox="0 0 512 512" width="512" xmlns="http://www.w3.org/2000/svg"><g><g><path d="m486 368.507c16.643-33.959 26-72.138 26-112.507 0-141.385-114.615-256-256-256s-256 114.615-256 256c0 40.369 9.357 78.548 26 112.507z" fill="#4fabf7"/></g><g><path d="m208.563 93.094-28.125-42.188c-3.71-5.564-9.955-8.906-16.642-8.906h-97.796c-11.046 0-20 8.954-20 20v236h420v-176c0-11.046-8.954-20-20-20h-220.796c-6.687 0-12.932-3.342-16.641-8.906z" fill="#ffb332"/></g><g><path d="m115.449 152v-110h-49.449c-11.046 0-20 8.954-20 20v236h420v-146z" fill="#ff9100"/></g><g><path d="m406 82h-300c-11.046 0-20 8.954-20 20v140h340v-140c0-11.046-8.954-20-20-20z" fill="#e9efff"/></g><g><path d="m115.449 82h-9.449c-11.046 0-20 8.954-20 20v140h340v-90h-240.551c-38.66 0-70-31.34-70-70z" fill="#d3dcfb"/></g><g><g><g><path d="m209.382 103.689c-1.918-.794-3.498-2.375-4.225-4.493l-3.728-10.848c-1.346-3.917.738-8.184 4.655-9.53s8.184.738 9.53 4.655l3.728 10.848c1.346 3.917-.738 8.184-4.655 9.53-1.8.619-3.674.513-5.305-.162z" fill="#112360"/></g></g><g><g><path d="m198.453 130.067c-3.827-1.585-5.644-5.972-4.059-9.799l10.927-26.38c1.585-3.827 5.972-5.644 9.799-4.059s5.644 5.972 4.059 9.799l-10.927 26.38c-1.585 3.827-5.972 5.644-9.799 4.059z" fill="#1c2e7a"/></g></g><g><g><path d="m233.754 175.481c-1.162-.481-2.217-1.261-3.044-2.324l-35.308-45.416c-2.542-3.27-1.952-7.982 1.318-10.525 3.271-2.542 7.982-1.952 10.525 1.318l35.308 45.416c2.542 3.27 1.952 7.982-1.318 10.525-2.208 1.715-5.071 2.005-7.481 1.006z" fill="#2a428c"/></g></g><g><g><path d="m111.726 210.417c-2.478-1.026-4.323-3.352-4.6-6.208-.4-4.123 2.617-7.79 6.74-8.19l11.661-1.132c4.123-.399 7.789 2.618 8.19 6.74.4 4.123-2.618 7.789-6.741 8.19l-11.661 1.132c-1.266.123-2.49-.077-3.589-.532z" fill="#112360"/></g></g><g><g><path d="m123.38 209.283c-.798-.331-1.552-.806-2.223-1.427-3.039-2.814-3.223-7.559-.409-10.599l42.013-45.385c2.813-3.04 7.557-3.223 10.599-.409 3.039 2.814 3.223 7.559.409 10.599l-42.013 45.385c-2.193 2.369-5.559 3.003-8.376 1.836z" fill="#1c2e7a"/></g></g><g><g><path d="m227.845 189.764-62.45-25.868c-3.827-1.585-5.644-5.972-4.059-9.799s5.972-5.644 9.799-4.059l62.45 25.868c3.827 1.585 5.644 5.972 4.059 9.799s-5.973 5.644-9.799 4.059z" fill="#2a428c"/></g></g><g><g><path d="m133.821 301.933c-1.773-.735-3.266-2.146-4.059-4.059-1.585-3.827.232-8.214 4.059-9.799l13.066-5.412c3.827-1.585 8.214.232 9.799 4.059s-.232 8.214-4.059 9.799l-13.066 5.412c-1.913.792-3.967.734-5.74 0z" fill="#112360"/></g></g><g><g><path d="m146.891 296.525c-2.578-1.068-4.454-3.537-4.622-6.509l-3.9-68.978c-.234-4.136 2.929-7.678 7.064-7.912 4.137-.233 7.678 2.929 7.911 7.064l3.9 68.978c.234 4.136-2.929 7.678-7.064 7.912-1.163.066-2.28-.137-3.289-.555z" fill="#1c2e7a"/></g></g><g><g><path d="m142.987 227.543c-1.809-.749-3.324-2.202-4.103-4.167-1.526-3.851.359-8.21 4.21-9.735l77.693-30.781c3.852-1.525 8.209.359 9.735 4.21s-.359 8.21-4.21 9.735l-77.693 30.781c-1.887.748-3.895.677-5.632-.043z" fill="#2a428c"/></g></g><g><g><path d="m239.529 103.141c-3.827-1.585-5.644-5.972-4.059-9.799l6.335-15.293c1.585-3.827 5.972-5.644 9.799-4.059s5.644 5.972 4.059 9.799l-6.335 15.293c-1.585 3.827-5.973 5.644-9.799 4.059z" fill="#112360"/></g></g><g><g><path d="m253.24 128.442c-1.533-.635-2.867-1.781-3.719-3.354l-13.716-25.303c-1.974-3.641-.622-8.194 3.02-10.168 3.641-1.974 8.193-.622 10.168 3.02l13.716 25.303c1.974 3.642.622 8.194-3.02 10.168-2.069 1.122-4.432 1.17-6.449.334z" fill="#2a428c"/></g></g><g><g><path d="m301.765 141.955c-1.63-.675-3.03-1.925-3.866-3.636-1.818-3.722-.275-8.213 3.447-10.031l10.307-5.035c3.722-1.818 8.212-.276 10.031 3.447 1.818 3.722.275 8.213-3.447 10.031l-10.307 5.035c-2.012.982-4.248.983-6.165.189z" fill="#112360"/></g></g><g><g><path d="m290.841 168.336c-3.827-1.585-5.644-5.972-4.059-9.799l10.927-26.38c1.585-3.827 5.972-5.644 9.799-4.059s5.644 5.972 4.059 9.799l-10.927 26.38c-1.585 3.826-5.973 5.644-9.799 4.059z" fill="#1c2e7a"/></g></g><g><g><path d="m233.766 175.487c-2.41-.998-4.23-3.227-4.578-6.001-.514-4.11 2.4-7.859 6.51-8.374l57.08-7.147c4.11-.514 7.86 2.4 8.374 6.51s-2.4 7.859-6.51 8.374l-57.08 7.147c-1.336.167-2.634-.028-3.796-.509z" fill="#2a428c"/></g></g><g><g><path d="m295.35 286.476c-1.099-.455-2.105-1.179-2.915-2.162l-7.445-9.046c-2.632-3.198-2.173-7.925 1.025-10.557s7.925-2.172 10.557 1.025l7.445 9.046c2.632 3.198 2.173 7.925-1.025 10.557-2.215 1.824-5.164 2.164-7.642 1.137z" fill="#112360"/></g></g><g><g><path d="m287.911 277.434c-2.818-1.167-4.749-3.995-4.625-7.22l2.384-61.8c.16-4.139 3.645-7.365 7.784-7.206 4.14.162 7.365 3.645 7.206 7.784l-2.384 61.8c-.16 4.139-3.645 7.365-7.784 7.206-.914-.037-1.783-.234-2.581-.564z" fill="#1c2e7a"/></g></g><g><g><path d="m290.295 215.632-62.45-25.868c-3.827-1.585-5.644-5.972-4.059-9.799s5.972-5.644 9.799-4.059l62.45 25.868c3.827 1.585 5.644 5.972 4.059 9.799s-5.972 5.644-9.799 4.059z" fill="#2a428c"/></g></g><g><g><path d="m215.015 335.564c-1.773-.735-3.266-2.146-4.059-4.059l-5.412-13.066c-1.585-3.827.232-8.214 4.059-9.799s8.214.232 9.799 4.059l5.412 13.066c1.585 3.827-.232 8.214-4.059 9.799-1.913.793-3.967.735-5.74 0z" fill="#112360"/></g></g><g><g><path d="m209.597 322.499c-1.009-.418-1.942-1.064-2.718-1.934-2.759-3.089-2.491-7.831.599-10.59l51.532-46.017c3.09-2.759 7.831-2.492 10.59.599 2.759 3.089 2.491 7.831-.599 10.59l-51.532 46.017c-2.221 1.982-5.294 2.402-7.872 1.335z" fill="#1c2e7a"/></g></g><g><g><path d="m261.135 276.482c-1.738-.72-3.208-2.089-4.013-3.952l-33.172-76.703c-1.644-3.802.105-8.217 3.907-9.861 3.802-1.645 8.216.105 9.861 3.907l33.172 76.703c1.644 3.802-.105 8.217-3.907 9.861-1.94.839-4.039.794-5.848.045z" fill="#2a428c"/></g></g><g><g><path d="m280.835 120.251c-3.827-1.585-5.644-5.972-4.059-9.799l6.335-15.293c1.585-3.827 5.972-5.644 9.799-4.059s5.644 5.972 4.059 9.799l-6.335 15.293c-1.585 3.827-5.972 5.644-9.799 4.059z" fill="#1c2e7a"/></g></g><g><g><path d="m253.249 128.446c-2.017-.835-3.653-2.54-4.323-4.796-1.179-3.971 1.084-8.146 5.054-9.325l27.59-8.193c3.971-1.179 8.145 1.084 9.325 5.054 1.179 3.971-1.084 8.146-5.054 9.325l-27.59 8.193c-1.715.51-3.469.377-5.002-.258z" fill="#2a428c"/></g></g><g><path d="m262.271 106.654c-5.43-2.249-11.693-.514-15.192 4.208l-18.593 25.094 36.955 15.307 4.597-30.891c.865-5.813-2.337-11.469-7.767-13.718z" fill="#1c2e7a"/></g><g><path d="m250.256 138.153-1.764-.731c-19.923-8.252-42.763 1.209-51.015 21.131l73.91 30.615c8.253-19.922-1.208-42.763-21.131-51.015z" fill="#3c58a0"/></g><g><path d="m265.668 149.656c-3.964-4.906-9.175-8.92-15.412-11.503l-1.764-.731c-19.923-8.252-42.763 1.208-51.015 21.131l36.208 14.998c5.669-13.685 18.221-22.433 31.983-23.895z" fill="#2a428c"/></g><g><path d="m194.536 270.181c-25.512-10.568-37.627-39.816-27.06-65.328l19.134-46.194c2.113-5.102 7.963-7.525 13.066-5.412l73.91 30.615c5.102 2.114 7.525 7.963 5.412 13.066l-19.134 46.194c-10.568 25.511-39.816 37.626-65.328 27.059z" fill="#4b6bb2"/></g><g><path d="m193.016 215.432 19.134-46.194c2.114-5.103 7.963-7.525 13.066-5.412l-25.541-10.579c-5.102-2.113-10.952.309-13.066 5.412l-19.134 46.194c-10.568 25.512 1.548 54.761 27.06 65.328 4.432 1.836 8.977 2.972 13.517 3.487-17.002-13.536-23.767-37.156-15.036-58.236z" fill="#3c58a0"/></g><g><circle cx="241.199" cy="118.707" fill="#4b6bb2" r="7.5"/></g><g><circle cx="268.649" cy="130.077" fill="#4b6bb2" r="7.5"/></g><g><circle cx="216.54" cy="217.057" fill="#3c58a0" r="7.5"/></g><g><path d="m245.938 204.881-41.575-17.221c-3.827-1.585-5.644-5.972-4.059-9.799 1.585-3.827 5.972-5.644 9.799-4.059l41.575 17.221c3.827 1.585 5.644 5.972 4.059 9.799-1.585 3.827-5.972 5.644-9.799 4.059z" fill="#3c58a0"/></g></g><g><path d="m486 368.507v-156.507c0-11.046-8.954-20-20-20h-420c-11.046 0-20 8.954-20 20v156.507c41.646 84.977 128.984 143.493 230 143.493s188.354-58.516 230-143.493z" fill="#ffdd40"/></g><g><path d="m86 192h-40c-11.046 0-20 8.954-20 20v156.507c41.646 84.977 128.984 143.493 230 143.493s188.354-58.516 230-143.493h-223.493c-97.482 0-176.507-79.025-176.507-176.507z" fill="#ffb332"/></g><g><path d="m321 272h-130c-8.284 0-15-6.716-15-15 0-8.284 6.716-15 15-15h130c8.284 0 15 6.716 15 15 0 8.284-6.716 15-15 15z" fill="#ffb332"/></g><g><g><g><path d="m234.316 457.307c.794 1.918.794 4.153-.189 6.165l-5.035 10.307c-1.818 3.722-6.309 5.265-10.031 3.447s-5.265-6.309-3.447-10.031l5.035-10.307c1.818-3.722 6.309-5.265 10.031-3.447 1.71.835 2.961 2.236 3.636 3.866z" fill="#112360"/></g></g><g><g><path d="m260.697 446.383c1.585 3.827-.232 8.214-4.059 9.799l-26.38 10.927c-3.827 1.585-8.214-.232-9.799-4.059s.232-8.214 4.059-9.799l26.38-10.927c3.826-1.585 8.214.232 9.799 4.059z" fill="#1c2e7a"/></g></g><g><g><path d="m267.848 389.309c.481 1.162.676 2.46.509 3.796l-7.147 57.08c-.515 4.11-4.264 7.024-8.374 6.51-4.111-.515-7.024-4.264-6.51-8.374l7.147-57.08c.515-4.11 4.264-7.024 8.374-6.51 2.773.347 5.003 2.168 6.001 4.578z" fill="#2a428c"/></g></g><g><g><path d="m378.838 450.892c1.026 2.478.687 5.427-1.137 7.642-2.632 3.198-7.359 3.657-10.557 1.025l-9.046-7.445c-3.197-2.633-3.657-7.359-1.025-10.557s7.359-3.657 10.557-1.025l9.046 7.445c.982.809 1.707 1.816 2.162 2.915z" fill="#112360"/></g></g><g><g><path d="m369.795 443.454c.331.798.528 1.667.563 2.581.159 4.139-3.066 7.624-7.206 7.784l-61.8 2.384c-4.139.16-7.623-3.065-7.784-7.206-.159-4.139 3.066-7.624 7.206-7.784l61.8-2.384c3.226-.125 6.054 1.807 7.221 4.625z" fill="#1c2e7a"/></g></g><g><g><path d="m282.126 383.388 25.868 62.45c1.585 3.827-.232 8.214-4.059 9.799s-8.214-.232-9.799-4.059l-25.868-62.45c-1.585-3.827.232-8.214 4.059-9.799 3.826-1.585 8.213.232 9.799 4.059z" fill="#2a428c"/></g></g><g><g><path d="m427.926 370.557c.735 1.773.792 3.827 0 5.74-1.585 3.827-5.972 5.644-9.799 4.059l-13.066-5.412c-3.827-1.585-5.644-5.973-4.059-9.799 1.585-3.827 5.972-5.644 9.799-4.059l13.066 5.412c1.913.793 3.324 2.286 4.059 4.059z" fill="#112360"/></g></g><g><g><path d="m414.86 365.14c1.068 2.578.648 5.651-1.335 7.871l-46.017 51.532c-2.759 3.09-7.5 3.358-10.59.599-3.09-2.761-3.358-7.5-.599-10.59l46.017-51.532c2.759-3.09 7.5-3.358 10.59-.599.87.776 1.516 1.71 1.934 2.719z" fill="#1c2e7a"/></g></g><g><g><path d="m368.843 416.677c.749 1.809.794 3.908-.045 5.848-1.644 3.802-6.059 5.551-9.861 3.907l-76.703-33.172c-3.802-1.645-5.551-6.059-3.907-9.861s6.059-5.551 9.861-3.907l76.703 33.172c1.863.806 3.233 2.276 3.952 4.013z" fill="#2a428c"/></g></g><g><g><path d="m212.612 436.378c1.585 3.827-.232 8.214-4.059 9.799l-15.293 6.335c-3.827 1.585-8.214-.232-9.799-4.059s.232-8.214 4.059-9.799l15.293-6.335c3.827-1.585 8.214.232 9.799 4.059z" fill="#112360"/></g></g><g><g><path d="m220.807 408.791c.635 1.533.768 3.286.258 5.002l-8.193 27.59c-1.179 3.971-5.354 6.233-9.325 5.054-3.97-1.179-6.234-5.354-5.054-9.325l8.193-27.59c1.179-3.971 5.354-6.233 9.325-5.054 2.256.67 3.961 2.307 4.796 4.323z" fill="#2a428c"/></g></g><g><g><path d="m196.05 364.925c.675 1.63.781 3.504.163 5.305-1.346 3.917-5.613 6.001-9.53 4.655l-10.848-3.728c-3.917-1.346-6.002-5.612-4.655-9.53 1.346-3.917 5.613-6.001 9.53-4.655l10.848 3.728c2.116.727 3.698 2.307 4.492 4.225z" fill="#112360"/></g></g><g><g><path d="m222.428 353.995c1.585 3.827-.232 8.214-4.059 9.799l-26.38 10.927c-3.827 1.585-8.214-.232-9.799-4.059s.232-8.214 4.059-9.799l26.38-10.927c3.827-1.585 8.214.232 9.799 4.059z" fill="#1c2e7a"/></g></g><g><g><path d="m267.843 389.296c.998 2.41.709 5.274-1.006 7.48-2.543 3.27-7.255 3.86-10.525 1.318l-45.416-35.308c-3.27-2.542-3.861-7.255-1.318-10.525s7.255-3.86 10.525-1.318l45.416 35.308c1.062.828 1.843 1.884 2.324 3.045z" fill="#2a428c"/></g></g><g><g><path d="m302.778 267.268c.455 1.099.655 2.323.532 3.59l-1.132 11.661c-.4 4.123-4.067 7.141-8.19 6.741-4.122-.401-7.139-4.068-6.74-8.19l1.132-11.661c.4-4.123 4.067-7.141 8.19-6.74 2.856.276 5.182 2.122 6.208 4.599z" fill="#112360"/></g></g><g><g><path d="m301.644 278.923c1.167 2.818.533 6.183-1.835 8.376l-45.385 42.013c-3.04 2.814-7.785 2.631-10.599-.409-2.813-3.042-2.63-7.785.409-10.599l45.385-42.013c3.04-2.814 7.785-2.631 10.599.409.62.671 1.095 1.425 1.426 2.223z" fill="#1c2e7a"/></g></g><g><g><path d="m256.258 320.937 25.868 62.45c1.585 3.827-.232 8.214-4.059 9.799s-8.214-.232-9.799-4.059l-25.868-62.45c-1.585-3.827.232-8.214 4.059-9.799 3.826-1.585 8.214.232 9.799 4.059z" fill="#2a428c"/></g></g><g><g><path d="m394.294 289.363c.735 1.773.792 3.827 0 5.74l-5.412 13.066c-1.585 3.827-5.972 5.644-9.799 4.059s-5.644-5.973-4.059-9.799l5.412-13.066c1.585-3.827 5.972-5.644 9.799-4.059 1.913.793 3.325 2.286 4.059 4.059z" fill="#112360"/></g></g><g><g><path d="m388.886 302.433c.418 1.009.621 2.126.555 3.289-.234 4.135-3.776 7.298-7.911 7.064l-68.978-3.9c-4.135-.234-7.299-3.776-7.064-7.912.234-4.135 3.776-7.298 7.911-7.064l68.978 3.9c2.971.169 5.441 2.046 6.509 4.623z" fill="#1c2e7a"/></g></g><g><g><path d="m319.905 298.529c.72 1.738.791 3.746.043 5.632l-30.781 77.693c-1.526 3.851-5.884 5.736-9.735 4.21-3.852-1.526-5.735-5.884-4.21-9.735l30.781-77.693c1.526-3.851 5.884-5.736 9.735-4.21 1.964.778 3.417 2.294 4.167 4.103z" fill="#2a428c"/></g></g><g><g><path d="m195.502 395.071c1.585 3.827-.232 8.214-4.059 9.799l-15.293 6.335c-3.827 1.585-8.214-.232-9.799-4.059s.232-8.214 4.059-9.799l15.293-6.335c3.827-1.585 8.214.232 9.799 4.059z" fill="#1c2e7a"/></g></g><g><g><path d="m220.804 408.782c.835 2.017.787 4.379-.334 6.448-1.974 3.642-6.526 4.994-10.168 3.02l-25.303-13.716c-3.642-1.974-4.993-6.526-3.02-10.168 1.974-3.642 6.526-4.994 10.168-3.02l25.303 13.716c1.573.854 2.719 2.187 3.354 3.72z" fill="#2a428c"/></g></g><g><path d="m199.015 417.812c2.249 5.43 7.905 8.632 13.718 7.767l30.891-4.597-15.307-36.955-25.094 18.593c-4.722 3.499-6.457 9.762-4.208 15.192z" fill="#1c2e7a"/></g><g><path d="m229.784 404.035.731 1.764c8.252 19.923 31.093 29.384 51.015 21.131l-30.615-73.91c-19.923 8.252-29.383 31.092-21.131 51.015z" fill="#3c58a0"/></g><g><path d="m227.02 385.003c-.666 6.272.18 12.795 2.764 19.032l.731 1.764c8.252 19.923 31.093 29.384 51.015 21.131l-14.998-36.208c-13.686 5.669-28.748 2.979-39.512-5.719z" fill="#2a428c"/></g><g><path d="m362.542 350.078c10.568 25.512-1.548 54.761-27.06 65.328l-46.194 19.134c-5.102 2.113-10.952-.31-13.066-5.412l-30.615-73.91c-2.113-5.102.31-10.952 5.412-13.066l46.194-19.134c25.513-10.567 54.761 1.548 65.329 27.06z" fill="#4b6bb2"/></g><g><path d="m324.903 389.865-46.194 19.134c-5.103 2.114-10.952-.309-13.066-5.412l10.579 25.541c2.113 5.102 7.963 7.525 13.066 5.412l46.194-19.134c25.512-10.568 37.627-39.816 27.06-65.328-1.836-4.432-4.246-8.449-7.092-12.024 2.451 21.594-9.467 43.08-30.547 51.811z" fill="#3c58a0"/></g><g><circle cx="222.438" cy="424.19" fill="#4b6bb2" r="7.5"/></g><g><circle cx="211.068" cy="396.74" fill="#4b6bb2" r="7.5"/></g><g><circle cx="309.419" cy="372.082" fill="#3c58a0" r="7.5"/></g><g><path d="m280.021 359.905 17.221 41.575c1.585 3.827-.232 8.214-4.059 9.799-3.827 1.585-8.214-.232-9.799-4.059l-17.221-41.575c-1.585-3.827.232-8.214 4.059-9.799 3.826-1.586 8.214.232 9.799 4.059z" fill="#3c58a0"/></g></g></g></svg>