<svg id="Capa_1" enable-background="new 0 0 512 512" height="512" viewBox="0 0 512 512" width="512" xmlns="http://www.w3.org/2000/svg"><g><g><path d="m486 368.507c16.643-33.959 26-72.138 26-112.507 0-141.385-114.615-256-256-256s-256 114.615-256 256c0 40.369 9.357 78.548 26 112.507z" fill="#4fabf7"/></g><g><path d="m208.563 93.094-28.125-42.188c-3.71-5.564-9.955-8.906-16.642-8.906h-97.796c-11.046 0-20 8.954-20 20v236h420v-176c0-11.046-8.954-20-20-20h-220.796c-6.687 0-12.932-3.342-16.641-8.906z" fill="#ffb332"/></g><g><path d="m115.449 152v-110h-49.449c-11.046 0-20 8.954-20 20v236h420v-146z" fill="#ff9100"/></g><g><path d="m406 82h-300c-11.046 0-20 8.954-20 20v140h340v-140c0-11.046-8.954-20-20-20z" fill="#e9efff"/></g><g><path d="m115.449 82h-9.449c-11.046 0-20 8.954-20 20v140h340v-90h-240.551c-38.66 0-70-31.34-70-70z" fill="#d3dcfb"/></g><g><circle cx="139.34" cy="117" fill="#bec8f7" r="25"/></g><g><path d="m86 162v30h-41c-24.853 0-45-20.147-45-45 0-24.853 20.147-45 45-45h94.34c8.284 0 15 6.716 15 15 0 8.284-6.716 15-15 15h-94.34c-8.284 0-15 6.716-15 15 0 8.284 6.716 15 15 15z" fill="#ff4155"/></g><g><circle cx="343.68" cy="134.511" fill="#bec8f7" r="25"/></g><g><path d="m391.359 52.032h-17.68c-8.284 0-15 6.716-15 15v67.479c0 8.284-6.716 15-15 15-8.284 0-15-6.716-15-15v-67.479c0-24.853 20.147-45 45-45h17.68c8.284 0 15 6.716 15 15 0 8.284-6.716 15-15 15z" fill="#ff4155"/></g><g><path d="m486 368.507v-156.507c0-11.046-8.954-20-20-20h-420c-11.046 0-20 8.954-20 20v156.507c41.646 84.977 128.984 143.493 230 143.493s188.354-58.516 230-143.493z" fill="#ffdd40"/></g><g><path d="m86 192h-40c-11.046 0-20 8.954-20 20v156.507c41.646 84.977 128.984 143.493 230 143.493s188.354-58.516 230-143.493h-223.493c-97.482 0-176.507-79.025-176.507-176.507z" fill="#ffb332"/></g><g><circle cx="187.93" cy="393.507" fill="#ff9100" r="25"/></g><g><circle cx="102.17" cy="296.028" fill="#ff9100" r="25"/></g><g><path d="m321 272h-130c-8.284 0-15-6.716-15-15 0-8.284 6.716-15 15-15h130c8.284 0 15 6.716 15 15 0 8.284-6.716 15-15 15z" fill="#ffb332"/></g><g><path d="m49.34 192v-30h-4.34c-4.171 0-7.941-1.705-10.66-4.452v33.171c3.418.83 6.986 1.281 10.66 1.281z" fill="#e80054"/></g><g><path d="m45 102c-3.674 0-7.242.451-10.66 1.281v33.171c2.719-2.747 6.489-4.452 10.66-4.452h4.34v-30z" fill="#e80054"/></g><g><circle cx="302.66" cy="453.507" fill="#ff9100" r="25"/></g><g><circle cx="391" cy="393.507" fill="#ff9100" r="25"/></g><g><path d="m376 393.507c0-8.284 6.716-15 15-15h76c24.853 0 45 20.147 45 45 0 24.853-20.147 45-45 45h-164.34c-8.284 0-15-6.716-15-15 0-8.284 6.716-15 15-15h164.34c8.284 0 15-6.716 15-15 0-8.284-6.716-15-15-15h-76c-8.284 0-15-6.716-15-15z" fill="#ff4155"/></g><g><path d="m187.93 378.507c-39.08 0-70.76-31.68-70.76-70.76v-11.719c0-8.284-6.716-15-15-15-8.284 0-15 6.716-15 15v11.719c0 55.648 45.112 100.76 100.76 100.76 8.284 0 15-6.716 15-15 0-8.284-6.716-15-15-15z" fill="#ff4155"/></g><g><path d="m328.68 89.511h30v15h-30z" fill="#e80054"/></g><g><path d="m329.317 59.511c-.412 2.447-.638 4.957-.638 7.521v7.479h30v-7.479c0-2.744.749-5.308 2.036-7.521z" fill="#e80054"/></g><g><path d="m368.859 29.532h30v15h-30z" fill="#e80054" transform="matrix(0 1 -1 0 420.891 -346.827)"/></g><g><path d="m347.615 30.361c-4.1 2.919-7.687 6.507-10.607 10.607l22.194 22.194c1.379-5.168 5.438-9.228 10.607-10.607z" fill="#e80054"/></g><g><path d="m132.882 352.189-21.305 21.305c3.269 3.792 6.814 7.338 10.607 10.607l21.305-21.305c-3.9-3.152-7.456-6.708-10.607-10.607z" fill="#e80054"/></g><g><path d="m167.933 375.623c-4.856-1.429-9.501-3.35-13.862-5.731l-11.529 27.833c4.44 2.244 9.069 4.168 13.857 5.744z" fill="#e80054"/></g><g><path d="m117.17 307.747v-7.5h-30v7.5c0 2.523.096 5.024.278 7.5h30.121c-.26-2.465-.399-4.966-.399-7.5z" fill="#e80054"/></g><g><path d="m111.234 284.096c-2.011-1.53-4.415-2.561-7.039-2.916z" fill="#e80054"/></g><g><path d="m125.785 341.606c-2.381-4.361-4.302-9.006-5.731-13.862l-27.845 11.534c1.576 4.787 3.5 9.417 5.744 13.857z" fill="#e80054"/></g><g><circle cx="281.766" cy="370.884" fill="#ff9100" r="25"/></g><g><circle cx="398.555" cy="314.162" fill="#ff9100" r="25"/></g><g><path d="m296.225 374.876c10.402-37.67 49.371-59.776 87.042-49.374l11.296 3.119c7.985 2.205 16.246-2.481 18.451-10.466 2.205-7.985-2.481-16.246-10.466-18.451l-11.296-3.119c-53.641-14.811-109.133 16.666-123.944 70.307-2.205 7.985 2.481 16.246 10.466 18.451 7.985 2.204 16.246-2.482 18.451-10.467z" fill="#ff4155"/></g><g><path d="m336.246 328.818-14.866-26.207c-4.525 2.141-8.887 4.615-13.047 7.401l14.866 26.207c4.075-2.92 8.449-5.401 13.047-7.401z" fill="#e80054"/></g><g><path d="m304.328 356.368c2.67-4.301 5.758-8.267 9.214-11.837l-23.76-18.521c-3.345 3.683-6.431 7.633-9.225 11.828z" fill="#e80054"/></g><g><path d="m383.266 325.502 7.229 1.996 7.985-28.918-7.229-1.996c-2.432-.672-4.868-1.245-7.304-1.728l-8.017 29.035c2.446.405 4.894.936 7.336 1.611z" fill="#e80054"/></g><g><path d="m348.335 324.794c4.837-1.134 9.826-1.75 14.887-1.835l-3.706-29.911c-5.034.245-10.008.867-14.886 1.849z" fill="#e80054"/></g><g><path d="m295.16 446.007h30v15h-30z" fill="#e80054" transform="matrix(0 1 -1 0 763.667 143.347)"/></g><g><path d="m325.16 446.007h30v15h-30z" fill="#e80054" transform="matrix(0 1 -1 0 793.667 113.347)"/></g><g><path d="m355.16 446.007h30v15h-30z" fill="#e80054" transform="matrix(0 1 -1 0 823.667 83.347)"/></g><g><path d="m392.661 378.507h15v30h-15z" fill="#e80054"/></g><g><path d="m392.661 438.507h15v30h-15z" fill="#e80054"/></g><g><path d="m422.661 378.507h15v30h-15z" fill="#e80054"/></g><g><path d="m422.661 438.507h15v30h-15z" fill="#e80054"/></g><g><path d="m452.661 438.507v30h14.339c.222 0 .44-.014.661-.017v-30.017c-.221.01-.438.033-.661.033h-14.339z" fill="#e80054"/></g><g><path d="m452.661 378.507v30h14.339c.223 0 .44.024.661.033v-30.017c-.221-.003-.439-.017-.661-.017h-14.339z" fill="#e80054"/></g><g><path d="m481.477 427.378c-1.379 5.168-5.438 9.227-10.607 10.607l22.194 22.194c4.1-2.919 7.687-6.507 10.607-10.607z" fill="#e80054"/></g><g><path d="m493.065 386.836-22.194 22.194c5.168 1.379 9.228 5.439 10.607 10.607l22.194-22.194c-2.92-4.101-6.507-7.688-10.607-10.607z" fill="#e80054"/></g><g><path d="m116.84 109.5h30v15h-30z" fill="#e80054" transform="matrix(0 1 -1 0 248.84 -14.84)"/></g><g><path d="m86.84 109.5h30v15h-30z" fill="#e80054" transform="matrix(0 1 -1 0 218.84 15.16)"/></g><g><path d="m56.84 109.5h30v15h-30z" fill="#e80054" transform="matrix(0 1 -1 0 188.84 45.16)"/></g><g><path d="m30 147c0-2.735.744-5.292 2.023-7.5h-31.389c-.41 2.44-.634 4.943-.634 7.5 0 2.557.224 5.06.634 7.5h31.389c-1.279-2.208-2.023-4.765-2.023-7.5z" fill="#e80054"/></g><g><path d="m56.84 169.5h30v15h-30z" fill="#e80054" transform="matrix(0 1 -1 0 248.84 105.16)"/></g><g><path d="m30.523 143.129c1.379-5.168 5.438-9.228 10.607-10.607l-22.194-22.194c-4.1 2.919-7.687 6.507-10.607 10.607z" fill="#e80054"/></g><g><path d="m30.523 150.871-22.194 22.194c2.92 4.1 6.507 7.687 10.607 10.607l22.194-22.194c-5.169-1.38-9.228-5.439-10.607-10.607z" fill="#e80054"/></g><g><path d="m328.68 119.511h30v15h-30z" fill="#e80054"/></g><g><circle cx="369.809" cy="27.032" fill="#112360" r="10"/></g></g></svg>