<svg id="Capa_1" enable-background="new 0 0 512 512" height="512" viewBox="0 0 512 512" width="512" xmlns="http://www.w3.org/2000/svg"><g><g><circle cx="256" cy="256" fill="#4fabf7" r="256"/></g><g><path d="m480.992 78.307c.173-10.851-8.332-19.888-19.176-20.305-114.101-4.392-181.591-46.332-205.816-46.332s-91.715 41.94-205.816 46.332c-10.844.418-19.349 9.455-19.176 20.305.861 53.978 6.077 203.145 37.197 266.182 38.346 77.675 156.332 155.841 187.795 155.841s149.449-78.166 187.795-155.84c31.12-63.038 36.336-212.205 37.197-266.183z" fill="#e9efff"/></g><g><path d="m256 485.33c-9.064 0-41.459-14.526-82.2-45.704-42.797-32.751-76.382-69.847-92.145-101.776-30.209-61.192-34.924-214.31-35.649-259.782-.043-2.697 2.09-4.975 4.755-5.077 79-3.041 135.207-23.162 172.4-36.476 14.143-5.063 27.501-9.845 32.839-9.845s18.696 4.782 32.839 9.845c37.193 13.314 93.4 33.436 172.4 36.476 2.665.103 4.798 2.38 4.755 5.078-.726 45.471-5.44 198.589-35.649 259.781-15.763 31.929-49.348 69.025-92.145 101.776-40.741 31.178-73.136 45.704-82.2 45.704z" fill="#bec8f7"/></g><g><path d="m373.381 110.39-62.812 54.289c-5.14 4.443-6.652 11.785-3.686 17.898l28.093 57.887c2.908 5.993 1.516 13.186-3.419 17.661l-34.935 31.677c-3.72 3.373-5.505 8.384-4.756 13.349l2.895 19.197c.837 5.551-6.701 8.055-9.352 3.106l-14.768-27.576c-2.86-5.34-2.227-11.877 1.605-16.569l25.26-30.933c4.519-5.534 4.508-13.487-.027-19.008l-41.532-50.562c-4.362-5.31-4.557-12.904-.475-18.432l47.765-64.678c4.022-5.446 1.594-13.243-4.817-15.419-8.349-2.835-16.027-5.583-23.064-8.102-4.835-1.731-11.19-4.006-16.234-5.677-2.028-.672-4.217-.672-6.245 0-5.045 1.67-11.399 3.945-16.235 5.677-32.343 11.578-78.227 28.003-140.535 35.374-5.209.616-9.079 5.115-8.856 10.356 3.297 77.437 12.533 164.306 30.272 200.237 12.941 26.213 43.066 59.004 80.587 87.717 27.944 21.385 48.373 31.957 57.891 36.025 9.518-4.069 29.947-14.641 57.891-36.025 37.52-28.713 67.646-61.504 80.586-87.717 17.739-35.931 26.975-122.8 30.272-200.236.223-5.243-3.648-9.741-8.86-10.359-9.065-1.074-17.78-2.34-26.158-3.755-5.862-.988-11.854.711-16.351 4.598z" fill="#e9efff"/></g><g><path d="m185.622 337.85c-26.365-53.405-33.31-176.822-35.134-237.597-16.54 3.713-34.633 6.96-54.382 9.296-5.209.616-9.079 5.115-8.856 10.356 3.297 77.437 12.533 164.306 30.272 200.237 12.941 26.213 43.066 59.004 80.587 87.717 27.944 21.385 48.373 31.957 57.891 36.025 3.823-1.634 9.409-4.32 16.531-8.331-40.292-31.729-71.795-67.09-86.909-97.703z" fill="#d3dcfb"/></g><g><g><g><path d="m163.367 255.714c-1.179-1.708-1.647-3.894-1.108-6.067l2.76-11.134c.997-4.02 5.064-6.472 9.084-5.475s6.472 5.064 5.475 9.084l-2.76 11.134c-.997 4.02-5.064 6.472-9.084 5.475-1.848-.458-3.364-1.564-4.367-3.017z" fill="#112360"/></g></g><g><g><path d="m139.865 271.929c-2.353-3.409-1.496-8.08 1.913-10.433l23.501-16.218c3.409-2.353 8.08-1.496 10.433 1.913s1.496 8.08-1.913 10.433l-23.501 16.218c-3.409 2.353-8.08 1.496-10.433-1.913z" fill="#1c2e7a"/></g></g><g><g><path d="m144.846 329.234c-.714-1.035-1.177-2.263-1.294-3.605l-4.986-57.309c-.359-4.126 2.696-7.763 6.822-8.122 4.127-.359 7.762 2.695 8.122 6.822l4.986 57.309c.359 4.126-2.696 7.763-6.822 8.122-2.785.242-5.347-1.07-6.828-3.217z" fill="#2a428c"/></g></g><g><g><path d="m23.407 292.304c-1.523-2.208-1.81-5.162-.491-7.711 1.903-3.679 6.428-5.12 10.107-3.217l10.407 5.382c3.679 1.904 5.119 6.428 3.217 10.108-1.903 3.679-6.428 5.119-10.108 3.217l-10.407-5.383c-1.13-.585-2.049-1.417-2.725-2.396z" fill="#112360"/></g></g><g><g><path d="m33.809 297.68c-.491-.711-.866-1.519-1.092-2.405-1.024-4.013 1.399-8.098 5.412-9.122l59.924-15.295c4.013-1.025 8.096 1.398 9.122 5.412 1.024 4.013-1.399 8.098-5.412 9.122l-59.924 15.295c-3.128.798-6.298-.498-8.03-3.007z" fill="#1c2e7a"/></g></g><g><g><path d="m132.128 338.018-38.392-55.634c-2.353-3.409-1.496-8.08 1.913-10.433s8.08-1.496 10.433 1.913l38.392 55.634c2.353 3.409 1.496 8.08-1.913 10.433-3.41 2.353-8.08 1.496-10.433-1.913z" fill="#2a428c"/></g></g><g><path d="m50.24 312.883c-3.599-2.049-8.179-.793-10.228 2.807l-21.087 37.037c2.346 5.743 4.893 11.381 7.635 16.907l26.487-46.522c2.049-3.601.793-8.178-2.807-10.229z" fill="#1c2e7a"/></g><g><g><path d="m40.356 323.66c-1.112-1.612-1.596-3.654-1.183-5.727.81-4.062 4.76-6.698 8.822-5.889l81.955 16.344c4.063.811 6.698 4.76 5.889 8.822-.81 4.062-4.76 6.698-8.822 5.889l-81.955-16.344c-1.99-.397-3.638-1.547-4.706-3.095z" fill="#2a428c"/></g></g><g><g><path d="m188.979 271.625c-2.353-3.409-1.496-8.08 1.913-10.433l13.624-9.402c3.409-2.353 8.08-1.496 10.433 1.913s1.496 8.08-1.913 10.433l-13.624 9.402c-3.41 2.353-8.081 1.496-10.433-1.913z" fill="#112360"/></g></g><g><g><path d="m186.753 300.317c-.943-1.366-1.44-3.052-1.302-4.836l2.223-28.695c.32-4.13 3.927-7.218 8.057-6.898 4.129.32 7.218 3.927 6.898 8.057l-2.223 28.695c-.32 4.13-3.927 7.218-8.057 6.898-2.346-.182-4.356-1.424-5.596-3.221z" fill="#2a428c"/></g></g><g><g><path d="m220.162 338.014c-1.002-1.452-1.499-3.262-1.272-5.153.494-4.112 4.229-7.045 8.342-6.551l11.389 1.369c4.112.495 7.046 4.228 6.551 8.342-.494 4.113-4.229 7.045-8.342 6.551l-11.389-1.369c-2.223-.268-4.101-1.481-5.279-3.189z" fill="#112360"/></g></g><g><g><path d="m196.663 354.234c-2.353-3.409-1.496-8.08 1.913-10.433l23.501-16.218c3.409-2.353 8.08-1.496 10.433 1.913s1.496 8.08-1.913 10.433l-23.501 16.218c-3.41 2.353-8.081 1.496-10.433-1.913z" fill="#1c2e7a"/></g></g><g><g><path d="m144.854 329.245c-1.482-2.147-1.8-5.007-.585-7.525 1.8-3.731 6.284-5.296 10.014-3.496l51.812 24.995c3.73 1.8 5.297 6.283 3.496 10.014-1.8 3.731-6.284 5.296-10.014 3.496l-51.812-24.995c-1.213-.586-2.198-1.454-2.911-2.489z" fill="#2a428c"/></g></g><g><g><path d="m136.294 455.886c-.676-.979-1.128-2.134-1.273-3.398l-1.339-11.639c-.473-4.115 2.479-7.835 6.594-8.309 4.115-.473 7.834 2.48 8.309 6.594l1.339 11.639c.473 4.115-2.479 7.835-6.594 8.308-2.852.329-5.513-.987-7.036-3.195z" fill="#112360"/></g></g><g><g><path d="m134.958 444.253c-1.732-2.51-1.818-5.933.038-8.574l35.562-50.599c2.382-3.389 7.06-4.205 10.449-1.824 3.389 2.384 4.205 7.06 1.824 10.449l-35.562 50.599c-2.382 3.389-7.06 4.205-10.449 1.824-.749-.526-1.371-1.164-1.862-1.875z" fill="#1c2e7a"/></g></g><g><g><path d="m170.521 393.653-38.392-55.634c-2.353-3.409-1.496-8.08 1.913-10.433s8.08-1.496 10.433 1.913l38.392 55.634c2.353 3.409 1.496 8.08-1.913 10.433-3.41 2.352-8.08 1.496-10.433-1.913z" fill="#2a428c"/></g></g><g><path d="m118.007 417.244-53.72 8.386c4.033 4.554 8.224 8.963 12.568 13.219l43.465-6.785c4.093-.639 6.893-4.475 6.254-8.567-.638-4.092-4.474-6.891-8.567-6.253z" fill="#1c2e7a"/></g><g><g><path d="m112.991 428.914c-1.068-1.548-1.559-3.496-1.224-5.498l13.798-82.422c.684-4.085 4.55-6.843 8.636-6.159s6.842 4.55 6.159 8.636l-13.798 82.422c-.684 4.085-4.55 6.843-8.636 6.159-2.085-.349-3.823-1.527-4.935-3.138z" fill="#2a428c"/></g></g><g><g><path d="m214.373 308.423c-2.353-3.409-1.496-8.08 1.913-10.433l13.624-9.402c3.409-2.353 8.08-1.496 10.433 1.913s1.496 8.08-1.913 10.433l-13.624 9.402c-3.409 2.353-8.08 1.497-10.433-1.913z" fill="#1c2e7a"/></g></g><g><g><path d="m186.758 300.325c-1.24-1.797-1.688-4.117-1.026-6.375 1.166-3.975 5.333-6.252 9.308-5.086l27.617 8.103c3.975 1.167 6.251 5.333 5.086 9.308-1.166 3.975-5.333 6.252-9.308 5.086l-27.617-8.103c-1.717-.504-3.117-1.567-4.06-2.933z" fill="#2a428c"/></g></g><g><path d="m206.168 286.925c-3.338-4.837-9.54-6.782-15.042-4.716l-29.239 10.975 22.719 32.922 20.635-23.443c3.883-4.413 4.265-10.901.927-15.738z" fill="#1c2e7a"/></g><g><path d="m178.974 306.851-1.084-1.571c-12.248-17.748-36.565-22.207-54.313-9.959l45.438 65.844c17.748-12.249 22.207-36.566 9.959-54.314z" fill="#3c58a0"/></g><g><path d="m185.669 324.879c-.664-6.272-2.861-12.472-6.695-18.029l-1.084-1.571c-12.248-17.748-36.565-22.207-54.313-9.959l22.259 32.256c12.192-8.414 27.483-8.943 39.833-2.697z" fill="#2a428c"/></g><g><path d="m60.489 387.456c-15.684-22.728-9.974-53.867 12.753-69.551l41.152-28.399c4.546-3.137 10.773-1.995 13.91 2.551l45.438 65.844c3.137 4.546 1.995 10.773-2.551 13.91l-41.151 28.399c-22.728 15.684-53.867 9.974-69.551-12.754z" fill="#4b6bb2"/></g><g><path d="m88.944 340.659 41.152-28.399c4.546-3.137 10.773-1.995 13.91 2.551l-15.702-22.753c-3.137-4.546-9.365-5.688-13.91-2.551l-41.152 28.399c-22.728 15.684-28.438 46.823-12.754 69.551 2.725 3.948 5.924 7.37 9.457 10.269-6.926-20.6.219-44.108 18.999-57.067z" fill="#3c58a0"/></g><g><circle cx="181.929" cy="285.603" fill="#4b6bb2" r="7.5"/></g><g><circle cx="198.804" cy="310.057" fill="#4b6bb2" r="7.5"/></g><g><circle cx="107.814" cy="354.798" fill="#3c58a0" r="7.5"/></g><g><path d="m139.112 360.537-25.559-37.037c-2.353-3.409-1.496-8.08 1.913-10.433 3.409-2.353 8.08-1.496 10.433 1.913l25.559 37.037c2.353 3.409 1.496 8.08-1.913 10.433-3.409 2.353-8.08 1.497-10.433-1.913z" fill="#3c58a0"/></g></g></g></svg>