<svg id="Capa_1" enable-background="new 0 0 512 512" height="512" viewBox="0 0 512 512" width="512" xmlns="http://www.w3.org/2000/svg"><g><g><path d="m256 0c-71.213 0-135.625 29.086-182.03 76.016v359.969c46.405 46.929 110.817 76.015 182.03 76.015 141.385 0 256-114.615 256-256s-114.615-256-256-256z" fill="#1c2e7a"/></g><g><path d="m512 96v320c0 11.05-8.95 20-20 20h-418.03c-45.73-46.25-73.97-109.83-73.97-180s28.24-133.75 73.97-180h418.03c11.05 0 20 8.95 20 20z" fill="#ff7186"/></g><g><path d="m99.375 76h-25.405c-45.73 46.25-73.97 109.83-73.97 180s28.24 133.75 73.97 180h418.03c11.05 0 20-8.95 20-20v-60h-132.625c-154.64 0-280-125.36-280-280z" fill="#ff4155"/></g><g><g><path d="m64.625 236c5.454 0 9.875 4.421 9.875 9.875v30.25c0 5.454-4.421 9.875-9.875 9.875-5.454 0-9.875-4.421-9.875-9.875v-30.25c0-5.454 4.421-9.875 9.875-9.875z" fill="#e80054"/></g><g><path d="m99.375 236c5.454 0 9.875 4.421 9.875 9.875v30.25c0 5.454-4.421 9.875-9.875 9.875-5.454 0-9.875-4.421-9.875-9.875v-30.25c0-5.454 4.421-9.875 9.875-9.875z" fill="#e80054"/></g><g><path d="m134.125 236c5.454 0 9.875 4.421 9.875 9.875v30.25c0 5.454-4.421 9.875-9.875 9.875-5.454 0-9.875-4.421-9.875-9.875v-30.25c0-5.454 4.421-9.875 9.875-9.875z" fill="#e80054"/></g><g><path d="m168.875 236c5.454 0 9.875 4.421 9.875 9.875v30.25c0 5.454-4.421 9.875-9.875 9.875-5.454 0-9.875-4.421-9.875-9.875v-30.25c0-5.454 4.421-9.875 9.875-9.875z" fill="#e80054"/></g></g><g><g><path d="m357.875 236c5.454 0 9.875 4.421 9.875 9.875v30.25c0 5.454-4.421 9.875-9.875 9.875-5.454 0-9.875-4.421-9.875-9.875v-30.25c0-5.454 4.421-9.875 9.875-9.875z" fill="#e80054"/></g><g><path d="m392.625 236c5.454 0 9.875 4.421 9.875 9.875v30.25c0 5.454-4.421 9.875-9.875 9.875-5.454 0-9.875-4.421-9.875-9.875v-30.25c0-5.454 4.421-9.875 9.875-9.875z" fill="#e80054"/></g><g><path d="m427.375 236c5.454 0 9.875 4.421 9.875 9.875v30.25c0 5.454-4.421 9.875-9.875 9.875-5.454 0-9.875-4.421-9.875-9.875v-30.25c0-5.454 4.421-9.875 9.875-9.875z" fill="#e80054"/></g><g><path d="m462.125 236c5.454 0 9.875 4.421 9.875 9.875v30.25c0 5.454-4.421 9.875-9.875 9.875-5.454 0-9.875-4.421-9.875-9.875v-30.25c0-5.454 4.421-9.875 9.875-9.875z" fill="#e80054"/></g></g><g><g><path d="m228.625 236c5.454 0 9.875 4.421 9.875 9.875v30.25c0 5.454-4.421 9.875-9.875 9.875-5.454 0-9.875-4.421-9.875-9.875v-30.25c0-5.454 4.421-9.875 9.875-9.875z" fill="#e80054"/></g><g><path d="m263.375 236c5.454 0 9.875 4.421 9.875 9.875v30.25c0 5.454-4.421 9.875-9.875 9.875-5.454 0-9.875-4.421-9.875-9.875v-30.25c0-5.454 4.421-9.875 9.875-9.875z" fill="#e80054"/></g><g><path d="m298.125 236c5.454 0 9.875 4.421 9.875 9.875v30.25c0 5.454-4.421 9.875-9.875 9.875-5.454 0-9.875-4.421-9.875-9.875v-30.25c0-5.454 4.421-9.875 9.875-9.875z" fill="#e80054"/></g></g><g><path d="m164.75 206h-100c-5.523 0-10-4.477-10-10v-70c0-5.523 4.477-10 10-10h100c5.523 0 10 4.477 10 10v70c0 5.523-4.477 10-10 10z" fill="#fff"/></g><g><path d="m102.232 116h-37.482c-5.523 0-10 4.477-10 10v70c0 5.523 4.477 10 10 10h66.591c-14.498-27.605-24.521-57.924-29.109-90z" fill="#e9efff"/></g><g><path d="m109.75 131h10c2.761 0 5 2.239 5 5v50c0 2.761-2.239 5-5 5h-10c-2.761 0-5-2.239-5-5v-50c0-2.761 2.239-5 5-5z" fill="#d3dcfb"/></g><g><path d="m74.75 131h10c2.761 0 5 2.239 5 5v12.5c0 2.761-2.239 5-5 5h-10c-2.761 0-5-2.239-5-5v-12.5c0-2.761 2.239-5 5-5z" fill="#d3dcfb"/></g><g><path d="m74.75 168.5h10c2.761 0 5 2.239 5 5v12.5c0 2.761-2.239 5-5 5h-10c-2.761 0-5-2.239-5-5v-12.5c0-2.761 2.239-5 5-5z" fill="#d3dcfb"/></g><g><path d="m144.75 131h10c2.761 0 5 2.239 5 5v12.5c0 2.761-2.239 5-5 5h-10c-2.761 0-5-2.239-5-5v-12.5c0-2.761 2.239-5 5-5z" fill="#d3dcfb"/></g><g><path d="m144.75 168.5h10c2.761 0 5 2.239 5 5v12.5c0 2.761-2.239 5-5 5h-10c-2.761 0-5-2.239-5-5v-12.5c0-2.761 2.239-5 5-5z" fill="#d3dcfb"/></g><g><g><circle cx="417.25" cy="356" fill="#e9efff" r="40"/></g></g><g><path d="m32.562 381h81.979c3.93 0 6.324-4.325 4.237-7.655l-23.6-37.655c-1.829-2.918-5.03-4.689-8.473-4.689h-75.534c5.369 17.543 12.578 34.28 21.391 49.999z" fill="#ffdd40"/></g><g><path d="m204.842 381h-60.732c-3.443 0-6.645-1.772-8.473-4.689l-23.6-37.655c-2.087-3.33.307-7.655 4.237-7.655h60.732c3.443 0 6.645 1.772 8.473 4.689l23.6 37.655c2.087 3.33-.307 7.655-4.237 7.655z" fill="#ffdd40"/></g><g><path d="m254.592 381h-20.181c-3.443 0-6.645-1.772-8.473-4.689l-23.6-37.655c-2.087-3.33.307-7.655 4.237-7.655h20.181c3.443 0 6.645 1.772 8.473 4.689l23.6 37.655c2.087 3.33-.307 7.655-4.237 7.655z" fill="#ffdd40"/></g><g><path d="m395.25 27.875c-24.853 0-45 20.147-45 45v37.5h22.5v-37.5c0-12.426 10.074-22.5 22.5-22.5s22.5 10.074 22.5 22.5v37.5h22.5v-37.5c0-24.853-20.147-45-45-45z" fill="#e9efff"/></g><g><path d="m384 39.125c0-6.213 5.037-11.25 11.25-11.25-24.853 0-45 20.147-45 45v37.5h22.5v-37.5c0-12.426 10.074-22.5 22.5-22.5-6.213 0-11.25-5.037-11.25-11.25z" fill="#d3dcfb"/></g><g><path d="m440.25 206h-90c-12.426 0-22.5-10.074-22.5-22.5v-67.5c0-12.426 10.074-22.5 22.5-22.5h90c12.426 0 22.5 10.074 22.5 22.5v67.5c0 12.426-10.074 22.5-22.5 22.5z" fill="#ffdd40"/></g><g><path d="m350.25 183.5v-67.5c0-12.426 10.074-22.5 22.5-22.5h-22.5c-12.426 0-22.5 10.074-22.5 22.5v67.5c0 12.426 10.074 22.5 22.5 22.5h22.5c-12.426 0-22.5-10.074-22.5-22.5z" fill="#ffb332"/></g><g><path d="m410.25 134.75c0-8.284-6.716-15-15-15s-15 6.716-15 15c0 5.549 3.021 10.382 7.5 12.977v24.523c0 4.142 3.358 7.5 7.5 7.5s7.5-3.358 7.5-7.5v-24.523c4.479-2.595 7.5-7.428 7.5-12.977z" fill="#ffb332"/></g><g><path d="m360.25 134.75h-32.5v-15h32.5c4.142 0 7.5 3.358 7.5 7.5 0 4.142-3.358 7.5-7.5 7.5z" fill="#ffb332"/></g><g><path d="m360.25 179.75h-32.5v-15h32.5c4.142 0 7.5 3.358 7.5 7.5 0 4.142-3.358 7.5-7.5 7.5z" fill="#ffb332"/></g><g><path d="m360.25 157.25h-32.5v-15h32.5c4.142 0 7.5 3.358 7.5 7.5 0 4.142-3.358 7.5-7.5 7.5z" fill="#ffb332"/></g><g><path d="m430.25 134.75h32.5v-15h-32.5c-4.142 0-7.5 3.358-7.5 7.5 0 4.142 3.358 7.5 7.5 7.5z" fill="#ffb332"/></g><g><path d="m430.25 179.75h32.5v-15h-32.5c-4.142 0-7.5 3.358-7.5 7.5 0 4.142 3.358 7.5 7.5 7.5z" fill="#ffb332"/></g><g><path d="m430.25 157.25h32.5v-15h-32.5c-4.142 0-7.5 3.358-7.5 7.5 0 4.142 3.358 7.5 7.5 7.5z" fill="#ffb332"/></g></g></svg>