<svg id="Capa_1" enable-background="new 0 0 512 512" height="512" viewBox="0 0 512 512" width="512" xmlns="http://www.w3.org/2000/svg"><g><g><path d="m490.255 341 9.79-7.5c1.566-4.937 2.986-9.938 4.256-15l-3.769-7.5 7.051-7.5c.93-4.953 1.732-9.951 2.372-15l-5.338-7.5 6.776-7.5c.335-4.963.528-9.964.576-15l-8.117-7.5 7.841-7.5c-2.287-47.57-17.564-91.727-42.352-129.02h-8.791v-12.422c-3.03-4.02-6.182-7.943-9.439-11.774h-10.049v-11.165c-46.611-48.751-112.289-79.119-185.062-79.119s-138.451 30.368-185.061 79.119v11.164h-10.049c-3.257 3.831-6.409 7.754-9.439 11.774v12.422h-8.791c-24.788 37.294-40.065 81.451-42.352 129.021l7.841 7.5-8.117 7.5c.048 5.036.241 10.037.576 15l6.776 7.5-5.338 7.5c.64 5.049 1.443 10.047 2.372 15l7.051 7.5-3.769 7.5c1.27 5.062 2.69 10.063 4.256 15l9.789 7.5-4.508 7.5c13.692 35.317 34.984 66.844 61.883 92.561h11.164v10.049c3.831 3.257 7.754 6.409 11.774 9.439h12.422v8.791c26.599 17.68 56.688 30.522 89.02 37.261l7.5-9.048 7.5 11.705c4.955.727 9.957 1.307 15 1.746l7.5-5.749 7.5 6.627c2.492.072 4.991.118 7.5.118s5.008-.046 7.5-.118l7.5-6.627 7.5 5.749c5.043-.439 10.045-1.019 15-1.746l7.5-11.705 7.5 9.048c32.333-6.739 62.421-19.581 89.02-37.261v-8.791h12.422c4.02-3.03 7.943-6.182 11.774-9.439v-10.049h11.164c26.899-25.717 48.191-57.244 61.883-92.561z" fill="#ff4155"/></g><g><g><path d="m511.692 243.5h-137.756v15h138.032c.008-.834.032-1.664.032-2.5 0-4.192-.108-8.358-.308-12.5z" fill="#e80054"/></g><g><path d="m102.058 460.549c4.048 3.051 8.192 5.98 12.422 8.791l127.43-127.43-10.607-10.607z" fill="#e80054"/></g><g><path d="m51.451 102.058c-3.051 4.048-5.98 8.192-8.791 12.422l189.02 189.02h-133.873c-2.595-4.479-7.428-7.5-12.977-7.5s-10.382 3.021-12.977 7.5h-67.436c.948 5.054 2.041 10.056 3.282 15h64.154c2.595 4.479 7.428 7.5 12.977 7.5s10.382-3.021 12.977-7.5h148.873l118.161 118.161c-.33 1.237-.523 2.53-.523 3.871 0 8.284 6.716 15 15 15 1.341 0 2.634-.193 3.871-.523l14.331 14.331c4.23-2.811 8.374-5.74 12.422-8.791l-16.146-16.146c.33-1.237.523-2.53.523-3.871 0-8.284-6.716-15-15-15-1.341 0-2.634.193-3.871.523l-107.554-107.555h236.408c1.24-4.944 2.333-9.946 3.282-15h-254.69z" fill="#e80054"/></g><g><path d="m263.5 511.882c5.039-.145 10.038-.446 15-.878v-132.504h-15z" fill="#e80054"/></g><g><path d="m211 423.191c-4.142 0-7.5 3.358-7.5 7.5v75.91c4.949 1.031 9.951 1.916 15 2.657v-78.567c0-4.142-3.358-7.5-7.5-7.5z" fill="#e80054"/></g><g><path d="m57.255 266c8.284 0 15-6.716 15-15s-6.716-15-15-15c-5.549 0-10.382 3.021-12.977 7.5h-43.97c-.2 4.142-.308 8.308-.308 12.5 0 .836.024 1.666.032 2.5h44.247c2.594 4.479 7.428 7.5 12.976 7.5z" fill="#e80054"/></g><g><path d="m396.208 192.005c8.284 0 15-6.716 15-15 0-1.341-.192-2.634-.522-3.871l58.654-58.655c-2.811-4.23-5.74-8.374-8.791-12.422l-60.47 60.47c-1.237-.33-2.53-.523-3.871-.523-8.284 0-15 6.716-15 15 0 8.285 6.716 15.001 15 15.001z" fill="#e80054"/></g></g><g><g><path d="m110.957 341c0-4.142-3.358-7.5-7.5-7.5h-91.502c1.609 5.07 3.371 10.072 5.281 15h86.221c4.142 0 7.5-3.358 7.5-7.5z" fill="#ff7186"/></g><g><path d="m462.658 273.5c-2.595-4.479-7.428-7.5-12.977-7.5-8.284 0-15 6.716-15 15s6.716 15 15 15c5.549 0 10.382-3.021 12.977-7.5h47.298c.628-4.956 1.097-9.96 1.438-15z" fill="#ff7186"/></g><g><path d="m2.045 288.5h135.295v-15h-136.733c.341 5.04.81 10.044 1.438 15z" fill="#ff7186"/></g><g><path d="m451.11 90.284c-3.245-3.817-6.589-7.545-10.049-11.164l-119.603 119.602 10.607 10.607z" fill="#ff7186"/></g><g><path d="m317.792 347.186 103.924 103.924c3.816-3.245 7.545-6.589 11.164-10.049l-104.481-104.482z" fill="#ff7186"/></g><g><path d="m293.5 509.258c5.049-.741 10.051-1.625 15-2.657v-112.757h-15z" fill="#ff7186"/></g><g><path d="m419.681 326c-8.284 0-15 6.716-15 15s6.716 15 15 15c5.549 0 10.382-3.021 12.977-7.5h62.106c1.91-4.928 3.673-9.93 5.281-15h-67.387c-2.595-4.479-7.428-7.5-12.977-7.5z" fill="#ff7186"/></g><g><path d="m241 443.191c-8.284 0-15 6.716-15 15 0 5.549 3.021 10.382 7.5 12.977v39.836c4.962.432 9.961.733 15 .878v-40.714c4.479-2.595 7.5-7.428 7.5-12.977 0-8.284-6.716-15-15-15z" fill="#ff7186"/></g><g><path d="m131.602 135.389c-1.341 0-2.634.193-3.871.523l-56.792-56.792c-3.46 3.619-6.804 7.348-10.049 11.164l56.235 56.235c-.33 1.237-.523 2.53-.523 3.871 0 8.284 6.716 15 15 15s15-6.716 15-15c0-8.285-6.716-15.001-15-15.001z" fill="#ff7186"/></g><g><path d="m109.993 405.794c-8.284 0-15 6.716-15 15 0 1.341.193 2.634.523 3.871l-16.396 16.396c3.619 3.46 7.348 6.805 11.164 10.049l15.839-15.839c1.237.33 2.53.523 3.87.523 8.284 0 15-6.716 15-15s-6.716-15-15-15z" fill="#ff7186"/></g></g><g><g><g><path d="m317.328 89.461-1.077-9.489c-.344-3.028 1.399-5.906 4.242-7.005 4.367-1.688 5.708-7.227 2.586-10.715-16.479-18.412-40.424-30.002-67.079-30.002-49.706 0-90 40.294-90 90v95h45v-95c0-24.853 20.147-45 45-45 15.688 0 29.492 8.034 37.545 20.207 1.617 2.444 4.669 3.505 7.475 2.661l11.583-3.486c3.101-.933 5.091-3.952 4.725-7.171z" fill="#fff"/></g><g><path d="m328.428 135.823 1.133-6.534c.736-4.248-2.673-8.076-6.978-7.833l-15.261.861c-3.548.2-6.322 3.135-6.322 6.689v88.245h45v-66.135c0-3.333-2.45-6.158-5.748-6.631l-6.174-.885c-3.738-.538-6.295-4.056-5.65-7.777z" fill="#fff"/></g><g><path d="m233.5 54.75c0-12.426 10.074-22.5 22.5-22.5-49.706 0-90 40.294-90 90v95h45v-95c0-24.853 20.147-45 45-45-12.426 0-22.5-10.074-22.5-22.5z" fill="#d3dcfb"/></g><g><path d="m335.115 87.32-4.761 17.131c-.911 3.28.5 6.762 3.438 8.481l15.833 9.267c5 2.926 11.289-.679 11.289-6.473v-26.398c0-4.142-3.358-7.5-7.5-7.5h-11.072c-3.37 0-6.325 2.246-7.227 5.492z" fill="#fff"/></g></g><g><path d="m346 408.5h-180c-24.853 0-45-20.147-45-45v-135c0-24.853 20.147-45 45-45h180c24.853 0 45 20.147 45 45v135c0 24.853-20.147 45-45 45z" fill="#2a428c"/></g><g><path d="m166 363.5v-135c0-24.853 20.147-45 45-45h-45c-24.853 0-45 20.147-45 45v135c0 24.853 20.147 45 45 45h45c-24.853 0-45-20.147-45-45z" fill="#1c2e7a"/></g><g><path d="m276 278.5c0-11.408-9.552-20.586-21.094-19.971-10.544.562-18.973 9.542-18.905 20.101.053 8.335 5.211 15.449 12.5 18.402v32.717c0 4.142 3.358 7.5 7.5 7.5 4.142 0 7.5-3.358 7.5-7.5v-32.717c7.326-2.968 12.499-10.141 12.499-18.532z" fill="#1c2e7a"/></g><g><g><path d="m391 258.5h-62.5c-4.142 0-7.5-3.358-7.5-7.5 0-4.142 3.358-7.5 7.5-7.5h62.5z" fill="#1c2e7a"/></g><g><path d="m391 348.5h-62.5c-4.142 0-7.5-3.358-7.5-7.5 0-4.142 3.358-7.5 7.5-7.5h62.5z" fill="#1c2e7a"/></g><g><path d="m391 318.5h-62.5c-4.142 0-7.5-3.358-7.5-7.5 0-4.142 3.358-7.5 7.5-7.5h62.5z" fill="#1c2e7a"/></g><g><path d="m391 288.5h-62.5c-4.142 0-7.5-3.358-7.5-7.5 0-4.142 3.358-7.5 7.5-7.5h62.5z" fill="#1c2e7a"/></g></g><g><g><path d="m121 258.5h62.5c4.142 0 7.5-3.358 7.5-7.5 0-4.142-3.358-7.5-7.5-7.5h-62.5z" fill="#1c2e7a"/></g><g><path d="m121 348.5h62.5c4.142 0 7.5-3.358 7.5-7.5 0-4.142-3.358-7.5-7.5-7.5h-62.5z" fill="#1c2e7a"/></g><g><path d="m121 318.5h62.5c4.142 0 7.5-3.358 7.5-7.5 0-4.142-3.358-7.5-7.5-7.5h-62.5z" fill="#1c2e7a"/></g><g><path d="m121 288.5h62.5c4.142 0 7.5-3.358 7.5-7.5 0-4.142-3.358-7.5-7.5-7.5h-62.5z" fill="#1c2e7a"/></g></g></g></g></svg>