<svg id="Capa_1" enable-background="new 0 0 512 512" height="512" viewBox="0 0 512 512" width="512" xmlns="http://www.w3.org/2000/svg"><g><g><path d="m465.986 402.44c28.993-41.497 46.014-91.977 46.014-146.44 0-141.385-114.615-256-256-256s-256 114.615-256 256c0 54.463 17.021 104.943 46.014 146.44z" fill="#49d88b"/></g><g><path d="m466 60v342.44c-46.27 66.23-123.08 109.56-210 109.56s-163.73-43.33-210-109.56v-342.44l55.17-7.88 154.83-22.12 154.83 22.12z" fill="#e9efff"/></g><g><path d="m125.67 48.62-24.5 3.5-55.17 7.88v342.44c46.27 66.23 123.08 109.56 210 109.56s163.73-43.33 210-109.56c-187.959 0-340.329-152.371-340.329-340.329v-13.491z" fill="#d3dcfb"/></g><g><path d="m466 60h-420v-40c0-11.046 8.954-20 20-20h380c11.046 0 20 8.954 20 20z" fill="#2a428c"/></g><g><path d="m114.557 50c0-5.523 4.477-10 10-10v-20c-5.523 0-10-4.477-10-10s4.477-10 10-10h-58.557c-11.046 0-20 8.954-20 20v40h78.557c-5.523 0-10-4.477-10-10z" fill="#1c2e7a"/></g><g><circle cx="423.5" cy="30" fill="#ff4155" r="10"/></g><g><circle cx="388.5" cy="30" fill="#ffdd40" r="10"/></g><g><circle cx="353.5" cy="30" fill="#38c674" r="10"/></g><g><path d="m88.5 40h215c5.523 0 10-4.477 10-10 0-5.523-4.477-10-10-10h-215c-5.523 0-10 4.477-10 10 0 5.523 4.477 10 10 10z" fill="#3c58a0"/></g><g><g><circle cx="256" cy="207.5" fill="#fff" r="115"/></g><g><g><g><path d="m330.477 274.224c15.868-17.699 25.523-41.083 25.523-66.724 0-55.228-44.772-100-100-100s-100 44.772-100 100c0 25.641 9.655 49.025 25.523 66.724z" fill="#9bd8f9"/></g><g><path d="m318.891 249.687c-8.594-7.588-45.822-13.718-45.822-13.718v-43.777h-34.137v43.777s-37.228 6.13-45.822 13.718c-3.534 3.121-7.795 13.453-11.587 24.537 18.308 20.423 44.89 33.276 74.477 33.276s56.169-12.853 74.477-33.276c-3.792-11.084-8.052-21.416-11.586-24.537z" fill="#1e9ef4"/></g><g><path d="m296.867 293.828c-37.539 0-70.241-20.688-87.342-51.282-7.077 2.079-13.451 4.523-16.416 7.141-3.534 3.121-7.795 13.453-11.587 24.537 18.309 20.423 44.891 33.276 74.478 33.276 18.812 0 36.408-5.198 51.438-14.232-3.474.366-7 .56-10.571.56z" fill="#1886ea"/></g><g><path d="m238.932 192.192v43.777c18.333 0 28.612-14.07 28.612-14.07l5.525-29.707z" fill="#1886ea"/></g><g><path d="m287.738 175.165c0 23.371-14.21 50.781-31.738 50.781s-31.738-27.41-31.738-50.781 14.21-40.176 31.738-40.176 31.738 16.804 31.738 40.176z" fill="#4fabf7"/></g><g><path d="m235.176 175.165c0-20.89 11.353-36.532 26.281-39.618-1.773-.367-3.596-.558-5.457-.558-17.528 0-31.738 16.804-31.738 40.176 0 23.371 14.21 50.781 31.738 50.781 1.861 0 3.684-.312 5.457-.892-14.928-4.886-26.281-28.999-26.281-49.889z" fill="#1e9ef4"/></g></g></g></g><g><g><path d="m376 395h-240c-11.046 0-20-8.954-20-20 0-11.046 8.954-20 20-20h240c11.046 0 20 8.954 20 20 0 11.046-8.954 20-20 20z" fill="#2a428c"/></g><g><g><g><circle cx="211" cy="375" fill="#3c58a0" r="7.5"/></g></g><g><g><circle cx="241" cy="375" fill="#3c58a0" r="7.5"/></g></g><g><g><circle cx="271" cy="375" fill="#3c58a0" r="7.5"/></g></g><g><g><circle cx="301" cy="375" fill="#3c58a0" r="7.5"/></g></g><g><g><circle cx="331" cy="375" fill="#3c58a0" r="7.5"/></g></g><g><g><circle cx="361" cy="375" fill="#3c58a0" r="7.5"/></g></g><g><g><circle cx="181" cy="375" fill="#3c58a0" r="7.5"/></g></g><g><g><circle cx="151" cy="375" fill="#3c58a0" r="7.5"/></g></g></g></g><g><path d="m356 450h-220c-11.046 0-20-8.954-20-20 0-11.046 8.954-20 20-20h220z" fill="#fff"/></g><g><path d="m356 450h20c11.046 0 20-8.954 20-20 0-11.046-8.954-20-20-20h-20c-11.046 0-20 8.954-20 20 0 11.046 8.954 20 20 20z" fill="#4fabf7"/></g><g><g><circle cx="216.064" cy="430" fill="#bec8f7" r="7.5"/></g><g><circle cx="246.064" cy="430" fill="#bec8f7" r="7.5"/></g><g><circle cx="276.064" cy="430" fill="#bec8f7" r="7.5"/></g><g><circle cx="306.064" cy="430" fill="#bec8f7" r="7.5"/></g><g><circle cx="186.064" cy="430" fill="#bec8f7" r="7.5"/></g><g><circle cx="156.064" cy="430" fill="#bec8f7" r="7.5"/></g></g><g><path d="m359.286 423.709v12.583c0 1.598 1.781 2.551 3.11 1.664l9.428-6.291c1.186-.792 1.186-2.535 0-3.327l-9.428-6.291c-1.329-.889-3.11.064-3.11 1.662z" fill="#fff"/></g></g></svg>