<svg id="Capa_1" enable-background="new 0 0 512 512" height="512" viewBox="0 0 512 512" width="512" xmlns="http://www.w3.org/2000/svg"><g><g><path d="m465.986 402.44c28.993-41.497 46.014-91.977 46.014-146.44 0-141.385-114.615-256-256-256s-256 114.615-256 256c0 54.463 17.021 104.943 46.014 146.44z" fill="#1c2e7a"/></g><g><path d="m466 60v342.44c-46.27 66.23-123.08 109.56-210 109.56s-163.73-43.33-210-109.56v-342.44l55.17-7.88 154.83-22.12 154.83 22.12z" fill="#e9efff"/></g><g><path d="m125.67 48.62-24.5 3.5-55.17 7.88v342.44c46.27 66.23 123.08 109.56 210 109.56s163.73-43.33 210-109.56c-187.959 0-340.329-152.371-340.329-340.329v-13.491z" fill="#d3dcfb"/></g><g><path d="m466 60h-420v-40c0-11.046 8.954-20 20-20h380c11.046 0 20 8.954 20 20z" fill="#2a428c"/></g><g><path d="m114.557 50c0-5.523 4.477-10 10-10v-20c-5.523 0-10-4.477-10-10s4.477-10 10-10h-58.557c-11.046 0-20 8.954-20 20v40h78.557c-5.523 0-10-4.477-10-10z" fill="#1c2e7a"/></g><g><circle cx="423.5" cy="30" fill="#ff4155" r="10"/></g><g><circle cx="388.5" cy="30" fill="#ffdd40" r="10"/></g><g><circle cx="353.5" cy="30" fill="#38c674" r="10"/></g><g><path d="m88.5 40h215c5.523 0 10-4.477 10-10 0-5.523-4.477-10-10-10h-215c-5.523 0-10 4.477-10 10 0 5.523 4.477 10 10 10z" fill="#3c58a0"/></g><g><g><g><path d="m324.277 300h-200c-11.046 0-20-8.954-20-20v-140l120-20 120 20v140c0 11.046-8.955 20-20 20z" fill="#4fabf7"/></g><g><path d="m132.83 280v-144.759l-28.553 4.759v140c0 11.046 8.954 20 20 20h28.553c-11.046 0-20-8.954-20-20z" fill="#1e9ef4"/></g><g><path d="m324.277 100h-200c-11.046 0-20 8.954-20 20v20h240v-20c0-11.046-8.955-20-20-20z" fill="#2a428c"/></g><g><path d="m152.83 100h-28.553c-11.046 0-20 8.954-20 20v20h28.553v-20c0-11.046 8.954-20 20-20z" fill="#1c2e7a"/></g><g><g><circle cx="162.83" cy="120" fill="#ffdd40" r="7.5"/></g><g><circle cx="132.83" cy="120" fill="#ff4155" r="7.5"/></g></g><g><path d="m132.83 260v-80c0-5.523 4.477-10 10-10h43.447c5.523 0 10 4.477 10 10v80c0 5.523-4.477 10-10 10h-43.447c-5.523 0-10-4.477-10-10z" fill="#1886ea"/></g></g><g><g><path d="m387.723 387.158h-140c-11.046 0-20-8.954-20-20v-140l90-20 90 20v140c0 11.046-8.954 20-20 20z" fill="#fff"/></g><g><path d="m256.277 367.158v-146.345l-28.553 6.345v140c0 11.046 8.954 20 20 20h28.553c-11.046 0-20-8.954-20-20z" fill="#e9efff"/></g><g><path d="m387.723 187.158h-140c-11.046 0-20 8.954-20 20v20h180v-20c0-11.046-8.954-20-20-20z" fill="#2a428c"/></g><g><path d="m276.277 187.158h-28.553c-11.046 0-20 8.954-20 20v20h28.553v-20c0-11.046 8.954-20 20-20z" fill="#1c2e7a"/></g><g><g><circle cx="286.277" cy="207.158" fill="#ffdd40" r="7.5"/></g><g><circle cx="256.277" cy="207.158" fill="#38c674" r="7.5"/></g></g><g><g><path d="m249.896 351.188 60.149-102.18c3.446-5.853 11.911-5.853 15.356 0l60.149 102.18c3.496 5.94-.786 13.43-7.678 13.43h-120.298c-6.892 0-11.174-7.49-7.678-13.43z" fill="#ffdd40"/></g><g><g><path d="m317.723 327.633c-5.523 0-10-4.477-10-10v-34.597c0-5.523 4.477-10 10-10 5.523 0 10 4.477 10 10v34.597c0 5.523-4.477 10-10 10z" fill="#2a428c"/></g><g><circle cx="317.723" cy="345.133" fill="#1c2e7a" r="10"/></g><g><path d="m317.723 310.335c-5.523 0-10-4.477-10-10v17.298c0 5.523 4.477 10 10 10s10-4.477 10-10v-17.298c0 5.523-4.477 10-10 10z" fill="#1c2e7a"/></g></g></g></g><g><path d="m271.191 437.158h-120c-11.046 0-20-8.954-20-20v-60c0-11.046 8.954-20 20-20h120c11.046 0 20 8.954 20 20v60c0 11.046-8.954 20-20 20z" fill="#ff4155"/></g><g><path d="m168.777 417.158v-60c0-11.046 8.954-20 20-20h-37.585c-11.046 0-20 8.954-20 20v60c0 11.046 8.954 20 20 20h37.585c-11.046 0-20-8.954-20-20z" fill="#e80054"/></g><g><g><path d="m256.191 379.658h-90c-4.143 0-7.5-3.358-7.5-7.5s3.357-7.5 7.5-7.5h90c4.143 0 7.5 3.358 7.5 7.5s-3.357 7.5-7.5 7.5z" fill="#e80054"/></g><g><path d="m256.191 409.658h-90c-4.143 0-7.5-3.358-7.5-7.5s3.357-7.5 7.5-7.5h90c4.143 0 7.5 3.358 7.5 7.5s-3.357 7.5-7.5 7.5z" fill="#e80054"/></g></g></g></g></svg>