<svg id="Capa_1" enable-background="new 0 0 512 512" height="512" viewBox="0 0 512 512" width="512" xmlns="http://www.w3.org/2000/svg"><g><g><path d="m465.986 402.44c28.993-41.497 46.014-91.977 46.014-146.44 0-141.385-114.615-256-256-256s-256 114.615-256 256c0 54.463 17.021 104.943 46.014 146.44z" fill="#ffdd40"/></g><g><path d="m466 60v342.44c-46.27 66.23-123.08 109.56-210 109.56s-163.73-43.33-210-109.56v-342.44l55.17-7.88 154.83-22.12 154.83 22.12z" fill="#ff4155"/></g><g><path d="m125.67 48.62-24.5 3.5-55.17 7.88v342.44c46.27 66.23 123.08 109.56 210 109.56s163.73-43.33 210-109.56c-187.959 0-340.329-152.371-340.329-340.329v-13.491z" fill="#e80054"/></g><g><path d="m466 60h-420v-40c0-11.046 8.954-20 20-20h380c11.046 0 20 8.954 20 20z" fill="#2a428c"/></g><g><path d="m114.557 50c0-5.523 4.477-10 10-10v-20c-5.523 0-10-4.477-10-10s4.477-10 10-10h-58.557c-11.046 0-20 8.954-20 20v40h78.557c-5.523 0-10-4.477-10-10z" fill="#1c2e7a"/></g><g><circle cx="423.5" cy="30" fill="#ff4155" r="10"/></g><g><circle cx="388.5" cy="30" fill="#ffdd40" r="10"/></g><g><circle cx="353.5" cy="30" fill="#38c674" r="10"/></g><g><path d="m88.5 40h215c5.523 0 10-4.477 10-10 0-5.523-4.477-10-10-10h-215c-5.523 0-10 4.477-10 10 0 5.523 4.477 10 10 10z" fill="#3c58a0"/></g><g><g><g><path d="m348.529 299.722-.034.034c-1.784 1.788-4.706 1.789-6.491.003l-145.763-145.763c-1.786-1.786-1.785-4.707.003-6.491l.034-.034c11.287-11.287 10.855-29.856-1.296-40.586-10.721-9.467-27.238-9.126-37.589.746-3.904 3.723-6.483 8.291-7.739 13.132-1.632 6.289-6.602 11.26-12.891 12.891-4.841 1.256-9.41 3.835-13.133 7.739-9.871 10.351-10.212 26.868-.745 37.589 10.73 12.151 29.298 12.583 40.585 1.295l.034-.034c1.784-1.787 4.705-1.789 6.491-.003l145.763 145.763c1.786 1.786 1.785 4.707-.003 6.491l-.034.034c-11.287 11.287-10.855 29.856 1.296 40.586 10.721 9.467 27.239 9.126 37.589-.746 3.904-3.723 6.483-8.291 7.739-13.132 1.632-6.289 6.602-11.26 12.891-12.891 4.841-1.256 9.41-3.835 13.133-7.739 9.871-10.351 10.212-26.868.745-37.589-10.729-12.15-29.298-12.582-40.585-1.295z" fill="#e9efff"/></g><g><path d="m348.343 339.309c-10.639-10.639-10.98-27.676-1.023-38.726-1.722.871-3.881.611-5.316-.824l-145.763-145.763c-1.429-1.429-1.694-3.578-.834-5.297-11.05 9.942-28.076 9.598-38.711-1.037-6.665-6.665-9.281-15.839-7.863-24.48-2.152 5.124-6.613 9.057-12.07 10.472-4.841 1.256-9.41 3.835-13.133 7.739-9.871 10.351-10.212 26.868-.745 37.589 10.73 12.151 29.298 12.583 40.586 1.296l.033-.034c1.784-1.788 4.706-1.789 6.491-.003l145.763 145.763c1.786 1.786 1.785 4.707-.003 6.491l-.034.034c-11.287 11.287-10.855 29.856 1.296 40.586 10.721 9.467 27.239 9.126 37.589-.745 3.904-3.723 6.483-8.291 7.739-13.133 1.414-5.449 5.336-9.904 10.449-12.059-8.633 1.406-17.793-1.212-24.451-7.869z" fill="#d3dcfb"/></g><g><path d="m196.278 332.529-.034-.034c-1.788-1.784-1.789-4.706-.003-6.491l145.763-145.763c1.786-1.786 4.707-1.785 6.491.003l.034.034c11.287 11.287 29.856 10.855 40.586-1.296 9.467-10.721 9.126-27.238-.746-37.589-3.723-3.904-8.291-6.483-13.132-7.739-6.289-1.632-11.26-6.602-12.891-12.891-1.256-4.841-3.835-9.41-7.739-13.133-10.351-9.871-26.868-10.212-37.589-.745-12.151 10.73-12.583 29.298-1.295 40.585l.034.034c1.787 1.784 1.789 4.705.003 6.491l-145.764 145.764c-1.786 1.786-4.707 1.785-6.491-.003l-.034-.034c-11.287-11.287-29.856-10.855-40.586 1.296-9.467 10.721-9.126 27.239.746 37.589 3.723 3.904 8.291 6.483 13.132 7.739 6.289 1.632 11.26 6.602 12.891 12.891 1.256 4.841 3.835 9.41 7.739 13.133 10.351 9.871 26.868 10.212 37.589.745 12.151-10.73 12.583-29.299 1.296-40.586z" fill="#e9efff"/></g><g><path d="m156.691 332.343c10.639-10.639 27.676-10.98 38.726-1.023-.871-1.722-.611-3.881.824-5.316l145.763-145.763c1.429-1.429 3.578-1.694 5.297-.834-9.942-11.05-9.598-28.076 1.037-38.711 6.665-6.665 15.839-9.281 24.48-7.863-5.124-2.152-9.057-6.613-10.472-12.07-1.256-4.841-3.835-9.41-7.739-13.133-10.351-9.871-26.868-10.212-37.589-.745-12.151 10.73-12.583 29.298-1.296 40.586l.034.033c1.788 1.784 1.789 4.706.003 6.491l-145.763 145.764c-1.786 1.786-4.707 1.785-6.491-.003l-.034-.034c-11.287-11.287-29.856-10.855-40.586 1.296-9.467 10.721-9.126 27.239.745 37.589 3.723 3.904 8.291 6.483 13.133 7.739 5.449 1.414 9.904 5.336 12.059 10.449-1.406-8.634 1.212-17.794 7.869-24.452z" fill="#d3dcfb"/></g></g><g><g><path d="m325.375 268.234c4.878-10.217 7.569-21.68 7.458-33.782-.387-42.284-34.547-76.117-76.833-76.117-42.435 0-76.836 34.401-76.836 76.836 0 11.838 2.679 23.049 7.461 33.064-4.552 3.703-7.461 9.347-7.461 15.672 0 11.154 9.042 20.197 20.197 20.197h19.758c3.637 0 6.586 2.949 6.586 6.586v4.391c0 3.637 2.949 6.586 6.586 6.586h47.419c3.637 0 6.586-2.949 6.586-6.586v-4.391c0-3.637 2.949-6.586 6.586-6.586h19.758c11.154 0 20.197-9.042 20.197-20.197-.001-6.326-2.911-11.97-7.462-15.673z" fill="#fff"/></g><g><path d="m325.375 268.234c0-.001.001-.002.001-.003-12.801 9.539-28.673 15.187-45.865 15.187-42.435 0-76.836-34.401-76.836-76.836 0-11.837 2.679-23.047 7.46-33.061-18.796 14.007-30.97 36.406-30.97 61.649 0 11.838 2.679 23.049 7.461 33.064-4.552 3.703-7.461 9.347-7.461 15.672 0 11.154 9.042 20.197 20.197 20.197h19.758c3.637 0 6.586 2.949 6.586 6.586v4.391c0 3.637 2.949 6.586 6.586 6.586h47.419c3.637 0 6.586-2.949 6.586-6.586v-4.391c0-3.637 2.949-6.586 6.586-6.586h19.758c11.154 0 20.197-9.042 20.197-20.197-.002-6.325-2.912-11.969-7.463-15.672z" fill="#e9efff"/></g><g><circle cx="292.009" cy="247.593" fill="#bec8f7" r="21.099"/></g><g><circle cx="221.488" cy="247.593" fill="#bec8f7" r="21.099"/></g></g></g><g><g><path d="m356 427.5h-200c-4.142 0-7.5-3.357-7.5-7.5s3.358-7.5 7.5-7.5h200c4.142 0 7.5 3.357 7.5 7.5s-3.358 7.5-7.5 7.5z" fill="#ff7186"/></g><g><path d="m326 457.5h-140c-4.142 0-7.5-3.357-7.5-7.5s3.358-7.5 7.5-7.5h140c4.142 0 7.5 3.357 7.5 7.5s-3.358 7.5-7.5 7.5z" fill="#ff7186"/></g></g></g></svg>