<svg id="Capa_1" enable-background="new 0 0 512.021 512.021" height="512" viewBox="0 0 512.021 512.021" width="512" xmlns="http://www.w3.org/2000/svg"><g><g><path d="m465.997 402.44c28.993-41.497 46.014-91.977 46.014-146.44 0-141.385-114.615-256-256-256s-256 114.615-256 256c0 54.463 17.021 104.943 46.014 146.44z" fill="#4fabf7"/></g><g><path d="m466.011 60v342.44c-46.27 66.23-123.08 109.56-210 109.56s-163.73-43.33-210-109.56v-342.44l55.17-7.88 154.83-22.12 154.83 22.12z" fill="#e9efff"/></g><g><path d="m125.681 48.62-24.5 3.5-55.17 7.88v342.44c46.27 66.23 123.08 109.56 210 109.56s163.73-43.33 210-109.56c-187.959 0-340.329-152.371-340.329-340.329v-13.491z" fill="#d3dcfb"/></g><g><g><circle cx="256.011" cy="207.5" fill="#fff" r="115"/></g><g><g><g><path d="m330.488 274.224c15.867-17.699 25.523-41.083 25.523-66.724 0-55.228-44.772-100-100-100s-100 44.772-100 100c0 25.641 9.655 49.025 25.523 66.724z" fill="#9bd8f9"/></g><g><path d="m318.901 249.687c-8.594-7.588-45.822-13.718-45.822-13.718v-43.777h-34.137v43.777s-37.228 6.13-45.822 13.718c-3.534 3.121-7.795 13.453-11.587 24.537 18.309 20.423 44.891 33.276 74.477 33.276s56.169-12.853 74.477-33.276c-3.791-11.084-8.052-21.416-11.586-24.537z" fill="#1e9ef4"/></g><g><path d="m296.878 293.828c-37.539 0-70.241-20.688-87.342-51.282-7.077 2.079-13.451 4.523-16.416 7.141-3.534 3.121-7.795 13.453-11.587 24.537 18.309 20.423 44.891 33.276 74.478 33.276 18.812 0 36.408-5.198 51.438-14.232-3.475.366-7 .56-10.571.56z" fill="#1886ea"/></g><g><path d="m238.942 192.192v43.777c18.333 0 28.612-14.07 28.612-14.07l5.525-29.707z" fill="#1886ea"/></g><g><path d="m287.749 175.165c0 23.371-14.21 50.781-31.738 50.781s-31.738-27.41-31.738-50.781 14.21-40.176 31.738-40.176 31.738 16.804 31.738 40.176z" fill="#4fabf7"/></g><g><path d="m235.187 175.165c0-20.89 11.353-36.532 26.281-39.618-1.773-.367-3.596-.558-5.457-.558-17.528 0-31.738 16.804-31.738 40.176 0 23.371 14.21 50.781 31.738 50.781 1.861 0 3.684-.312 5.457-.892-14.928-4.886-26.281-28.999-26.281-49.889z" fill="#1e9ef4"/></g></g></g></g><g><path d="m466.011 60h-420v-40c0-11.046 8.954-20 20-20h380c11.046 0 20 8.954 20 20z" fill="#2a428c"/></g><g><path d="m114.567 50c0-5.523 4.477-10 10-10v-20c-5.523 0-10-4.477-10-10s4.477-10 10-10h-58.556c-11.046 0-20 8.954-20 20v40h78.557c-5.524 0-10.001-4.477-10.001-10z" fill="#1c2e7a"/></g><g><circle cx="423.511" cy="30" fill="#ff4155" r="10"/></g><g><circle cx="388.511" cy="30" fill="#ffdd40" r="10"/></g><g><circle cx="353.511" cy="30" fill="#38c674" r="10"/></g><g><path d="m88.511 40h215c5.523 0 10-4.477 10-10 0-5.523-4.477-10-10-10h-215c-5.523 0-10 4.477-10 10 0 5.523 4.477 10 10 10z" fill="#3c58a0"/></g><g><g><path d="m236.011 392.021h-100c-11.046 0-20-8.954-20-20 0-11.046 8.954-20 20-20h100z" fill="#fff"/></g><g><g><circle cx="186.074" cy="372.021" fill="#bec8f7" r="7.5"/></g><g><circle cx="156.074" cy="372.021" fill="#bec8f7" r="7.5"/></g></g></g><g><path d="m229.992 452.579h62.922v40h-62.922z" fill="#fff" transform="matrix(.707 -.707 .707 .707 -257.586 323.29)"/></g><g><path d="m256.011 512c1.798 0 3.59-.025 5.38-.062.312-2.904-.64-5.919-2.866-8.145l-28.284-28.284c-3.905-3.905-10.237-3.905-14.142 0l-27.513 27.513c21.482 5.851 44.088 8.978 67.425 8.978z" fill="#1c2e7a"/></g><g><circle cx="362.011" cy="372.021" fill="#3c58a0" r="140"/></g><g><path d="m362.011 232.021c-77.32 0-140 62.68-140 140s62.68 140 140 140c-8.284 0-15-6.716-15-15s6.716-15 15-15v-220c-8.284 0-15-6.716-15-15s6.715-15 15-15z" fill="#1c2e7a"/></g><g><path d="m454.16 312.021c-19.652-30.079-53.616-50-92.15-50s-72.498 19.921-92.15 50v120c19.652 30.079 53.616 50 92.15 50s72.498-19.921 92.15-50z" fill="#9bd8f9"/></g><g><path d="m252.011 372.021c0 22.12 6.569 42.733 17.85 60h184.299c11.281-17.267 17.85-37.88 17.85-60s-6.569-42.733-17.85-60h-184.299c-11.281 17.268-17.85 37.88-17.85 60z" fill="#1e9ef4"/></g><g><g><g><path d="m351.397 404.521c-4.142 0-7.5-3.357-7.5-7.5v-49.907c0-3.282 2.134-6.184 5.268-7.16 3.133-.976 6.538.197 8.403 2.898l21.154 30.633-.255-26.392c-.04-4.142 3.285-7.532 7.427-7.572h.074c4.108 0 7.458 3.31 7.498 7.428l.467 48.314c0 4-2.259 7.243-5.756 8.336-3.438 1.072-7.05-.243-9.205-3.355l-20.076-29.071v25.849c.001 4.142-3.357 7.499-7.499 7.499z" fill="#fff"/></g></g><g><g><path d="m305.647 404.521c-17.92 0-32.5-14.579-32.5-32.5s14.58-32.5 32.5-32.5c6.512 0 12.797 1.921 18.176 5.555 3.433 2.318 4.335 6.981 2.017 10.413s-6.98 4.335-10.413 2.017c-2.89-1.952-6.271-2.984-9.779-2.984-9.649 0-17.5 7.851-17.5 17.5s7.851 17.5 17.5 17.5c3.511 0 6.449-1.031 8.733-3.065.445-.396.873-.839 1.269-1.311 2.662-3.174 7.392-3.59 10.566-.929 3.174 2.66 3.59 7.391.929 10.565-.86 1.026-1.797 1.993-2.786 2.874-5.046 4.492-11.515 6.865-18.712 6.865z" fill="#fff"/></g></g><g><g><path d="m427.42 404.536c-9.641 0-10.401-.254-11.409-.59-2.4-.801-4.27-2.7-5.002-5.082-1.241-4.036.671-6.539 3.838-10.686 2.481-3.249 7.101-9.297 14.848-20.366 2.526-3.609 3.558-6.151 3.973-7.723l.114-.893c-.191-2.61-2.376-4.676-5.035-4.676-2.408 0-4.491 1.708-4.954 4.062-.799 4.064-4.742 6.709-8.805 5.914-4.064-.799-6.712-4.74-5.914-8.805 1.841-9.37 10.114-16.171 19.672-16.171 11.055 0 20.049 8.993 20.049 20.048 0 .318-.02.636-.061.951l-.243 1.897c-.032.25-.077.498-.133.743-.954 4.111-3.099 8.57-6.375 13.253-3.832 5.475-6.919 9.754-9.375 13.092 3.419-.019 7.129-.053 10.671-.097.032-.001.064-.001.096-.001 4.099 0 7.446 3.296 7.498 7.406.052 4.142-3.264 7.541-7.405 7.593-7.091.092-12.257.131-16.048.131z" fill="#fff"/></g></g></g></g></svg>