<svg id="Capa_1" enable-background="new 0 0 512 512" height="512" viewBox="0 0 512 512" width="512" xmlns="http://www.w3.org/2000/svg"><g><g><path d="m465.986 402.44c28.993-41.497 46.014-91.977 46.014-146.44 0-141.385-114.615-256-256-256s-256 114.615-256 256c0 54.463 17.021 104.943 46.014 146.44z" fill="#1c2e7a"/></g><g><path d="m466 60v342.44c-46.27 66.23-123.08 109.56-210 109.56s-163.73-43.33-210-109.56v-342.44l55.17-7.88 154.83-22.12 154.83 22.12z" fill="#e9efff"/></g><g><path d="m125.67 48.62-24.5 3.5-55.17 7.88v342.44c46.27 66.23 123.08 109.56 210 109.56s163.73-43.33 210-109.56c-187.959 0-340.329-152.371-340.329-340.329v-13.491z" fill="#d3dcfb"/></g><g><path d="m226 396.046h60v84.206h-60z" fill="#fff"/></g><g><path d="m256 512c13.607 0 26.967-1.063 40-3.108v-48.892c0-5.523-4.477-10-10-10h-60c-5.523 0-10 4.477-10 10v48.892c13.033 2.046 26.393 3.108 40 3.108z" fill="#3c58a0"/></g><g><path d="m256 460c0-5.523 4.477-10 10-10h-40c-5.523 0-10 4.477-10 10v48.892c13.033 2.045 26.393 3.108 40 3.108z" fill="#1c2e7a"/></g><g><path d="m466 60h-420v-40c0-11.046 8.954-20 20-20h380c11.046 0 20 8.954 20 20z" fill="#2a428c"/></g><g><path d="m114.557 50c0-5.523 4.477-10 10-10v-20c-5.523 0-10-4.477-10-10s4.477-10 10-10h-58.557c-11.046 0-20 8.954-20 20v40h78.557c-5.523 0-10-4.477-10-10z" fill="#1c2e7a"/></g><g><circle cx="423.5" cy="30" fill="#ff4155" r="10"/></g><g><circle cx="388.5" cy="30" fill="#ffdd40" r="10"/></g><g><circle cx="353.5" cy="30" fill="#38c674" r="10"/></g><g><path d="m88.5 40h215c5.523 0 10-4.477 10-10 0-5.523-4.477-10-10-10h-215c-5.523 0-10 4.477-10 10 0 5.523 4.477 10 10 10z" fill="#3c58a0"/></g><g><circle cx="256" cy="260" fill="#3c58a0" r="160"/></g><g><path d="m96 260c0 88.366 71.634 160 160 160 44.183 0 84.183-17.909 113.137-46.863-5.858 5.858-15.355 5.858-21.213 0s-5.858-15.355 0-21.213l-183.848-183.848c-5.858 5.858-15.355 5.858-21.213 0s-5.858-15.355 0-21.213c-28.954 28.954-46.863 68.954-46.863 113.137z" fill="#1c2e7a"/></g><g><circle cx="256" cy="260" fill="#ff7186" r="130"/></g><g><g><g><path d="m368.416 248.532c4.834 6.878 4.834 16.057 0 22.935-17.046 24.252-60.947 78.533-112.416 78.533s-95.37-54.281-112.416-78.533c-4.834-6.878-4.834-16.057 0-22.935 17.046-24.251 60.947-78.532 112.416-78.532s95.37 54.281 112.416 78.532z" fill="#fff"/></g></g><g><g><circle cx="256" cy="260" fill="#ff4155" r="60"/></g></g><g><g><circle cx="256" cy="260" fill="#e80054" r="40"/></g></g><g><g><circle cx="276" cy="240" fill="#ff7186" r="20"/></g></g></g></g></svg>