<svg id="Capa_1" enable-background="new 0 0 512 512" height="512" viewBox="0 0 512 512" width="512" xmlns="http://www.w3.org/2000/svg"><g><g><path d="m465.986 402.44c28.993-41.497 46.014-91.977 46.014-146.44 0-141.385-114.615-256-256-256s-256 114.615-256 256c0 54.463 17.021 104.943 46.014 146.44z" fill="#ff4155"/></g><g><path d="m466 60v342.44c-46.27 66.23-123.08 109.56-210 109.56s-163.73-43.33-210-109.56v-342.44l55.17-7.88 154.83-22.12 154.83 22.12z" fill="#e9efff"/></g><g><path d="m125.67 48.62-24.5 3.5-55.17 7.88v342.44c46.27 66.23 123.08 109.56 210 109.56s163.73-43.33 210-109.56c-187.959 0-340.329-152.371-340.329-340.329v-13.491z" fill="#d3dcfb"/></g><g><path d="m466 60h-420v-40c0-11.046 8.954-20 20-20h380c11.046 0 20 8.954 20 20z" fill="#2a428c"/></g><g><path d="m114.557 50c0-5.523 4.477-10 10-10v-20c-5.523 0-10-4.477-10-10s4.477-10 10-10h-58.557c-11.046 0-20 8.954-20 20v40h78.557c-5.523 0-10-4.477-10-10z" fill="#1c2e7a"/></g><g><circle cx="423.5" cy="30" fill="#ff4155" r="10"/></g><g><circle cx="388.5" cy="30" fill="#ffdd40" r="10"/></g><g><circle cx="353.5" cy="30" fill="#38c674" r="10"/></g><g><path d="m88.5 40h215c5.523 0 10-4.477 10-10 0-5.523-4.477-10-10-10h-215c-5.523 0-10 4.477-10 10 0 5.523 4.477 10 10 10z" fill="#3c58a0"/></g><g><path d="m284.548 235.552 86.998-73.473c4.943-4.174 5.041-11.766.205-16.063-29.764-26.451-68.994-42.48-111.975-42.348-92.741.284-167.336 76.585-167.336 169.326 0 62.064 23.013 121.923 64.589 168.003l10.282 11.396z" fill="#2a428c"/></g><g><path d="m138.862 156.226c-28.782 30.471-46.422 71.675-46.422 116.768 0 62.064 23.013 121.923 64.589 168.003l10.282 11.396 73.203-135.397c-47.764-42.286-83.562-97.777-101.652-160.77z" fill="#1c2e7a"/></g><g><path d="m437.493 282.091c-4.339-9.582-28.755-44.909-28.755-44.909-21.845-38.96-56.974-76.125-89.412-87.553l8.297-49.288.019-.123c.862-5.162-4.319-9.244-9.13-7.198-1.44.616-2.841 1.279-4.196 1.989-27.021 14.141-37.383 46.285-37.383 46.285s-156.141 20.638-116.277 247.102c6.773 30.964-11.349 62.503-34.239 88.422 38.011 22.356 82.3 35.182 129.583 35.182 43.854 0 85.131-11.035 121.214-30.47-4.243-18.803-12.639-39.153-27.562-59.87-58.096-80.647-55.558-148.697-55.558-148.697 16.357 34.144 60.89 27.457 60.89 27.457l24.455 24.454c5.285 5.285 12.293 8.638 19.766 9.017 17.001.852 31.056-12.682 31.056-29.493 9.04-8.748 11.571-12.725 7.232-22.307z" fill="#ef8f65"/></g><g><path d="m377.214 481.53c-4.243-18.805-12.639-39.152-27.562-59.869-58.092-80.646-55.557-148.702-55.557-148.702-.053-.126-.107-.253-.16-.381-4.212-10.126-19.024-8.661-21.025 2.121-5.174 27.887-6.961 68.355 9.157 113.702 16.912 47.582 10.01 90.017-2.96 122.564 35.245-3.154 68.433-13.452 98.107-29.435z" fill="#e57b41"/></g><g><path d="m312.357 147.612 8.705-45.505s-10.799 9.658-18.113 25.986c-3.575 7.981.957 17.266 9.408 19.519z" fill="#e57b41"/></g><g><path d="m331.009 212.126c-5.411-8.239-1.655-18.169 1.741-24.239 1.689-3.018 5.764-3.638 8.279-1.265l30.225 28.514c3.396 3.204 1.31 8.924-3.353 9.168-11.788.618-29.316-.642-36.892-12.178z" fill="#e57b41"/></g></g></svg>