<svg id="Capa_1" enable-background="new 0 0 512 512" height="512" viewBox="0 0 512 512" width="512" xmlns="http://www.w3.org/2000/svg"><g><g><path d="m465.986 402.44c28.993-41.497 46.014-91.977 46.014-146.44 0-141.385-114.615-256-256-256s-256 114.615-256 256c0 54.463 17.021 104.943 46.014 146.44z" fill="#49d88b"/></g><g><path d="m466 60v342.44c-46.27 66.23-123.08 109.56-210 109.56s-163.73-43.33-210-109.56v-342.44l55.17-7.88 154.83-22.12 154.83 22.12z" fill="#4b6bb2"/></g><g><path d="m125.67 48.62-24.5 3.5-55.17 7.88v342.44c46.27 66.23 123.08 109.56 210 109.56s163.73-43.33 210-109.56c-187.959 0-340.329-152.371-340.329-340.329v-13.491z" fill="#3c58a0"/></g><g><path d="m147.956 488.139 252.583-437.489-16-2.286-250.008 433.027c4.399 2.376 8.875 4.627 13.425 6.748z" fill="#112360"/></g><g><path d="m111.461 50.65 252.584 437.489c4.549-2.121 9.026-4.371 13.425-6.747l-250.009-433.028z" fill="#1c2e7a"/></g><g><path d="m46.001 278.5h419.998v15h-419.998z" fill="#2a428c"/></g><g><g><g><path d="m330.997 423.403c-1.168 0-2.337-.272-3.409-.82-.371-.189-37.832-19.083-71.588-19.083s-71.217 18.894-71.591 19.085c-2.266 1.153-4.961 1.083-7.161-.188s-3.608-3.57-3.738-6.108c-.033-.62-2.432-42.376-19.268-71.538-16.878-29.233-51.971-52.229-52.323-52.457-2.131-1.385-3.419-3.755-3.417-6.296.001-2.541 1.287-4.91 3.42-6.292.35-.227 35.442-23.222 52.32-52.455s19.246-71.122 19.268-71.542c.133-2.538 1.542-4.838 3.743-6.107s4.896-1.34 7.159-.184c.371.189 37.832 19.083 71.588 19.083s71.217-18.894 71.591-19.085c2.266-1.153 4.96-1.083 7.161.188 2.2 1.271 3.608 3.57 3.738 6.108.021.416 2.39 42.305 19.268 71.538s51.971 52.229 52.323 52.457c2.131 1.385 3.419 3.755 3.417 6.296-.001 2.541-1.287 4.91-3.42 6.292-.35.227-35.442 23.222-52.32 52.455s-19.246 71.122-19.268 71.542c-.133 2.538-1.542 4.838-3.743 6.107-1.158.668-2.453 1.004-3.75 1.004zm-74.997-34.903c26.622 0 54.212 10.061 68.516 16.173 1.859-15.443 6.941-44.368 20.252-67.423s35.818-41.918 48.264-51.25c-12.445-9.332-34.953-28.195-48.264-51.25s-18.393-51.979-20.252-67.423c-14.304 6.112-41.894 16.173-68.516 16.173s-54.212-10.061-68.516-16.173c-1.859 15.443-6.941 44.368-20.252 67.423s-35.818 41.918-48.264 51.25c12.445 9.332 34.953 28.195 48.264 51.25s18.393 51.979 20.252 67.423c14.304-6.112 41.894-16.173 68.516-16.173z" fill="#1c2e7a"/></g></g></g><g><g><g><path d="m357.25 468.87c-1.169 0-2.339-.272-3.412-.821-.509-.259-51.611-26.049-97.838-26.049s-97.329 25.79-97.84 26.05c-2.263 1.155-4.96 1.087-7.161-.187-2.2-1.271-3.608-3.569-3.739-6.106-.029-.572-3.247-57.724-26.359-97.757-23.114-40.033-70.999-71.395-71.48-71.707-2.132-1.384-3.42-3.753-3.419-6.295s1.288-4.911 3.421-6.293c.479-.311 48.364-31.672 71.479-71.705 23.159-40.114 26.33-97.183 26.359-97.754.13-2.54 1.538-4.84 3.74-6.111s4.897-1.342 7.162-.184c.508.259 51.61 26.049 97.837 26.049s97.329-25.79 97.84-26.05c2.264-1.153 4.961-1.086 7.161.187 2.201 1.271 3.609 3.57 3.739 6.109.029.569 3.247 57.721 26.359 97.754 23.114 40.033 70.999 71.395 71.48 71.707 2.132 1.384 3.42 3.753 3.419 6.295s-1.288 4.911-3.421 6.293c-.479.311-48.364 31.672-71.479 71.705-23.159 40.114-26.33 97.183-26.359 97.754-.13 2.54-1.538 4.84-3.74 6.111-1.157.669-2.452 1.005-3.749 1.005zm-290.647-182.87c15.81 11.561 48.472 37.909 67.288 70.5s25.304 74.051 27.41 93.523c17.917-7.912 57.066-23.023 94.699-23.023s76.782 15.111 94.699 23.023c2.106-19.473 8.594-60.933 27.41-93.523s51.479-58.939 67.288-70.5c-15.81-11.561-48.472-37.909-67.288-70.5s-25.304-74.051-27.41-93.523c-17.917 7.912-57.066 23.023-94.699 23.023s-76.782-15.111-94.699-23.023c-2.106 19.473-8.594 60.933-27.41 93.523s-51.479 58.939-67.288 70.5z" fill="#112360"/></g></g></g><g><path d="m466 60h-420v-40c0-11.046 8.954-20 20-20h380c11.046 0 20 8.954 20 20z" fill="#2a428c"/></g><g><path d="m114.557 50c0-5.523 4.477-10 10-10v-20c-5.523 0-10-4.477-10-10s4.477-10 10-10h-58.557c-11.046 0-20 8.954-20 20v40h78.557c-5.523 0-10-4.477-10-10z" fill="#1c2e7a"/></g><g><circle cx="423.5" cy="30" fill="#ff4155" r="10"/></g><g><circle cx="388.5" cy="30" fill="#ffdd40" r="10"/></g><g><circle cx="353.5" cy="30" fill="#38c674" r="10"/></g><g><path d="m88.5 40h215c5.523 0 10-4.477 10-10 0-5.523-4.477-10-10-10h-215c-5.523 0-10 4.477-10 10 0 5.523 4.477 10 10 10z" fill="#3c58a0"/></g><g><g><path d="m319.203 311.722c4.444-9.308 6.895-19.751 6.794-30.777-.353-38.522-31.474-69.345-69.997-69.345-38.66 0-70 31.34-70 70 0 10.785 2.441 20.998 6.797 30.122-4.146 3.374-6.797 8.516-6.797 14.278 0 10.162 8.238 18.4 18.4 18.4h18c3.314 0 6 2.686 6 6v4c0 3.314 2.686 6 6 6h43.2c3.314 0 6-2.686 6-6v-4c0-3.314 2.686-6 6-6h18c10.162 0 18.4-8.238 18.4-18.4 0-5.762-2.651-10.904-6.797-14.278z" fill="#fff"/></g><g><path d="m319.203 311.722c0-.001.001-.002.001-.002-11.662 8.691-26.122 13.836-41.785 13.836-38.66 0-70-31.34-70-70 0-10.784 2.441-20.996 6.796-30.12-17.124 12.76-28.215 33.166-28.215 56.164 0 10.785 2.441 20.998 6.797 30.122-4.146 3.374-6.797 8.516-6.797 14.278 0 10.162 8.238 18.4 18.4 18.4h18c3.314 0 6 2.686 6 6v4c0 3.314 2.686 6 6 6h43.2c3.314 0 6-2.686 6-6v-4c0-3.314 2.686-6 6-6h18c10.162 0 18.4-8.238 18.4-18.4 0-5.762-2.651-10.904-6.797-14.278z" fill="#e9efff"/></g><g><circle cx="288.805" cy="292.918" fill="#bec8f7" r="19.222"/></g><g><circle cx="224.558" cy="292.918" fill="#bec8f7" r="19.222"/></g></g></g></svg>