<svg id="Capa_1" enable-background="new 0 0 512 512" height="512" viewBox="0 0 512 512" width="512" xmlns="http://www.w3.org/2000/svg"><g><g><path d="m256 0c-109.345 0-202.66 68.562-239.347 165.034l4.942 10.562-9.898 3.697c-7.596 24.218-11.697 49.983-11.697 76.707 0 141.385 114.615 256 256 256s256-114.615 256-256-114.615-256-256-256z" fill="#ff4155"/></g><g><path d="m348.64 62.332 9.259-12.151c-4.458-4.848-12.425-12.333-23.797-18.583-16.707-9.182-44.254-17.418-80.61-4.517-33.551 11.906-53.507 40.918-72.807 68.975-26.909 39.118-54.733 79.568-121.302 79.568-15.221 0-29.472-3.556-42.729-10.59-1.784 4.69-3.444 9.441-4.956 14.258 14.846 7.529 30.786 11.332 47.685 11.332 74.457 0 105.91-45.726 133.661-86.067 18.77-27.287 36.499-53.06 65.465-63.339 53.09-18.845 83.642 13.249 90.131 21.114z" fill="#1c2e7a"/></g><g><path d="m368.666 178.791c-3.903.001-7.197-3.021-7.474-6.976-.29-4.132 2.825-7.717 6.957-8.006 13.505-.947 24.206-11.868 24.892-25.404.26-5.129-.882-10.052-3.274-14.375l-5.046 5.047c-2.929 2.928-7.678 2.928-10.606 0-2.929-2.93-2.929-7.678 0-10.607l11.089-11.089c2.929-2.928 7.678-2.928 10.606 0 8.36 8.361 12.812 19.945 12.212 31.783-1.069 21.104-17.76 38.132-38.824 39.608-.178.013-.356.019-.532.019z" fill="#d3dcfb"/></g><g><g><path d="m457.736 422.629-328.415 87.998c-21.339 5.718-43.272-6.946-48.99-28.284l-54.351-202.845c-5.718-21.339 6.946-43.272 28.284-48.99l328.415-87.998c21.339-5.718 43.272 6.946 48.99 28.284l54.352 202.844c5.717 21.339-6.946 43.273-28.285 48.991z" fill="#ffdd40"/></g><g><path d="m359.057 402.086c-130.495 34.966-264.628-42.475-299.594-172.97l-5.199 1.393c-21.339 5.718-34.002 27.651-28.284 48.99l54.352 202.844c5.718 21.339 27.651 34.002 48.99 28.284l328.415-87.998c21.339-5.718 34.002-27.651 28.284-48.99l-1.393-5.199z" fill="#ffb332"/></g><g><g><circle cx="186.583" cy="453.873" fill="#ff4155" r="10"/></g><g><circle cx="152.776" cy="462.931" fill="#ffdd40" r="10"/></g><g><circle cx="118.969" cy="471.99" fill="#38c674" r="10"/></g></g><g><path d="m181.915 320.538-96.593 25.882c-5.335 1.429-10.818-1.736-12.247-7.071l-18.117-67.615c-1.429-5.335 1.736-10.818 7.071-12.247l96.593-25.882c5.335-1.429 10.818 1.736 12.247 7.071l18.117 67.615c1.429 5.334-1.737 10.817-7.071 12.247z" fill="#fff"/></g><g><path d="m131.03 323.819-18.117-67.615c-1.429-5.335 1.736-10.818 7.071-12.247l-57.956 15.529c-5.335 1.429-8.501 6.913-7.071 12.247l18.117 67.615c1.429 5.335 6.913 8.5 12.247 7.071l57.956-15.529c-5.334 1.43-10.817-1.736-12.247-7.071z" fill="#e9efff"/></g><g><path d="m109.377 262.328 9.659-2.588c2.667-.715 5.409.868 6.124 3.536l12.941 48.296c.715 2.667-.868 5.409-3.536 6.124l-9.659 2.588c-2.667.715-5.409-.868-6.124-3.536l-12.941-48.296c-.714-2.667.869-5.409 3.536-6.124z" fill="#d3dcfb"/></g><g><path d="m75.57 271.387 9.659-2.588c2.667-.715 5.409.868 6.124 3.536l3.235 12.074c.715 2.667-.868 5.409-3.536 6.124l-9.659 2.588c-2.667.715-5.409-.868-6.124-3.536l-3.235-12.074c-.714-2.668.869-5.409 3.536-6.124z" fill="#d3dcfb"/></g><g><path d="m85.276 307.609 9.659-2.588c2.667-.715 5.409.868 6.124 3.536l3.235 12.074c.715 2.667-.868 5.409-3.536 6.124l-9.659 2.588c-2.667.715-5.409-.868-6.124-3.536l-3.235-12.074c-.715-2.667.868-5.409 3.536-6.124z" fill="#d3dcfb"/></g><g><path d="m143.185 253.27 9.659-2.588c2.667-.715 5.409.868 6.124 3.536l3.235 12.074c.715 2.667-.868 5.409-3.536 6.124l-9.659 2.588c-2.667.715-5.409-.868-6.124-3.536l-3.235-12.074c-.714-2.668.868-5.41 3.536-6.124z" fill="#d3dcfb"/></g><g><path d="m152.89 289.492 9.659-2.588c2.667-.715 5.409.868 6.124 3.536l3.235 12.074c.715 2.667-.868 5.409-3.536 6.124l-9.659 2.588c-2.667.715-5.409-.868-6.124-3.536l-3.235-12.074c-.714-2.668.869-5.409 3.536-6.124z" fill="#d3dcfb"/></g><g><g><g><path d="m92.966 375.43c5.268-1.412 10.683 1.715 12.094 6.983l7.829 29.219c1.412 5.268-1.715 10.683-6.983 12.094-5.268 1.412-10.683-1.715-12.094-6.983l-7.829-29.219c-1.411-5.268 1.715-10.683 6.983-12.094z" fill="#ff9100"/></g><g><path d="m126.532 366.436c5.268-1.412 10.683 1.715 12.094 6.983l7.829 29.219c1.412 5.268-1.715 10.683-6.983 12.094-5.268 1.412-10.683-1.715-12.094-6.983l-7.829-29.219c-1.411-5.268 1.715-10.683 6.983-12.094z" fill="#ff9100"/></g><g><path d="m160.098 357.442c5.268-1.412 10.683 1.715 12.094 6.983l7.829 29.219c1.412 5.268-1.715 10.683-6.983 12.094-5.268 1.412-10.683-1.715-12.094-6.983l-7.829-29.219c-1.411-5.268 1.715-10.683 6.983-12.094z" fill="#ff9100"/></g><g><path d="m193.664 348.448c5.268-1.412 10.683 1.715 12.094 6.983l7.829 29.219c1.412 5.268-1.715 10.683-6.983 12.094-5.268 1.412-10.683-1.715-12.094-6.983l-7.829-29.219c-1.411-5.268 1.715-10.683 6.983-12.094z" fill="#ff9100"/></g></g><g><g><path d="m251.378 332.983c5.268-1.412 10.683 1.715 12.094 6.983l7.829 29.219c1.412 5.268-1.715 10.683-6.983 12.094-5.268 1.412-10.683-1.715-12.094-6.983l-7.829-29.219c-1.411-5.267 1.715-10.682 6.983-12.094z" fill="#ff9100"/></g><g><path d="m284.944 323.99c5.268-1.412 10.683 1.715 12.094 6.983l7.829 29.219c1.412 5.268-1.715 10.683-6.983 12.094-5.268 1.412-10.683-1.715-12.094-6.983l-7.829-29.219c-1.412-5.268 1.715-10.683 6.983-12.094z" fill="#ff9100"/></g><g><path d="m318.51 314.996c5.268-1.412 10.683 1.715 12.094 6.983l7.829 29.219c1.412 5.268-1.715 10.683-6.983 12.094-5.268 1.412-10.683-1.715-12.094-6.983l-7.829-29.219c-1.412-5.268 1.715-10.683 6.983-12.094z" fill="#ff9100"/></g></g></g><g><g><path d="m439.433 199.772-64.819 17.368c-3.326.891-5.96 3.431-6.971 6.723l-13.05 42.48c-1.154 3.757 2.278 7.315 6.074 6.298l91.706-24.573z" fill="#ffb332"/></g><g><path d="m273.444 296.013 58.662-15.719c3.326-.891 5.96-3.431 6.971-6.723l13.05-42.48c1.154-3.757-2.278-7.315-6.074-6.298l-58.662 15.719c-3.326.891-5.96 3.431-6.971 6.723l-13.05 42.48c-1.154 3.756 2.278 7.315 6.074 6.298z" fill="#ffb332"/></g><g><path d="m225.389 308.889 19.494-5.223c3.326-.891 5.96-3.431 6.971-6.723l13.05-42.48c1.154-3.757-2.278-7.315-6.074-6.298l-19.494 5.223c-3.326.891-5.96 3.431-6.971 6.723l-13.05 42.48c-1.154 3.757 2.278 7.315 6.074 6.298z" fill="#ffb332"/></g></g></g><g><path d="m366.149 178.88c-10.64 0-20.667-3.934-28.51-11.246-8.469-7.896-13.326-19.063-13.326-30.638 0-14.816 7.951-28.675 20.751-36.167 8.408-4.921 13.631-14.117 13.631-24.001 0-4.143 3.358-7.5 7.5-7.5s7.5 3.357 7.5 7.5c0 15.188-8.067 29.346-21.054 36.946-8.221 4.813-13.328 13.71-13.328 23.222 0 7.538 3.039 14.522 8.555 19.667 5.512 5.139 12.717 7.677 20.281 7.146 4.123-.298 7.716 2.825 8.006 6.957s-2.825 7.717-6.957 8.006c-1.021.072-2.037.108-3.049.108z" fill="#e9efff"/></g><g><path d="m366.195 84.328c-12.407 0-22.5-10.094-22.5-22.5s10.093-22.5 22.5-22.5 22.5 10.094 22.5 22.5-10.093 22.5-22.5 22.5zm0-30c-4.136 0-7.5 3.364-7.5 7.5s3.364 7.5 7.5 7.5 7.5-3.364 7.5-7.5-3.364-7.5-7.5-7.5z" fill="#fff"/></g></g></svg>