<svg id="Capa_1" enable-background="new 0 0 512 512" height="512" viewBox="0 0 512 512" width="512" xmlns="http://www.w3.org/2000/svg"><g><g><path d="m256 0c-75.516 0-143.386 32.705-190.24 84.717v11.423h-9.698c-10.441 13.042-19.638 27.123-27.399 42.071l200.238 372.361c8.906.938 17.945 1.428 27.099 1.428 141.385 0 256-114.615 256-256s-114.615-256-256-256z" fill="#1c2e7a"/></g><g><g><path d="m3.897 300.703h415.231v-142.492c0-11.046-8.954-20-20-20h-370.465c-18.307 35.261-28.663 75.314-28.663 117.789 0 15.252 1.338 30.19 3.896 44.708z" fill="#49d88b"/></g><g><path d="m3.897 300.703h159.231v-132.492c-8.284 0-15-6.716-15-15s6.716-15 15-15h-134.465c-18.307 35.261-28.663 75.314-28.663 117.789 0 15.252 1.338 30.19 3.896 44.708z" fill="#38c674"/></g><g><path d="m3.897 300.703h385.231v-102.492c-16.569 0-30-13.431-30-30h-343.676c-9.996 27.382-15.452 56.948-15.452 87.789 0 15.253 1.337 30.192 3.896 44.711z" fill="#73f9a9"/></g><g><path d="m3.897 300.703h159.231v-82.491c-13.807 0-25-11.193-25-25s11.193-25 25-25h-147.676c-9.996 27.381-15.452 56.947-15.452 87.788 0 15.253 1.337 30.192 3.896 44.711z" fill="#49d88b"/></g><g><path d="m218.753 300.703c2.812-6.948 4.375-14.535 4.375-22.491 0-33.137-26.863-60-60-60s-60 26.863-60 60c0 7.956 1.563 15.544 4.375 22.491z" fill="#38c674"/></g></g><g><path d="m394.854 175.537c-3.903.001-7.197-3.021-7.474-6.976-.29-4.132 2.825-7.717 6.957-8.006 13.505-.947 24.206-11.868 24.892-25.404.26-5.129-.882-10.052-3.274-14.375l-5.046 5.047c-2.929 2.928-7.678 2.928-10.606 0-2.929-2.93-2.929-7.678 0-10.607l11.089-11.089c2.929-2.928 7.678-2.928 10.606 0 8.36 8.361 12.812 19.945 12.212 31.783-1.069 21.104-17.76 38.132-38.824 39.608-.178.013-.355.019-.532.019z" fill="#d3dcfb"/></g><g><g><path d="m499.65 398.43-44.5 18.43-226.26 93.72c-113.8-11.98-205.38-98.52-224.99-209.87l388.6-160.97c10.2-4.23 21.9.62 26.13 10.82l78.9 190.49 12.94 31.24c4.23 10.21-.62 21.91-10.82 26.14z" fill="#49d88b"/></g><g><path d="m262.014 480.621c-3.17-7.654.464-16.428 8.118-19.599l-84.19-203.253c-7.654 3.17-16.428-.464-19.598-8.118s.464-16.428 8.118-19.598l-170.565 70.65c19.612 111.357 111.196 197.895 225.004 209.87l52.712-21.834c-7.654 3.17-16.428-.465-19.599-8.118z" fill="#38c674"/></g><g><path d="m177.056 499.576 274.157-113.56c-6.341-15.307.929-32.856 16.236-39.197l-61.229-147.821c-15.307 6.34-32.856-.928-39.197-16.236l-356.071 147.49c24.238 80.098 86.665 143.595 166.104 169.324z" fill="#73f9a9"/></g><g><path d="m185.942 257.769-174.99 72.483c24.238 80.098 86.665 143.595 166.104 169.324l93.077-38.554c-12.756 5.284-27.38-.774-32.664-13.53s.774-27.38 13.53-32.664l-45.922-110.866c-12.756 5.284-27.38-.774-32.664-13.53-5.285-12.755.773-27.38 13.529-32.663z" fill="#49d88b"/></g><g><circle cx="228.037" cy="359.396" fill="#38c674" r="60"/></g><g><circle cx="348.142" cy="309.647" fill="#49d88b" r="30"/></g><g><circle cx="107.933" cy="409.144" fill="#38c674" r="30"/></g></g><g><path d="m392.338 175.626c-10.64 0-20.667-3.934-28.51-11.246-8.469-7.896-13.326-19.063-13.326-30.638 0-14.816 7.951-28.675 20.751-36.166 8.408-4.921 13.631-14.118 13.631-24.002 0-4.143 3.358-7.5 7.5-7.5s7.5 3.357 7.5 7.5c0 15.189-8.067 29.347-21.054 36.947-8.221 4.812-13.328 13.709-13.328 23.221 0 7.538 3.038 14.522 8.555 19.667 5.512 5.139 12.723 7.675 20.281 7.146 4.126-.299 7.716 2.825 8.006 6.957s-2.825 7.717-6.957 8.006c-1.021.072-2.038.108-3.049.108z" fill="#e9efff"/></g><g><g><path d="m391.88 50.27c-3.14 2.69-7.87 2.33-10.57-.8-.05-.05-2.41-2.77-6.79-6.48-4.36-3.72-10.74-8.44-18.78-12.51-21.12-10.68-43.43-12.1-66.3-4.24-25.87 8.9-42.55 25.25-60.2 42.56-24.85 24.35-50.44 49.43-101.26 49.43-7.05 0-14.57-.48-22.65-1.52-17.14-2.19-33.64-9.08-49.29-20.57 3.13-3.91 6.37-7.73 9.72-11.44 12.55 9.04 26.36 15.2 41.47 17.13 59.16 7.56 83.42-16.21 111.51-43.75 18.07-17.71 36.75-36.02 65.82-46.02 10.16-3.49 19.76-5.2 28.69-5.63 20.71-1.02 37.81 4.79 49.84 10.96 16.88 8.67 27.2 19.62 29.25 21.9.2.22.32.36.36.41 2.69 3.14 2.32 7.88-.82 10.57z" fill="#4b6bb2"/></g></g><g><path d="m392.384 81.074c-12.407 0-22.5-10.094-22.5-22.5s10.093-22.5 22.5-22.5 22.5 10.094 22.5 22.5-10.093 22.5-22.5 22.5zm0-30c-4.136 0-7.5 3.364-7.5 7.5s3.364 7.5 7.5 7.5 7.5-3.364 7.5-7.5-3.364-7.5-7.5-7.5z" fill="#fff"/></g></g></svg>