<svg id="Capa_1" enable-background="new 0 0 512 512" height="512" viewBox="0 0 512 512" width="512" xmlns="http://www.w3.org/2000/svg"><g><g><path d="m256 0c-109.345 0-202.66 68.562-239.347 165.034l4.942 10.562-9.898 3.697c-7.596 24.218-11.697 49.983-11.697 76.707 0 141.385 114.615 256 256 256s256-114.615 256-256-114.615-256-256-256z" fill="#ffdd40"/></g><g><path d="m348.64 62.332 9.259-12.151c-4.458-4.848-12.425-12.333-23.797-18.583-16.707-9.182-44.254-17.418-80.61-4.517-33.551 11.906-53.507 40.918-72.807 68.975-26.909 39.118-54.733 79.568-121.302 79.568-15.221 0-29.472-3.556-42.729-10.59-1.784 4.69-3.444 9.441-4.956 14.258 14.846 7.529 30.786 11.332 47.685 11.332 74.457 0 105.91-45.726 133.661-86.067 18.77-27.287 36.499-53.06 65.465-63.339 53.09-18.845 83.642 13.249 90.131 21.114z" fill="#1c2e7a"/></g><g><path d="m368.666 178.791c-3.903.001-7.196-3.021-7.474-6.976-.29-4.132 2.825-7.717 6.957-8.006 13.505-.947 24.205-11.868 24.892-25.404.26-5.129-.881-10.052-3.273-14.375l-5.046 5.047c-2.93 2.928-7.678 2.928-10.607 0-2.929-2.93-2.929-7.678 0-10.607l11.089-11.089c2.93-2.928 7.678-2.928 10.607 0 8.36 8.361 12.812 19.946 12.211 31.784-1.069 21.104-17.76 38.131-38.823 39.607-.178.013-.357.019-.533.019z" fill="#2a428c"/></g><g><g><path d="m457.736 422.629-328.415 87.998c-21.339 5.718-43.272-6.946-48.99-28.284l-54.351-202.845c-5.718-21.339 6.946-43.272 28.284-48.99l328.415-87.998c21.339-5.718 43.272 6.946 48.99 28.284l54.352 202.844c5.717 21.339-6.946 43.273-28.285 48.991z" fill="#fff"/></g><g><path d="m359.057 402.086c-130.495 34.966-264.628-42.475-299.594-172.97l-5.199 1.393c-21.339 5.718-34.002 27.651-28.284 48.99l54.352 202.844c5.718 21.339 27.651 34.002 48.99 28.284l328.415-87.998c21.339-5.718 34.002-27.651 28.284-48.99l-1.393-5.199z" fill="#d3dcfb"/></g><g><g><path d="m261.478 407.527-41.213-153.809c-2.859-10.669-13.826-17.001-24.495-14.142l-105.243 28.2c-10.669 2.859-17.001 13.826-14.142 24.495l41.213 153.809z" fill="#9bd8f9"/></g><g><g><path d="m243.935 386.825c-10.265-5.105-47.811-1.391-47.811-1.391s0 0 0 0l-11.33-42.285-32.974 8.835 11.33 42.285s-34.373 15.557-40.71 25.11c-2.606 3.929-4.047 15.012-4.842 26.699 2.859 10.669 13.826 17.001 24.495 14.142l105.243-28.2c10.669-2.859 17.001-13.826 14.142-24.495-6.532-9.723-13.321-18.6-17.543-20.7z" fill="#1e9ef4"/></g><g><g><path d="m142.093 460.221 81.704-21.893c-32.797 4.972-65.279-7.404-87.349-30.095-6.298 3.84-11.822 7.85-14.008 11.146-2.606 3.929-4.047 15.012-4.842 26.699 2.859 10.671 13.826 17.002 24.495 14.143z" fill="#1886ea"/></g></g><g><path d="m151.82 351.984 11.33 42.286c17.708-4.745 23.995-20.996 23.995-20.996l-2.352-30.125z" fill="#1886ea"/></g><g><path d="m194.556 322.905c6.049 22.575-.582 52.728-17.514 57.265-16.931 4.537-37.751-18.261-43.8-40.836s3.327-42.484 20.258-47.021c16.933-4.537 35.007 8.017 41.056 30.592z" fill="#4fabf7"/></g><g><path d="m143.785 336.509c-5.407-20.178 1.511-38.225 15.132-45.07-1.808.105-3.618.392-5.416.874-16.931 4.537-26.307 24.446-20.258 47.021s26.868 45.373 43.8 40.836c1.798-.482 3.478-1.255 5.04-2.274-15.684-.856-32.891-21.209-38.298-41.387z" fill="#1e9ef4"/></g></g></g><g><g><circle cx="323.928" cy="215.588" fill="#ff4155" r="10"/></g><g><circle cx="290.121" cy="224.647" fill="#ffdd40" r="10"/></g><g><circle cx="256.314" cy="233.706" fill="#38c674" r="10"/></g></g><g><path d="m395.442 268.896-116.182 31.131c-8.002 2.144-16.227-2.605-18.371-10.607-2.144-8.002 2.605-16.227 10.607-18.371l116.181-31.131c8.002-2.144 16.227 2.605 18.371 10.607 2.145 8.002-2.604 16.227-10.606 18.371z" fill="#4fabf7"/></g><g><path d="m297.179 279.696c-2.144-8.002 2.604-16.227 10.606-18.371l-36.29 9.724c-8.002 2.144-12.751 10.369-10.607 18.371s10.369 12.751 18.371 10.607l36.29-9.724c-8.001 2.144-16.226-2.605-18.37-10.607z" fill="#1e9ef4"/></g><g><path d="m414.333 310.421-130.67 35.013c-4.001 1.072-8.114-1.302-9.186-5.303-1.072-4.001 1.302-8.114 5.303-9.186l130.67-35.013c4.001-1.072 8.113 1.302 9.186 5.303 1.073 4.002-1.302 8.114-5.303 9.186z" fill="#bec8f7"/></g><g><path d="m349.518 358.847-58.091 15.565c-4.001 1.072-8.113-1.302-9.186-5.303-1.072-4.001 1.302-8.114 5.303-9.186l58.091-15.565c4.001-1.072 8.114 1.302 9.186 5.303 1.073 4.001-1.302 8.114-5.303 9.186z" fill="#bec8f7"/></g></g><g><path d="m366.149 178.88c-10.64 0-20.667-3.934-28.51-11.246-8.469-7.896-13.326-19.063-13.326-30.638 0-14.816 7.951-28.675 20.751-36.167 8.408-4.921 13.631-14.118 13.631-24.001 0-4.143 3.357-7.5 7.5-7.5s7.5 3.357 7.5 7.5c0 15.188-8.067 29.346-21.053 36.946-8.222 4.813-13.329 13.711-13.329 23.222 0 7.538 3.038 14.522 8.556 19.667 5.51 5.138 12.71 7.671 20.28 7.146 4.155-.289 7.716 2.826 8.006 6.957.29 4.132-2.825 7.717-6.957 8.006-1.021.072-2.038.108-3.049.108z" fill="#3c58a0"/></g><g><path d="m366.195 84.328c-12.406 0-22.5-10.094-22.5-22.5s10.094-22.5 22.5-22.5 22.5 10.094 22.5 22.5-10.093 22.5-22.5 22.5zm0-30c-4.136 0-7.5 3.364-7.5 7.5s3.364 7.5 7.5 7.5 7.5-3.364 7.5-7.5-3.364-7.5-7.5-7.5z" fill="#4b6bb2"/></g></g></svg>