<svg id="Capa_1" enable-background="new 0 0 512 512" height="512" viewBox="0 0 512 512" width="512" xmlns="http://www.w3.org/2000/svg"><g><g><path d="m512 256c0-2.509-.046-5.008-.118-7.5l-13.946-7.5 13.068-7.5c-.439-5.043-1.019-10.045-1.746-15l-11.322-7.5 8.665-7.5c-8.754-41.999-27.802-80.214-54.382-111.904l-14.538 3.936 4.557-15.16c-3.433-3.639-6.971-7.177-10.61-10.61l-15.16 4.557 3.936-14.538c-31.69-26.58-69.905-45.628-111.904-54.382l-7.5 8.665-7.5-11.322c-4.955-.727-9.957-1.307-15-1.746l-7.5 13.068-7.5-13.946c-2.492-.072-4.991-.118-7.5-.118s-5.008.046-7.5.118l-7.5 13.946-7.5-13.068c-5.043.439-10.045 1.019-15 1.746l-7.5 11.322-7.5-8.665c-41.999 8.754-80.214 27.802-111.904 54.382l3.936 14.538-15.16-4.557c-3.639 3.433-7.177 6.971-10.61 10.61l4.557 15.16-14.538-3.936c-26.58 31.69-45.628 69.905-54.382 111.904l8.665 7.5-11.322 7.5c-.727 4.955-1.307 9.957-1.746 15l13.068 7.5-13.946 7.5c-.072 2.492-.118 4.991-.118 7.5s.046 5.008.118 7.5l13.946 7.5-13.068 7.5c.439 5.043 1.019 10.045 1.746 15l11.322 7.5-8.665 7.5c8.754 41.999 27.802 80.214 54.382 111.904l14.538-3.936-4.557 15.16c3.433 3.639 6.971 7.177 10.61 10.61l15.16-4.557-3.936 14.538c31.69 26.58 69.905 45.628 111.904 54.382l7.5-8.666 7.5 11.322c4.955.727 9.957 1.307 15 1.746l7.5-13.069 7.5 13.946c2.492.072 4.991.118 7.5.118s5.008-.046 7.5-.118l7.5-13.946 7.5 13.069c5.043-.439 10.045-1.019 15-1.746l7.5-11.322 7.5 8.666c41.999-8.754 80.214-27.802 111.904-54.382l-3.936-14.538 15.16 4.557c3.639-3.433 7.177-6.971 10.61-10.61l-4.557-15.16 14.538 3.936c26.58-31.69 45.628-69.905 54.382-111.904l-8.665-7.5 11.322-7.5c.727-4.955 1.307-9.957 1.746-15l-13.068-7.5 13.946-7.5c.072-2.492.118-4.991.118-7.5z" fill="#1c2e7a"/></g><g><g><path d="m511.005 278.5c.432-4.962.733-9.961.878-15h-203.383v-28.18l16.82-16.82h183.938c-.741-5.049-1.625-10.051-2.657-15h-166.281l111.901-111.902c-3.22-3.84-6.548-7.585-9.985-11.228l-123.129 123.13h-10.607v-146.747c4.479-2.595 7.5-7.428 7.5-12.977s-3.021-10.382-7.5-12.977v-25.401c-4.949-1.031-9.951-1.916-15-2.657v28.059c-4.479 2.595-7.5 7.428-7.5 12.977s3.021 10.382 7.5 12.977v146.746h-45v-114.172c4.479-2.595 7.5-7.428 7.5-12.977s-3.021-10.382-7.5-12.977v-63.256c-5.039.145-10.038.446-15 .878v62.379c-4.479 2.595-7.5 7.428-7.5 12.977s3.021 10.382 7.5 12.977v114.171h-40.607l-82.932-82.932c1.333-5.002.051-10.556-3.873-14.479-3.924-3.924-9.477-5.205-14.479-3.873l-21.845-21.846c-3.437 3.643-6.765 7.389-9.985 11.228l21.224 21.224c-1.333 5.002-.051 10.556 3.873 14.479s9.477 5.205 14.479 3.873l72.325 72.326h-81.448c-2.595-4.479-7.428-7.5-12.977-7.5s-10.382 3.021-12.977 7.5h-58.88c-1.031 4.949-1.916 9.951-2.657 15h61.537c2.595 4.479 7.428 7.5 12.977 7.5s10.382-3.021 12.977-7.5h96.448l45 45h-183.873c-2.595-4.479-7.428-7.5-12.977-7.5s-10.382 3.021-12.977 7.5h-21.735c.145 5.039.446 10.038.878 15h20.857c2.595 4.479 7.428 7.5 12.977 7.5s10.382-3.021 12.977-7.5h185.693v10.607l-95.899 95.899c-5.002-1.333-10.556-.051-14.479 3.873-3.924 3.924-5.205 9.477-3.873 14.479l-38.879 38.879c3.643 3.437 7.389 6.764 11.228 9.985l38.257-38.257c5.002 1.333 10.556.051 14.479-3.873 3.924-3.924 5.205-9.477 3.873-14.479l85.293-85.293v200.685c4.962.432 9.961.733 15 .878v-216.563l7.5-7.5 37.5 37.5v183.938c5.049-.741 10.051-1.625 15-2.657v-166.281l111.902 111.902c3.84-3.22 7.585-6.548 11.228-9.985l-123.13-123.131v-40.606zm-217.505-15h-13.18l13.18-13.18zm0-45v10.607l-34.393 34.393h-6.213l-4.393-4.394v-40.606zm-60 0v25.606l-25.607-25.606zm60 85.606-25.607-25.606h25.607z" fill="#2a428c"/></g></g><g><g><path d="m469.681 286c-5.549 0-10.382 3.021-12.977 7.5h-131.384l-45-45h146.384c2.595 4.479 7.428 7.5 12.977 7.5s10.382-3.021 12.977-7.5h59.225c-.145-5.039-.446-10.038-.878-15h-58.347c-2.595-4.479-7.428-7.5-12.977-7.5s-10.382 3.021-12.977 7.5h-148.204v-10.607l115.017-115.017c5.002 1.333 10.556.051 14.479-3.873 3.924-3.924 5.205-9.478 3.873-14.479l19.761-19.761c-3.643-3.437-7.389-6.764-11.228-9.985l-19.139 19.139c-5.002-1.333-10.556-.051-14.479 3.873s-5.205 9.477-3.873 14.479l-104.411 104.411v-200.685c-4.962-.432-9.961-.733-15-.878v216.563l-7.5 7.5-37.5-37.5v-183.938c-5.049.741-10.051 1.625-15 2.657v166.281l-111.902-111.901c-3.84 3.22-7.585 6.548-11.228 9.985l123.13 123.13v40.606h-202.505c-.432 4.962-.733 9.961-.878 15h203.383v28.18l-16.82 16.82h-183.938c.741 5.049 1.625 10.051 2.657 15h166.281l-111.901 111.902c3.22 3.84 6.548 7.585 9.985 11.228l123.13-123.13h10.606v108.008c-4.479 2.595-7.5 7.428-7.5 12.977s3.021 10.382 7.5 12.977v64.14c4.949 1.031 9.951 1.916 15 2.657v-66.796c4.479-2.595 7.5-7.428 7.5-12.977s-3.021-10.382-7.5-12.977v-108.009h45v148.425c-4.479 2.595-7.5 7.428-7.5 12.977s3.021 10.382 7.5 12.977v29.003c5.039-.145 10.038-.446 15-.878v-28.125c4.479-2.595 7.5-7.428 7.5-12.977s-3.021-10.382-7.5-12.977v-148.425h40.607l77.085 77.085c-1.333 5.002-.051 10.556 3.873 14.479s9.477 5.205 14.479 3.873l27.692 27.692c3.437-3.643 6.765-7.389 9.985-11.228l-27.071-27.071c1.333-5.002.051-10.556-3.873-14.479-3.924-3.924-9.477-5.205-14.479-3.873l-66.478-66.478h116.384c2.595 4.479 7.428 7.5 12.977 7.5s10.382-3.021 12.977-7.5h23.944c1.031-4.949 1.916-9.951 2.657-15h-26.601c-2.595-4.479-7.428-7.5-12.977-7.5zm-251.181-78.107 25.607 25.607h-25.607zm0 40.607h13.18l-13.18 13.18zm0 45v-10.607l34.393-34.393h6.213l4.393 4.393v40.607zm60 0v-25.607l25.607 25.607z" fill="#4b6bb2"/></g></g><g><g><circle cx="256" cy="256" fill="#73c3f9" r="180"/></g><g><path d="m350.604 341.396c-99.411 0-180-80.589-180-180 0-25.172 5.175-49.134 14.506-70.89-64.162 27.521-109.11 91.255-109.11 165.494 0 99.411 80.589 180 180 180 74.239 0 137.973-44.948 165.494-109.11-21.756 9.331-45.717 14.506-70.89 14.506z" fill="#4fabf7"/></g><g><path d="m195.123 351.283c17.34-3.116 35.911-4.938 55.252-5.235v-84.423h-73.05c.635 33 6.843 64.083 17.798 89.658z" fill="#1e9ef4"/></g><g><path d="m201.075 261.625h-23.75c.635 33 6.843 64.083 17.798 89.658 17.34-3.116 35.911-4.938 55.252-5.235v-35.123c-19.461-13.071-36.229-29.839-49.3-49.3z" fill="#1886ea"/></g><g><path d="m250.375 250.375v-84.423c-19.341-.297-37.912-2.119-55.252-5.235-10.955 25.575-17.163 56.658-17.798 89.658z" fill="#1e9ef4"/></g><g><path d="m179.784 218.272c-1.41 10.405-2.249 21.144-2.459 32.103h16.782c-5.77-10.127-10.584-20.869-14.323-32.103z" fill="#1886ea"/></g><g><path d="m200.056 150.19c16.023 2.706 32.937 4.239 50.319 4.511v-50.17c-17.733 2.546-34.657 17.075-48.164 41.558-.739 1.338-1.446 2.72-2.155 4.101z" fill="#1e9ef4"/></g><g><path d="m250.375 407.47v-50.17c-17.382.272-34.296 1.805-50.319 4.511.708 1.38 1.415 2.762 2.154 4.102 13.508 24.482 30.432 39.011 48.165 41.557z" fill="#1886ea"/></g><g><path d="m309.789 365.912c.739-1.34 1.446-2.722 2.154-4.102-16.023-2.706-32.937-4.239-50.319-4.511v50.17c17.734-2.545 34.658-17.074 48.165-41.557z" fill="#1886ea"/></g><g><path d="m309.789 146.088c-13.507-24.482-30.431-39.011-48.164-41.558v50.17c17.382-.272 34.296-1.805 50.319-4.511-.709-1.38-1.416-2.762-2.155-4.101z" fill="#1e9ef4"/></g><g><path d="m250.375 92.983c-39.951 1.361-76.305 17.146-103.993 42.315 12.852 5.272 27.039 9.538 42.169 12.716 15.33-31.432 37.241-52.064 61.825-54.812v-.219z" fill="#1e9ef4"/></g><g><path d="m171.461 143.843c1.017-10.489 2.936-20.712 5.676-30.596-11.106 6.158-21.424 13.568-30.755 22.05 7.885 3.235 16.278 6.087 25.079 8.546z" fill="#1886ea"/></g><g><path d="m323.45 363.986c-15.33 31.432-37.241 52.064-61.825 54.812v.219c39.951-1.361 76.306-17.147 103.994-42.315-12.853-5.271-27.039-9.537-42.169-12.716z" fill="#1886ea"/></g><g><path d="m345.941 261.625c-.644 34.4-7.158 66.101-17.792 91.904 16.905 3.702 32.452 8.666 46.168 14.652 26.551-27.989 43.297-65.359 44.7-106.556z" fill="#1e9ef4"/></g><g><path d="m350.604 341.396c-5.951 0-11.832-.297-17.635-.861-1.498 4.472-3.099 8.818-4.82 12.994 16.905 3.702 32.452 8.666 46.168 14.652 9.478-9.992 17.699-21.185 24.426-33.315-15.323 4.246-31.463 6.53-48.139 6.53z" fill="#1886ea"/></g><g><path d="m250.375 418.799c-24.584-2.749-46.495-23.381-61.825-54.812-15.13 3.178-29.317 7.445-42.169 12.716 27.688 25.168 64.043 40.953 103.993 42.315v-.219z" fill="#1886ea"/></g><g><path d="m183.851 353.529c-10.634-25.803-17.148-57.504-17.792-91.904h-73.076c1.404 41.197 18.149 78.567 44.7 106.556 13.716-5.986 29.264-10.95 46.168-14.652z" fill="#1886ea"/></g><g><path d="m328.149 158.471c10.634 25.803 17.148 57.504 17.792 91.904h73.077c-1.404-41.197-18.149-78.567-44.7-106.556-13.717 5.986-29.264 10.95-46.169 14.652z" fill="#1e9ef4"/></g><g><path d="m166.059 250.375c.643-34.4 7.158-66.101 17.792-91.904-16.904-3.702-32.452-8.666-46.168-14.652-26.551 27.989-43.297 65.359-44.7 106.556z" fill="#1e9ef4"/></g><g><path d="m137.683 143.819c-26.551 27.989-43.297 65.359-44.7 106.556h73.077c.387-20.665 2.905-40.343 7.149-58.367-1.705-9.95-2.604-20.176-2.604-30.612 0-2.054.047-4.096.116-6.134-11.875-3.2-22.955-7.043-33.038-11.443z" fill="#1886ea"/></g><g><path d="m316.877 160.717c-17.34 3.116-35.911 4.938-55.252 5.235v84.423h73.05c-.634-33-6.843-64.083-17.798-89.658z" fill="#1e9ef4"/></g><g><path d="m261.625 92.983v.219c24.584 2.749 46.495 23.381 61.825 54.812 15.13-3.178 29.317-7.445 42.169-12.716-27.688-25.169-64.043-40.954-103.994-42.315z" fill="#1e9ef4"/></g><g><path d="m261.625 261.625v84.423c19.341.297 37.912 2.119 55.252 5.235 10.955-25.575 17.164-56.658 17.798-89.658z" fill="#1e9ef4"/></g><g><path d="m321.59 339.056c-21.504-3.485-41.73-10.774-59.965-21.164v28.155c19.341.297 37.912 2.119 55.252 5.235 1.69-3.943 3.252-8.033 4.713-12.226z" fill="#1886ea"/></g></g></g></svg>