<svg id="Capa_1" enable-background="new 0 0 512 512" height="512" viewBox="0 0 512 512" width="512" xmlns="http://www.w3.org/2000/svg"><g><g><path d="m89.638 450.623h332.724c54.86-46.953 89.638-116.693 89.638-194.564 0-141.385-114.615-256-256-256s-256 114.615-256 256c0 77.871 34.778 147.611 89.638 194.564z" fill="#ffdd40"/></g><g><circle cx="256" cy="256.059" fill="#ffb332" r="170"/></g><g><path d="m89.638 450.623c42.977 36.782 98.277 59.574 158.858 61.318h15.007c60.581-1.744 115.881-24.536 158.858-61.318l-16.361-73.564h-300z" fill="#2a428c"/></g><g><path d="m186.426 377.059h-80.426l-16.362 73.564c21.002 17.974 44.952 32.596 71.018 43.065z" fill="#1c2e7a"/></g><g><path d="m256 40.059c-74.559 0-135 60.441-135 135v202h270v-202c0-74.559-60.441-135-135-135z" fill="#ff4155"/></g><g><path d="m236 165.059h40v182h-40z" fill="#e80054"/></g><g><path d="m296.213 46.15c-12.702-3.958-26.208-6.091-40.213-6.091-74.558 0-135 60.441-135 135v202h80.426v-202c0-60.554 39.868-111.795 94.787-128.909z" fill="#e80054"/></g><g><path d="m391 317.059h-270c-8.284 0-15 6.716-15 15v45h300v-45c0-8.284-6.716-15-15-15z" fill="#fff"/></g><g><path d="m201.426 317.059h-80.426c-8.284 0-15 6.716-15 15v45h80.426v-45c0-8.284 6.715-15 15-15z" fill="#e9efff"/></g><g><path d="m421 392.059h-330c-8.284 0-15-6.716-15-15 0-8.284 6.716-15 15-15h330c8.284 0 15 6.716 15 15 0 8.284-6.716 15-15 15z" fill="#3c58a0"/></g><g><path d="m431 452.059h-350c-8.284 0-15-6.716-15-15 0-8.284 6.716-15 15-15h350c8.284 0 15 6.716 15 15 0 8.284-6.716 15-15 15z" fill="#3c58a0"/></g><g><path d="m156.426 377.059c0-8.284 6.716-15 15-15h-80.426c-8.284 0-15 6.716-15 15s6.716 15 15 15h80.426c-8.285 0-15-6.716-15-15z" fill="#2a428c"/></g><g><path d="m146.426 437.059c0-8.284 6.716-15 15-15h-80.426c-8.284 0-15 6.716-15 15s6.716 15 15 15h80.426c-8.285 0-15-6.716-15-15z" fill="#2a428c"/></g><g><circle cx="256" cy="175.059" fill="#e80054" r="100"/></g><g><circle cx="256" cy="175.059" fill="#ff4155" r="40"/></g><g><circle cx="256" cy="105.059" fill="#ff4155" r="15"/></g><g><circle cx="256" cy="245.059" fill="#ff4155" r="15"/></g><g><circle cx="305.497" cy="125.561" fill="#ff4155" r="15"/></g><g><circle cx="206.503" cy="224.556" fill="#ff4155" r="15"/></g><g><circle cx="326" cy="175.059" fill="#ff4155" r="15"/></g><g><circle cx="186" cy="175.059" fill="#ff4155" r="15"/></g><g><circle cx="305.497" cy="224.556" fill="#ff4155" r="15"/></g><g><circle cx="206.503" cy="125.561" fill="#ff4155" r="15"/></g></g></svg>