<svg id="Capa_1" enable-background="new 0 0 512 512" height="512" viewBox="0 0 512 512" width="512" xmlns="http://www.w3.org/2000/svg"><g><g><path d="m66 427.56h380c41.017-45.397 66-105.559 66-171.56 0-141.385-114.615-256-256-256s-256 114.615-256 256c0 66.001 24.983 126.163 66 171.56z" fill="#4fabf7"/></g><g><path d="m446 100h-380v327.56c24.321 26.918 54.281 48.645 88.017 63.316 29.929-5.246 65.735-.876 101.983-.876 38.746 0 78.486-6.783 108.396-2.018 31.125-14.571 58.835-35.221 81.604-60.421z" fill="#2a428c"/></g><g><path d="m184.947 120v-20h-118.947v327.56c24.351 26.952 54.359 48.686 88.149 63.352 13.046-6.198 20.236-3.04 30.798.006v-180.918c-9.665 0-17.5-7.835-17.5-17.5s7.835-17.5 17.5-17.5v-120c-9.665 0-17.5-7.835-17.5-17.5s7.835-17.5 17.5-17.5z" fill="#1c2e7a"/></g><g><g><path d="m456 120h-400c-11.046 0-20-8.954-20-20v-80c0-11.046 8.954-20 20-20h400c11.046 0 20 8.954 20 20v80c0 11.046-8.954 20-20 20z" fill="#4b6bb2"/></g><g><path d="m56 20h400v80h-400z" fill="#3c58a0"/></g><g><path d="m128.5 87.5c0-6.904 5.596-12.5 12.5-12.5v-30c-6.904 0-12.5-5.596-12.5-12.5s5.596-12.5 12.5-12.5h-85v80h85c-6.904 0-12.5-5.596-12.5-12.5z" fill="#2a428c"/></g><g><circle cx="96" cy="60" fill="#ff4155" r="15"/></g><g><path d="m96 60c0-5.549 3.021-10.382 7.5-12.977-2.208-1.279-4.765-2.023-7.5-2.023-8.284 0-15 6.716-15 15s6.716 15 15 15c2.735 0 5.292-.744 7.5-2.023-4.479-2.595-7.5-7.428-7.5-12.977z" fill="#e80054"/></g><g><circle cx="141" cy="60" fill="#ffdd40" r="15"/></g><g><path d="m141 60c0-5.549 3.021-10.382 7.5-12.977-2.208-1.279-4.765-2.023-7.5-2.023-8.284 0-15 6.716-15 15s6.716 15 15 15c2.735 0 5.292-.744 7.5-2.023-4.479-2.595-7.5-7.428-7.5-12.977z" fill="#ffb332"/></g><g><circle cx="186" cy="60" fill="#38c674" r="15"/></g><g><path d="m186 60c0-5.549 3.021-10.382 7.5-12.977-2.208-1.279-4.765-2.023-7.5-2.023-8.284 0-15 6.716-15 15s6.716 15 15 15c2.735 0 5.292-.744 7.5-2.023-4.479-2.595-7.5-7.428-7.5-12.977z" fill="#24b55e"/></g><g><path d="m423.5 75c-4.142 0-7.5-3.358-7.5-7.5v-15c0-4.142 3.358-7.5 7.5-7.5 4.142 0 7.5 3.358 7.5 7.5v15c0 4.142-3.358 7.5-7.5 7.5z" fill="#2a428c"/></g><g><path d="m393.5 75c-4.142 0-7.5-3.358-7.5-7.5v-15c0-4.142 3.358-7.5 7.5-7.5 4.142 0 7.5 3.358 7.5 7.5v15c0 4.142-3.358 7.5-7.5 7.5z" fill="#2a428c"/></g><g><path d="m363.5 75c-4.142 0-7.5-3.358-7.5-7.5v-15c0-4.142 3.358-7.5 7.5-7.5 4.142 0 7.5 3.358 7.5 7.5v15c0 4.142-3.358 7.5-7.5 7.5z" fill="#2a428c"/></g><g><path d="m333.5 75c-4.142 0-7.5-3.358-7.5-7.5v-15c0-4.142 3.358-7.5 7.5-7.5 4.142 0 7.5 3.358 7.5 7.5v15c0 4.142-3.358 7.5-7.5 7.5z" fill="#2a428c"/></g><g><path d="m303.5 75c-4.142 0-7.5-3.358-7.5-7.5v-15c0-4.142 3.358-7.5 7.5-7.5 4.142 0 7.5 3.358 7.5 7.5v15c0 4.142-3.358 7.5-7.5 7.5z" fill="#2a428c"/></g></g><g><g><path d="m456 275h-400c-11.046 0-20-8.954-20-20v-80c0-11.046 8.954-20 20-20h400c11.046 0 20 8.954 20 20v80c0 11.046-8.954 20-20 20z" fill="#4b6bb2"/></g><g><path d="m56 175h400v80h-400z" fill="#3c58a0"/></g><g><path d="m128.5 242.5c0-6.904 5.596-12.5 12.5-12.5v-30c-6.904 0-12.5-5.596-12.5-12.5s5.596-12.5 12.5-12.5h-85v80h85c-6.904 0-12.5-5.596-12.5-12.5z" fill="#2a428c"/></g><g><circle cx="96" cy="215" fill="#ff4155" r="15"/></g><g><path d="m96 215c0-5.549 3.021-10.382 7.5-12.977-2.208-1.279-4.765-2.023-7.5-2.023-8.284 0-15 6.716-15 15s6.716 15 15 15c2.735 0 5.292-.744 7.5-2.023-4.479-2.595-7.5-7.428-7.5-12.977z" fill="#e80054"/></g><g><circle cx="141" cy="215" fill="#ffdd40" r="15"/></g><g><path d="m141 215c0-5.549 3.021-10.382 7.5-12.977-2.208-1.279-4.765-2.023-7.5-2.023-8.284 0-15 6.716-15 15s6.716 15 15 15c2.735 0 5.292-.744 7.5-2.023-4.479-2.595-7.5-7.428-7.5-12.977z" fill="#ffb332"/></g><g><circle cx="186" cy="215" fill="#38c674" r="15"/></g><g><path d="m186 215c0-5.549 3.021-10.382 7.5-12.977-2.208-1.279-4.765-2.023-7.5-2.023-8.284 0-15 6.716-15 15s6.716 15 15 15c2.735 0 5.292-.744 7.5-2.023-4.479-2.595-7.5-7.428-7.5-12.977z" fill="#24b55e"/></g><g><path d="m423.5 230c-4.142 0-7.5-3.358-7.5-7.5v-15c0-4.142 3.358-7.5 7.5-7.5 4.142 0 7.5 3.358 7.5 7.5v15c0 4.142-3.358 7.5-7.5 7.5z" fill="#2a428c"/></g></g><g><path d="m208.22 320.996h256.053c16.623-30.231 18.501-57.159 7.595-77.103-9.72-17.75-26.67-36.47-35.39-45.54-2.7-2.82-7.48-1.24-7.96 2.64-3.07 24.61 23.71 58.82-4.99 79.63-32.08 23.24-59.35-.93-46.33-30.68 13.01-29.75 28.51-63.84 13.01-97.93-10.66-23.45-30.71-45.73-42.18-67.48-3.83-7.26-6.7-14.47-7.95-21.64-.64-3.66-5.09-5.18-7.76-2.61-3.11 2.99-6.58 7.47-8.89 13.87-2.91 8.03-4 19.08-.31 34.02 10.23 41.37 33.94 72.97 5.12 89.71-28.82 16.73-42.3-18.13-33.94-36.72 4.08-9.06 2.42-17.9-.35-24.58-1.69-4.07-7.61-3.73-8.78.52-2.64 9.62-9.25 23.82-25.73 38.47-29.28 26.03 14.41 59.49 16.27 85.52 1.73 24.23-31.56 37.18-48.55 8.15-1.83-3.13-6.33-3.14-8.09.03-4.98 9-12.14 25.69-11.22 46.21.085 1.897.21 3.731.372 5.513z" fill="#ffb332"/></g><g><g><path d="m456 430h-400c-11.046 0-20-8.954-20-20v-80c0-11.046 8.954-20 20-20h400c11.046 0 20 8.954 20 20v80c0 11.046-8.954 20-20 20z" fill="#4b6bb2"/></g><g><path d="m56 330h400v80h-400z" fill="#3c58a0"/></g><g><path d="m128.5 397.5c0-6.904 5.596-12.5 12.5-12.5v-30c-6.904 0-12.5-5.596-12.5-12.5s5.596-12.5 12.5-12.5h-85v80h85c-6.904 0-12.5-5.596-12.5-12.5z" fill="#2a428c"/></g><g><circle cx="96" cy="370" fill="#ff4155" r="15"/></g><g><path d="m96 370c0-5.549 3.021-10.382 7.5-12.977-2.208-1.279-4.765-2.023-7.5-2.023-8.284 0-15 6.716-15 15s6.716 15 15 15c2.735 0 5.292-.744 7.5-2.023-4.479-2.595-7.5-7.428-7.5-12.977z" fill="#e80054"/></g><g><circle cx="141" cy="370" fill="#ffdd40" r="15"/></g><g><path d="m141 370c0-5.549 3.021-10.382 7.5-12.977-2.208-1.279-4.765-2.023-7.5-2.023-8.284 0-15 6.716-15 15s6.716 15 15 15c2.735 0 5.292-.744 7.5-2.023-4.479-2.595-7.5-7.428-7.5-12.977z" fill="#ffb332"/></g><g><circle cx="186" cy="370" fill="#38c674" r="15"/></g><g><path d="m186 370c0-5.549 3.021-10.382 7.5-12.977-2.208-1.279-4.765-2.023-7.5-2.023-8.284 0-15 6.716-15 15s6.716 15 15 15c2.735 0 5.292-.744 7.5-2.023-4.479-2.595-7.5-7.428-7.5-12.977z" fill="#24b55e"/></g><g><path d="m423.5 385c-4.142 0-7.5-3.358-7.5-7.5v-15c0-4.142 3.358-7.5 7.5-7.5 4.142 0 7.5 3.358 7.5 7.5v15c0 4.142-3.358 7.5-7.5 7.5z" fill="#2a428c"/></g><g><path d="m393.5 385c-4.142 0-7.5-3.358-7.5-7.5v-15c0-4.142 3.358-7.5 7.5-7.5 4.142 0 7.5 3.358 7.5 7.5v15c0 4.142-3.358 7.5-7.5 7.5z" fill="#2a428c"/></g><g><path d="m363.5 385c-4.142 0-7.5-3.358-7.5-7.5v-15c0-4.142 3.358-7.5 7.5-7.5 4.142 0 7.5 3.358 7.5 7.5v15c0 4.142-3.358 7.5-7.5 7.5z" fill="#2a428c"/></g><g><path d="m333.5 385c-4.142 0-7.5-3.358-7.5-7.5v-15c0-4.142 3.358-7.5 7.5-7.5 4.142 0 7.5 3.358 7.5 7.5v15c0 4.142-3.358 7.5-7.5 7.5z" fill="#2a428c"/></g><g><path d="m303.5 385c-4.142 0-7.5-3.358-7.5-7.5v-15c0-4.142 3.358-7.5 7.5-7.5 4.142 0 7.5 3.358 7.5 7.5v15c0 4.142-3.358 7.5-7.5 7.5z" fill="#fff"/><path d="m303.5 385.5c-4.411 0-8-3.589-8-8v-15c0-4.411 3.589-8 8-8s8 3.589 8 8v15c0 4.411-3.589 8-8 8zm0-30c-3.859 0-7 3.141-7 7v15c0 3.859 3.141 7 7 7s7-3.141 7-7v-15c0-3.859-3.141-7-7-7z"/></g></g><g><path d="m361.271 453.983c-.861-3.833-5.641-5.128-8.356-2.296-3.841 4.011-10.164 5.912-19.971-3.142-19.125-17.651-25.991-40.709-16.185-87.3 6.052-28.738-.582-47.397-6.564-57.483-2.188-3.701-7.735-3.034-8.953 1.094-5.501 18.574-22.872 47.405-41.539 24.998-15.921-19.11-14.757-52.138-12.569-70.471.163-1.342.326-2.607.489-3.778.566-4.019-3.732-6.952-7.254-4.95-18.24 10.358-29.273 24.137-35.162 40.089-8.271 22.337-6.463 48.949-.271 76.391 11.281 50.027-10.792 97.106-35.806 91.714-4.161-.899-7.848-2.363-11.103-4.181-5.159-2.882-11.37 1.488-10.508 7.333 1.458 9.882 3.67 19.516 6.529 28.868 31.242 13.581 65.712 21.131 101.952 21.131 38.772 0 75.519-8.639 108.451-24.068.552-13.527-1.305-25.605-3.18-33.949z" fill="#ffdd40"/></g></g></svg>