<svg id="Capa_1" enable-background="new 0 0 512 512" height="512" viewBox="0 0 512 512" width="512" xmlns="http://www.w3.org/2000/svg"><g><g><circle cx="256" cy="256" fill="#ffdd40" r="256"/></g><g><g><g><path d="m311.779 51.14c-3.095-3.095-4.897-7.449-4.606-12.161l1.491-24.14c.539-8.717 8.041-15.347 16.758-14.809 8.717.539 15.347 8.041 14.809 16.758l-1.491 24.14c-.539 8.717-8.041 15.347-16.758 14.809-4.006-.247-7.572-1.966-10.203-4.597z" fill="#112360"/></g></g><g><g><path d="m269.204 93.706c-6.175-6.175-6.175-16.188 0-22.364l42.57-42.57c6.175-6.175 16.188-6.175 22.363 0s6.175 16.188 0 22.364l-42.57 42.57c-6.175 6.175-16.187 6.175-22.363 0z" fill="#1c2e7a"/></g></g><g><g><path d="m301.326 210.654c-1.875-1.875-3.302-4.246-4.055-6.984l-32.134-116.957c-2.314-8.421 2.638-17.124 11.059-19.438 8.423-2.314 17.124 2.638 19.438 11.059l32.134 116.956c2.314 8.421-2.638 17.124-11.059 19.438-5.682 1.562-11.494-.185-15.383-4.074z" fill="#2a428c"/></g></g><g><g><path d="m35.433 180.246c-3.999-3.999-5.716-10.017-3.951-15.804 2.546-8.354 11.383-13.062 19.738-10.516l23.629 7.204c8.353 2.549 13.061 11.385 10.515 19.738-2.547 8.354-11.384 13.061-19.738 10.515l-23.629-7.204c-2.567-.782-4.791-2.159-6.564-3.933z" fill="#112360"/></g></g><g><g><path d="m59.05 187.44c-1.288-1.288-2.373-2.822-3.18-4.573-3.65-7.934-.178-17.325 7.756-20.976l118.459-54.509c7.933-3.651 17.322-.181 20.976 7.756 3.65 7.934.178 17.325-7.756 20.976l-118.459 54.509c-6.182 2.845-13.25 1.363-17.796-3.183z" fill="#1c2e7a"/></g></g><g><g><path d="m278.291 233.707-100.778-100.777c-6.175-6.175-6.175-16.188 0-22.364s16.188-6.175 22.364 0l100.778 100.778c6.175 6.175 6.175 16.188 0 22.364s-16.189 6.175-22.364-.001z" fill="#2a428c"/></g></g><g><g><path d="m4.631 376.343c-2.861-2.862-4.631-6.816-4.631-11.182-.001-8.734 7.08-15.814 15.813-15.813h29.818c8.733 0 15.813 7.08 15.813 15.813.001 8.734-7.08 15.814-15.813 15.813h-29.818c-4.366 0-8.32-1.77-11.182-4.631z" fill="#112360"/></g></g><g><g><path d="m34.455 376.354c-4.16-4.16-5.822-10.484-3.751-16.409l48.058-137.512c2.881-8.245 11.901-12.593 20.145-9.711 8.247 2.884 12.593 11.9 9.711 20.145l-48.059 137.511c-2.881 8.245-11.901 12.593-20.145 9.711-2.32-.81-4.331-2.107-5.959-3.735z" fill="#1c2e7a"/></g></g><g><g><path d="m82.508 238.831c-2.92-2.92-4.699-6.972-4.631-11.427.135-8.733 7.324-15.702 16.056-15.567l176.18 2.728c8.734.136 15.701 7.323 15.567 16.056-.135 8.733-7.324 15.702-16.056 15.567l-176.18-2.728c-4.277-.067-8.132-1.826-10.936-4.629z" fill="#2a428c"/></g></g><g><g><path d="m370.945 74.397c-6.175-6.175-6.175-16.188 0-22.364l24.679-24.679c6.175-6.175 16.188-6.175 22.363 0s6.175 16.188 0 22.364l-24.679 24.679c-6.175 6.176-16.188 6.176-22.363 0z" fill="#112360"/></g></g><g><g><path d="m377.239 134.747c-2.474-2.474-4.147-5.782-4.539-9.534l-6.301-60.355c-.907-8.686 5.4-16.463 14.086-17.37 8.685-.907 16.462 5.399 17.37 14.086l6.301 60.355c.907 8.686-5.4 16.463-14.086 17.37-4.935.515-9.577-1.297-12.831-4.552z" fill="#2a428c"/></g></g><g><g><path d="m460.86 200.221c-2.631-2.631-4.35-6.196-4.597-10.203-.539-8.717 6.092-16.219 14.809-16.758l24.14-1.491c8.716-.538 16.219 6.089 16.758 14.809.539 8.717-6.092 16.219-14.809 16.758l-24.14 1.491c-4.711.291-9.067-1.512-12.161-4.606z" fill="#112360"/></g></g><g><g><path d="m418.294 242.796c-6.175-6.175-6.175-16.188 0-22.364l42.57-42.57c6.175-6.175 16.188-6.175 22.363 0s6.175 16.188 0 22.364l-42.57 42.57c-6.174 6.175-16.187 6.175-22.363 0z" fill="#1c2e7a"/></g></g><g><g><path d="m301.346 210.674c-3.89-3.89-5.637-9.7-4.075-15.384 2.315-8.421 11.017-13.373 19.439-11.059l116.956 32.134c8.421 2.314 13.374 11.017 11.059 19.438s-11.017 13.373-19.438 11.059l-116.957-32.133c-2.738-.753-5.11-2.181-6.984-4.055z" fill="#2a428c"/></g></g><g><g><path d="m331.754 476.567c-1.774-1.774-3.15-3.996-3.933-6.563l-7.204-23.629c-2.546-8.354 2.161-17.191 10.515-19.738 8.354-2.546 17.19 2.164 19.738 10.515l7.204 23.629c2.546 8.354-2.161 17.191-10.516 19.738-5.786 1.764-11.805.047-15.804-3.952z" fill="#112360"/></g></g><g><g><path d="m324.56 452.95c-4.547-4.547-6.027-11.613-3.183-17.796l54.509-118.459c3.651-7.934 13.042-11.406 20.976-7.756 7.934 3.655 11.405 13.042 7.756 20.976l-54.509 118.459c-3.651 7.934-13.042 11.406-20.976 7.756-1.751-.807-3.285-1.892-4.573-3.18z" fill="#1c2e7a"/></g></g><g><g><path d="m379.07 334.487-100.777-100.778c-6.175-6.175-6.175-16.188 0-22.364s16.188-6.175 22.363 0l100.778 100.778c6.175 6.175 6.175 16.188 0 22.364s-16.188 6.175-22.364 0z" fill="#2a428c"/></g></g><g><g><path d="m135.657 507.369c-2.862-2.862-4.631-6.815-4.631-11.182v-29.818c-.001-8.734 7.08-15.814 15.813-15.813 8.733 0 15.813 7.08 15.813 15.813v29.818c.001 8.734-7.08 15.814-15.813 15.813-4.366 0-8.32-1.77-11.182-4.631z" fill="#112360"/></g></g><g><g><path d="m135.646 477.545c-1.628-1.628-2.925-3.64-3.735-5.96-2.881-8.244 1.466-17.263 9.711-20.145l137.512-48.058c8.244-2.881 17.265 1.465 20.145 9.711 2.881 8.244-1.466 17.263-9.711 20.145l-137.512 48.058c-5.924 2.071-12.25.409-16.41-3.751z" fill="#1c2e7a"/></g></g><g><g><path d="m273.169 429.492c-2.804-2.804-4.563-6.658-4.629-10.936l-2.728-176.18c-.135-8.732 6.834-15.921 15.567-16.056 8.734-.136 15.92 6.835 16.056 15.567l2.728 176.18c.135 8.732-6.834 15.921-15.567 16.056-4.454.068-8.508-1.712-11.427-4.631z" fill="#2a428c"/></g></g><g><g><path d="m437.603 141.055c-6.175-6.175-6.175-16.188 0-22.364l24.679-24.679c6.175-6.175 16.188-6.175 22.364 0s6.175 16.188 0 22.364l-24.679 24.679c-6.176 6.176-16.189 6.176-22.364 0z" fill="#1c2e7a"/></g></g><g><g><path d="m377.253 134.761c-3.255-3.255-5.067-7.896-4.552-12.831.907-8.686 8.683-14.993 17.37-14.086l60.355 6.301c8.687.908 14.992 8.683 14.086 17.37-.907 8.686-8.683 14.993-17.37 14.086l-60.355-6.301c-3.751-.391-7.059-2.064-9.534-4.539z" fill="#2a428c"/></g></g><g><path d="m412.411 99.591c-8.762-8.762-22.363-10.437-32.989-4.061l-56.465 33.879 59.636 59.636 33.879-56.465c6.376-10.626 4.701-24.227-4.061-32.989z" fill="#1c2e7a"/></g><g><path d="m363.591 151.255-2.846-2.846c-32.15-32.15-84.276-32.15-116.426 0l119.272 119.272c32.15-32.15 32.15-84.276 0-116.426z" fill="#3c58a0"/></g><g><path d="m384.331 186.098c-3.763-12.755-10.675-24.778-20.74-34.843l-2.846-2.846c-32.15-32.15-84.276-32.15-116.426 0l58.43 58.43c22.085-22.085 53.595-28.998 81.582-20.741z" fill="#2a428c"/></g><g><path d="m148.521 363.48c-41.17-41.17-41.17-107.92 0-149.09l74.545-74.545c8.234-8.234 21.584-8.234 29.818 0l119.272 119.272c8.234 8.234 8.234 21.584 0 29.818l-74.545 74.545c-41.17 41.17-107.92 41.17-149.09 0z" fill="#4b6bb2"/></g><g><path d="m189.737 255.606 74.545-74.545c8.234-8.234 21.584-8.234 29.818 0l-41.216-41.216c-8.234-8.234-21.584-8.234-29.818 0l-74.545 74.545c-41.17 41.17-41.17 107.92 0 149.09 7.152 7.152 15.089 13.032 23.517 17.699-22.199-40.086-16.319-91.556 17.699-125.573z" fill="#3c58a0"/></g><g><circle cx="361.639" cy="106.067" fill="#4b6bb2" r="15.813"/></g><g><circle cx="369.952" cy="97.754" fill="#fff" r="7.5"/></g><g><circle cx="405.935" cy="150.363" fill="#4b6bb2" r="15.813"/></g><g><circle cx="234.247" cy="277.753" fill="#3c58a0" r="15.813"/></g><g><path d="m301.339 277.754-67.091-67.091c-6.176-6.176-6.176-16.188 0-22.363 6.176-6.176 16.188-6.176 22.363 0l67.091 67.091c6.176 6.176 6.176 16.188 0 22.363-6.175 6.175-16.188 6.175-22.363 0z" fill="#3c58a0"/></g><g><circle cx="414.249" cy="142.05" fill="#fff" r="7.5"/></g></g></g></svg>