<svg id="Capa_1" enable-background="new 0 0 512 512" height="512" viewBox="0 0 512 512" width="512" xmlns="http://www.w3.org/2000/svg"><g><g><circle cx="256" cy="256" fill="#4fabf7" r="256"/></g><g><g><path d="m205.013 306.987c60.614 60.614 161.51 50.709 209.179-20.535l95.742-143.092c3.248-4.854 2.613-11.328-1.518-15.458-4.722-4.722-12.349-4.79-17.151-.15-20.361 19.673-74.526 62.369-121.956 14.939s-4.734-101.594 14.939-121.956c4.64-4.802 4.571-12.43-.15-17.151-4.13-4.13-10.603-4.766-15.458-1.518l-143.092 95.742c-71.244 47.669-81.149 148.565-20.535 209.179z" fill="#e80054"/></g><g><path d="m97.528 206.783h276.345v139.034h-276.345z" fill="#d3dcfb" transform="matrix(.707 -.707 .707 .707 -126.339 247.592)"/></g><g><path d="m176.035 455.535 35.033-35.033c5.87-5.87 5.87-15.387 0-21.257l-98.313-98.313c-5.87-5.87-15.387-5.87-21.257 0l-35.033 35.033c-33.018 33.018-33.018 86.551 0 119.57 33.019 33.018 86.552 33.018 119.57 0z" fill="#ff4155"/></g><g><path d="m336.326 77.362 98.313 98.313c5.87 5.87 5.87 15.387 0 21.257l-65.365 65.365c-5.87 5.87-15.387 5.87-21.257 0l-98.313-98.313c-5.87-5.87-5.87-15.387 0-21.257l65.365-65.365c5.87-5.87 15.387-5.87 21.257 0z" fill="#fff"/></g><g><path d="m89.029 368.529 35.033-35.033c5.87-5.87 15.387-5.87 21.257 0l-32.564-32.564c-5.87-5.87-15.387-5.87-21.257 0l-35.033 35.033c-33.018 33.018-33.018 86.551 0 119.57 5.647 5.647 11.903 10.304 18.545 14.019-18.009-32.194-13.353-73.654 14.019-101.025z" fill="#e80054"/></g><g><path d="m282.268 175.29 65.365-65.365c5.87-5.87 15.387-5.87 21.257 0l-32.564-32.564c-5.87-5.87-15.387-5.87-21.257 0l-65.365 65.365c-5.87 5.87-5.87 15.387 0 21.257l32.564 32.564c-5.87-5.87-5.87-15.387 0-21.257z" fill="#e9efff"/></g><g><path d="m224.54 189.147 98.313 98.313c5.87 5.87 5.87 15.387 0 21.257l-65.365 65.365c-5.87 5.87-15.387 5.87-21.257 0l-98.313-98.313c-5.87-5.87-5.87-15.387 0-21.257l65.365-65.365c5.87-5.87 15.387-5.87 21.257 0z" fill="#fff"/></g><g><path d="m170.482 287.076 65.365-65.365c5.87-5.87 15.387-5.87 21.257 0l-32.564-32.564c-5.87-5.87-15.387-5.87-21.257 0l-65.365 65.365c-5.87 5.87-5.87 15.387 0 21.257l32.564 32.564c-5.87-5.87-5.87-15.387 0-21.257z" fill="#e9efff"/></g><g><path d="m199.032 336.882 247.225-247.225c6.604-6.604 6.604-17.31 0-23.914-6.604-6.604-17.31-6.604-23.914 0l-247.561 247.562c-7.247 7.247-6.541 19.435 2.118 25.72 6.411 4.652 16.531 3.458 22.132-2.143z" fill="#ff4155"/></g><g><path d="m310.519 201.481c6.604 6.604 6.604 17.31 0 23.914l135.738-135.738c6.604-6.604 6.604-17.31 0-23.914-6.604-6.604-17.31-6.604-23.914 0l-135.738 135.738c6.604-6.604 17.31-6.604 23.914 0z" fill="#e80054"/></g></g></g></svg>