<svg id="Capa_1" enable-background="new 0 0 512 512" height="512" viewBox="0 0 512 512" width="512" xmlns="http://www.w3.org/2000/svg"><g><g><path d="m256 0c-141.385 0-256 114.615-256 256 0 26.597 4.059 52.246 11.586 76.363l170.597 168.814c23.376 7.029 48.151 10.823 73.817 10.823 141.385 0 256-114.615 256-256s-114.615-256-256-256z" fill="#49d88b"/></g><g><g><path d="m414.218 210.919-113.137-113.137 91.924-91.924c7.81-7.81 20.474-7.81 28.284 0l84.853 84.853c7.81 7.81 7.81 20.474 0 28.284z" fill="#e9efff"/></g><g><path d="m456.645 41.213-35.356-35.355c-7.81-7.81-20.474-7.81-28.284 0l-91.924 91.924 35.355 35.355 91.924-91.924c7.811-7.81 20.474-7.81 28.285 0z" fill="#d3dcfb"/></g><g><path d="m460.18 94.246c5.858 5.858 5.858 15.355 0 21.213l-21.213 21.213c-5.858 5.858-15.355 5.858-21.213 0-5.858-5.858-5.858-15.355 0-21.213l21.213-21.213c5.858-5.858 15.355-5.858 21.213 0z" fill="#bec8f7"/></g><g><path d="m417.754 51.82c5.858 5.858 5.858 15.355 0 21.213l-21.213 21.213c-5.858 5.858-15.355 5.858-21.213 0-5.858-5.858-5.858-15.355 0-21.213l21.213-21.213c5.857-5.858 15.355-5.858 21.213 0z" fill="#bec8f7"/></g><g><path d="m400.904 240.031-127.28-127.28 28.284-28.284c3.905-3.905 10.237-3.905 14.142 0l113.137 113.137c3.905 3.905 3.905 10.237 0 14.142z" fill="#2a428c"/></g><g><path d="m351.406 119.822-35.355-35.355c-3.905-3.905-10.237-3.905-14.142 0l-28.284 28.284 35.355 35.355 28.284-28.284c3.905-3.905 10.237-3.905 14.142 0z" fill="#1c2e7a"/></g><g><path d="m273.624 98.609c-7.81-7.81-20.474-7.81-28.284 0l-233.754 233.754c25.223 80.814 89.426 144.409 170.597 168.814l232.863-232.863c7.811-7.811 7.811-20.474 0-28.284z" fill="#3c58a0"/></g><g><path d="m245.34 98.609-233.754 233.754c5.822 18.653 13.732 36.382 23.436 52.932l248.502-248.502c7.81-7.811 20.474-7.811 28.284 0l-38.184-38.184c-7.81-7.81-20.473-7.81-28.284 0z" fill="#2a428c"/></g><g><g><g><path d="m236.44 408.071h-.047c-2.526.002-4.592-2.062-4.592-4.588v-206.14c0-2.526 2.066-4.59 4.592-4.588h.047c15.963 0 28.787-13.435 27.782-29.615-.887-14.275-12.808-25.713-27.107-26.052-5.393-.128-10.447 1.279-14.758 3.814-5.601 3.293-12.63 3.293-18.231 0-4.312-2.535-9.366-3.942-14.759-3.814-14.299.339-26.22 11.778-27.106 26.053-1.005 16.179 11.82 29.614 27.782 29.614h.047c2.526-.002 4.592 2.062 4.592 4.588v206.14c0 2.526-2.066 4.59-4.592 4.588h-.047c-15.963 0-28.787 13.435-27.782 29.615.887 14.275 12.808 25.713 27.107 26.052 5.393.128 10.447-1.279 14.758-3.814 5.601-3.293 12.63-3.293 18.231 0 4.312 2.535 9.366 3.942 14.759 3.814 14.299-.339 26.22-11.778 27.106-26.053 1.005-16.179-11.819-29.614-27.782-29.614z" fill="#e9efff"/></g><g><path d="m208.317 435.932c0-15.046 11.806-27.334 26.66-28.107-1.834-.601-3.176-2.313-3.176-4.341v-206.14c0-2.021 1.332-3.727 3.155-4.335-14.844-.783-26.639-13.066-26.639-28.106 0-9.425 4.637-17.762 11.75-22.871-5.145 2.102-11.08 1.728-15.94-1.13-4.312-2.535-9.366-3.942-14.759-3.814-14.299.339-26.22 11.777-27.106 26.053-1.005 16.179 11.82 29.614 27.782 29.614h.047c2.526-.002 4.592 2.062 4.592 4.588v206.14c0 2.526-2.066 4.59-4.592 4.588h-.047c-15.963 0-28.787 13.435-27.782 29.615.887 14.275 12.808 25.713 27.107 26.052 5.393.128 10.447-1.279 14.758-3.814 4.852-2.853 10.776-3.23 15.915-1.139-7.099-5.11-11.725-13.439-11.725-22.853z" fill="#d3dcfb"/></g><g><path d="m105.584 323.611v-.047c-.002-2.526 2.062-4.592 4.588-4.592h206.14c2.526 0 4.59 2.066 4.588 4.592v.047c0 15.962 13.435 28.787 29.615 27.782 14.275-.887 25.713-12.808 26.052-27.107.128-5.393-1.279-10.447-3.814-14.758-3.293-5.601-3.293-12.63 0-18.231 2.535-4.312 3.942-9.366 3.814-14.759-.339-14.299-11.778-26.22-26.053-27.106-16.179-1.005-29.614 11.82-29.614 27.782v.047c.002 2.526-2.062 4.592-4.588 4.592h-206.14c-2.526 0-4.59-2.066-4.588-4.592v-.047c0-15.963-13.435-28.787-29.615-27.782-14.275.887-25.713 12.808-26.052 27.107-.128 5.393 1.279 10.447 3.814 14.758 3.293 5.601 3.293 12.63 0 18.231-2.535 4.312-3.942 9.366-3.814 14.759.339 14.299 11.778 26.22 26.053 27.106 16.179 1.004 29.614-11.82 29.614-27.782z" fill="#e9efff"/></g><g><path d="m77.723 295.487c15.046 0 27.334 11.806 28.107 26.66.601-1.834 2.313-3.176 4.341-3.176h206.14c2.021 0 3.727 1.332 4.335 3.155.783-14.844 13.066-26.639 28.106-26.639 9.425 0 17.762 4.637 22.871 11.75-2.102-5.145-1.728-11.08 1.13-15.94 2.535-4.312 3.942-9.366 3.814-14.759-.339-14.299-11.777-26.22-26.053-27.106-16.179-1.005-29.614 11.82-29.614 27.782v.047c.002 2.526-2.062 4.592-4.588 4.592h-206.14c-2.526 0-4.59-2.066-4.588-4.592v-.047c0-15.963-13.435-28.787-29.615-27.782-14.275.887-25.713 12.808-26.052 27.107-.128 5.393 1.279 10.447 3.814 14.758 2.853 4.852 3.23 10.776 1.139 15.915 5.11-7.098 13.439-11.725 22.853-11.725z" fill="#d3dcfb"/></g></g><g><g><path d="m242.333 369.432c10.674-3.775 20.682-9.978 29.161-18.614 29.625-30.173 29.394-78.251-.506-108.152-30.006-30.006-78.656-30.006-108.662 0-8.37 8.37-14.403 18.193-18.104 28.655-5.837-.6-11.885 1.334-16.358 5.806-7.887 7.887-7.887 20.675 0 28.563l13.971 13.971c2.572 2.572 2.572 6.742 0 9.314l-3.105 3.105c-2.572 2.572-2.572 6.742 0 9.314l33.53 33.53c2.572 2.572 6.742 2.572 9.314 0l3.105-3.105c2.572-2.572 6.742-2.572 9.314 0l13.971 13.971c7.887 7.887 20.675 7.887 28.563 0 4.473-4.472 6.406-10.521 5.806-16.358z" fill="#fff"/></g><g><path d="m242.333 369.432c.001 0 .002-.001.003-.001-15.797-2.306-31.014-9.537-43.17-21.693-30.006-30.006-30.006-78.656 0-108.662 8.37-8.37 18.191-14.402 28.652-18.103-23.195-3.387-47.642 3.843-65.492 21.693-8.37 8.37-14.403 18.193-18.104 28.655-5.837-.6-11.885 1.334-16.358 5.806-7.887 7.887-7.887 20.675 0 28.563l13.971 13.971c2.572 2.572 2.572 6.742 0 9.314l-3.105 3.105c-2.572 2.572-2.572 6.742 0 9.314l33.53 33.53c2.572 2.572 6.742 2.572 9.314 0l3.105-3.105c2.572-2.572 6.742-2.572 9.314 0l13.971 13.971c7.887 7.887 20.675 7.887 28.563 0 4.473-4.472 6.406-10.521 5.806-16.358z" fill="#e9efff"/></g><g><circle cx="233.335" cy="331.244" fill="#d3dcfb" r="21.099"/></g><g><circle cx="183.469" cy="281.378" fill="#d3dcfb" r="21.099"/></g></g></g></g></g></svg>