<svg id="Capa_1" enable-background="new 0 0 512 512" height="512" viewBox="0 0 512 512" width="512" xmlns="http://www.w3.org/2000/svg"><g><g><path d="m256 0c-71.212 0-135.623 29.085-182.028 76.014l61.686 405.977c35.876 19.144 76.838 30.009 120.342 30.009 141.385 0 256-114.615 256-256s-114.615-256-256-256z" fill="#49d88b"/></g><g><path d="m512 421v46c0 8.28-6.72 15-15 15h-361.34c-22.85-12.19-43.63-27.74-61.69-46-4.77-4.82-9.34-9.82-13.71-15z" fill="#d3dcfb"/></g><g><path d="m376.298 436v-15h-316.038c4.37 5.18 8.94 10.18 13.71 15 18.06 18.26 38.84 33.81 61.69 46h240.638c-12.703 0-23-10.297-23-23s10.297-23 23-23z" fill="#bec8f7"/></g><g><path d="m512 91v330c0 8.28-6.72 15-15 15h-423.03c-4.77-4.82-9.34-9.82-13.71-15-37.59-44.56-60.26-102.14-60.26-165 0-70.17 28.24-133.75 73.97-180h423.03c8.28 0 15 6.72 15 15z" fill="#e9efff"/></g><g><path d="m53.143 145c2.761 0 5-2.239 5-5v-44c0-.694-.142-1.354-.398-1.955-12.731 15.566-23.673 32.652-32.494 50.955z" fill="#d3dcfb"/></g><g><path d="m78.143 91h48.143c2.761 0 5 2.239 5 5v44c0 2.761-2.239 5-5 5h-48.143c-2.761 0-5-2.239-5-5v-44c0-2.761 2.238-5 5-5z" fill="#d3dcfb"/></g><g><path d="m151.286 91h48.143c2.761 0 5 2.239 5 5v44c0 2.761-2.239 5-5 5h-48.143c-2.761 0-5-2.239-5-5v-44c0-2.761 2.238-5 5-5z" fill="#d3dcfb"/></g><g><path d="m224.429 91h48.143c2.761 0 5 2.239 5 5v44c0 2.761-2.239 5-5 5h-48.143c-2.761 0-5-2.239-5-5v-44c0-2.761 2.238-5 5-5z" fill="#d3dcfb"/></g><g><path d="m297.571 91h48.143c2.761 0 5 2.239 5 5v44c0 2.761-2.239 5-5 5h-48.143c-2.761 0-5-2.239-5-5v-44c0-2.761 2.239-5 5-5z" fill="#d3dcfb"/></g><g><path d="m370.714 91h48.143c2.761 0 5 2.239 5 5v44c0 2.761-2.239 5-5 5h-48.143c-2.761 0-5-2.239-5-5v-44c0-2.761 2.239-5 5-5z" fill="#d3dcfb"/></g><g><path d="m443.857 91h48.143c2.761 0 5 2.239 5 5v44c0 2.761-2.239 5-5 5h-48.143c-2.761 0-5-2.239-5-5v-44c0-2.761 2.239-5 5-5z" fill="#d3dcfb"/></g><g><path d="m53.143 214c2.761 0 5-2.239 5-5v-44c0-2.761-2.239-5-5-5h-34.515c-6.945 17.155-12.081 35.232-15.179 54z" fill="#d3dcfb"/></g><g><path d="m78.143 160h48.143c2.761 0 5 2.239 5 5v44c0 2.761-2.239 5-5 5h-48.143c-2.761 0-5-2.239-5-5v-44c0-2.761 2.238-5 5-5z" fill="#d3dcfb"/></g><g><path d="m151.286 160h48.143c2.761 0 5 2.239 5 5v44c0 2.761-2.239 5-5 5h-48.143c-2.761 0-5-2.239-5-5v-44c0-2.761 2.238-5 5-5z" fill="#d3dcfb"/></g><g><path d="m224.429 160h48.143c2.761 0 5 2.239 5 5v44c0 2.761-2.239 5-5 5h-48.143c-2.761 0-5-2.239-5-5v-44c0-2.761 2.238-5 5-5z" fill="#d3dcfb"/></g><g><path d="m297.571 160h48.143c2.761 0 5 2.239 5 5v44c0 2.761-2.239 5-5 5h-48.143c-2.761 0-5-2.239-5-5v-44c0-2.761 2.239-5 5-5z" fill="#d3dcfb"/></g><g><path d="m370.714 160h48.143c2.761 0 5 2.239 5 5v44c0 2.761-2.239 5-5 5h-48.143c-2.761 0-5-2.239-5-5v-44c0-2.761 2.239-5 5-5z" fill="#d3dcfb"/></g><g><path d="m443.857 160h48.143c2.761 0 5 2.239 5 5v44c0 2.761-2.239 5-5 5h-48.143c-2.761 0-5-2.239-5-5v-44c0-2.761 2.239-5 5-5z" fill="#d3dcfb"/></g><g><path d="m53.143 283c2.761 0 5-2.239 5-5v-44c0-2.761-2.239-5-5-5h-51.727c-.93 8.874-1.416 17.88-1.416 27s.486 18.126 1.416 27z" fill="#d3dcfb"/></g><g><path d="m78.143 229h48.143c2.761 0 5 2.239 5 5v44c0 2.761-2.239 5-5 5h-48.143c-2.761 0-5-2.239-5-5v-44c0-2.761 2.238-5 5-5z" fill="#d3dcfb"/></g><g><path d="m151.286 229h48.143c2.761 0 5 2.239 5 5v44c0 2.761-2.239 5-5 5h-48.143c-2.761 0-5-2.239-5-5v-44c0-2.761 2.238-5 5-5z" fill="#d3dcfb"/></g><g><path d="m297.571 229h48.143c2.761 0 5 2.239 5 5v44c0 2.761-2.239 5-5 5h-48.143c-2.761 0-5-2.239-5-5v-44c0-2.761 2.239-5 5-5z" fill="#d3dcfb"/></g><g><path d="m370.714 229h48.143c2.761 0 5 2.239 5 5v44c0 2.761-2.239 5-5 5h-48.143c-2.761 0-5-2.239-5-5v-44c0-2.761 2.239-5 5-5z" fill="#d3dcfb"/></g><g><path d="m443.857 229h48.143c2.761 0 5 2.239 5 5v44c0 2.761-2.239 5-5 5h-48.143c-2.761 0-5-2.239-5-5v-44c0-2.761 2.239-5 5-5z" fill="#d3dcfb"/></g><g><path d="m53.143 298h-49.694c3.098 18.768 8.234 36.845 15.179 54h34.515c2.761 0 5-2.239 5-5v-44c0-2.761-2.239-5-5-5z" fill="#d3dcfb"/></g><g><path d="m78.143 298h48.143c2.761 0 5 2.239 5 5v44c0 2.761-2.239 5-5 5h-48.143c-2.761 0-5-2.239-5-5v-44c0-2.761 2.238-5 5-5z" fill="#d3dcfb"/></g><g><path d="m219.429 234v59c0 2.761-2.239 5-5 5h-63.143c-2.761 0-5 2.239-5 5v44c0 2.761 2.239 5 5 5h121.286c2.761 0 5-2.239 5-5v-113c0-2.761-2.239-5-5-5h-48.143c-2.762 0-5 2.239-5 5z" fill="#d3dcfb"/></g><g><path d="m297.571 298h48.143c2.761 0 5 2.239 5 5v44c0 2.761-2.239 5-5 5h-48.143c-2.761 0-5-2.239-5-5v-44c0-2.761 2.239-5 5-5z" fill="#d3dcfb"/></g><g><path d="m370.714 298h48.143c2.761 0 5 2.239 5 5v44c0 2.761-2.239 5-5 5h-48.143c-2.761 0-5-2.239-5-5v-44c0-2.761 2.239-5 5-5z" fill="#d3dcfb"/></g><g><path d="m443.857 298h48.143c2.761 0 5 2.239 5 5v113c0 2.761-2.239 5-5 5h-48.143c-2.761 0-5-2.239-5-5v-113c0-2.761 2.239-5 5-5z" fill="#d3dcfb"/></g><g><path d="m53.143 367h-27.892c8.821 18.303 19.763 35.389 32.494 50.955.255-.601.398-1.261.398-1.955v-44c0-2.761-2.239-5-5-5z" fill="#d3dcfb"/></g><g><path d="m78.143 367h48.143c2.761 0 5 2.239 5 5v44c0 2.761-2.239 5-5 5h-48.143c-2.761 0-5-2.239-5-5v-44c0-2.761 2.238-5 5-5z" fill="#d3dcfb"/></g><g><path d="m151.286 367h48.143c2.761 0 5 2.239 5 5v44c0 2.761-2.239 5-5 5h-48.143c-2.761 0-5-2.239-5-5v-44c0-2.761 2.238-5 5-5z" fill="#d3dcfb"/></g><g><path d="m224.429 367h48.143c2.761 0 5 2.239 5 5v44c0 2.761-2.239 5-5 5h-48.143c-2.761 0-5-2.239-5-5v-44c0-2.761 2.238-5 5-5z" fill="#d3dcfb"/></g><g><path d="m297.571 367h48.143c2.761 0 5 2.239 5 5v44c0 2.761-2.239 5-5 5h-48.143c-2.761 0-5-2.239-5-5v-44c0-2.761 2.239-5 5-5z" fill="#d3dcfb"/></g><g><path d="m370.714 367h48.143c2.761 0 5 2.239 5 5v44c0 2.761-2.239 5-5 5h-48.143c-2.761 0-5-2.239-5-5v-44c0-2.761 2.239-5 5-5z" fill="#d3dcfb"/></g><g><path d="m102.214 140v-44c0-2.761 2.239-5 5-5h-29.071c-2.761 0-5 2.239-5 5v44c0 2.761 2.239 5 5 5h29.071c-2.761 0-5-2.239-5-5z" fill="#bec8f7"/></g><g><path d="m102.214 209v-44c0-2.761 2.239-5 5-5h-29.071c-2.761 0-5 2.239-5 5v44c0 2.761 2.239 5 5 5h29.071c-2.761 0-5-2.239-5-5z" fill="#bec8f7"/></g><g><path d="m102.214 278v-44c0-2.761 2.239-5 5-5h-29.071c-2.761 0-5 2.239-5 5v44c0 2.761 2.239 5 5 5h29.071c-2.761 0-5-2.239-5-5z" fill="#bec8f7"/></g><g><path d="m102.214 347v-44c0-2.761 2.239-5 5-5h-29.071c-2.761 0-5 2.239-5 5v44c0 2.761 2.239 5 5 5h29.071c-2.761 0-5-2.239-5-5z" fill="#bec8f7"/></g><g><path d="m102.214 416v-44c0-2.761 2.239-5 5-5h-29.071c-2.761 0-5 2.239-5 5v44c0 2.761 2.239 5 5 5h29.071c-2.761 0-5-2.239-5-5z" fill="#bec8f7"/></g><g><path d="m175.357 140v-44c0-2.761 2.239-5 5-5h-29.071c-2.761 0-5 2.239-5 5v44c0 2.761 2.239 5 5 5h29.071c-2.761 0-5-2.239-5-5z" fill="#bec8f7"/></g><g><path d="m175.357 209v-44c0-2.761 2.239-5 5-5h-29.071c-2.761 0-5 2.239-5 5v44c0 2.761 2.239 5 5 5h29.071c-2.761 0-5-2.239-5-5z" fill="#bec8f7"/></g><g><path d="m175.357 278v-44c0-2.761 2.239-5 5-5h-29.071c-2.761 0-5 2.239-5 5v44c0 2.761 2.239 5 5 5h29.071c-2.761 0-5-2.239-5-5z" fill="#bec8f7"/></g><g><path d="m175.357 347v-44c0-2.761 2.239-5 5-5h-29.071c-2.761 0-5 2.239-5 5v44c0 2.761 2.239 5 5 5h29.071c-2.761 0-5-2.239-5-5z" fill="#bec8f7"/></g><g><path d="m175.357 416v-44c0-2.761 2.239-5 5-5h-29.071c-2.761 0-5 2.239-5 5v44c0 2.761 2.239 5 5 5h29.071c-2.761 0-5-2.239-5-5z" fill="#bec8f7"/></g><g><path d="m248.5 140v-44c0-2.761 2.239-5 5-5h-29.071c-2.761 0-5 2.239-5 5v44c0 2.761 2.239 5 5 5h29.071c-2.761 0-5-2.239-5-5z" fill="#bec8f7"/></g><g><path d="m248.5 209v-44c0-2.761 2.239-5 5-5h-29.071c-2.761 0-5 2.239-5 5v44c0 2.761 2.239 5 5 5h29.071c-2.761 0-5-2.239-5-5z" fill="#bec8f7"/></g><g><path d="m248.5 416v-44c0-2.761 2.239-5 5-5h-29.071c-2.761 0-5 2.239-5 5v44c0 2.761 2.239 5 5 5h29.071c-2.761 0-5-2.239-5-5z" fill="#bec8f7"/></g><g><path d="m321.643 140v-44c0-2.761 2.239-5 5-5h-29.071c-2.761 0-5 2.239-5 5v44c0 2.761 2.239 5 5 5h29.071c-2.762 0-5-2.239-5-5z" fill="#bec8f7"/></g><g><path d="m321.643 209v-44c0-2.761 2.239-5 5-5h-29.071c-2.761 0-5 2.239-5 5v44c0 2.761 2.239 5 5 5h29.071c-2.762 0-5-2.239-5-5z" fill="#bec8f7"/></g><g><path d="m321.643 278v-44c0-2.761 2.239-5 5-5h-29.071c-2.761 0-5 2.239-5 5v44c0 2.761 2.239 5 5 5h29.071c-2.762 0-5-2.239-5-5z" fill="#bec8f7"/></g><g><path d="m321.643 347v-44c0-2.761 2.239-5 5-5h-29.071c-2.761 0-5 2.239-5 5v44c0 2.761 2.239 5 5 5h29.071c-2.762 0-5-2.239-5-5z" fill="#bec8f7"/></g><g><path d="m321.643 416v-44c0-2.761 2.239-5 5-5h-29.071c-2.761 0-5 2.239-5 5v44c0 2.761 2.239 5 5 5h29.071c-2.762 0-5-2.239-5-5z" fill="#bec8f7"/></g><g><path d="m394.786 140v-44c0-2.761 2.239-5 5-5h-29.071c-2.761 0-5 2.239-5 5v44c0 2.761 2.239 5 5 5h29.071c-2.762 0-5-2.239-5-5z" fill="#bec8f7"/></g><g><path d="m394.786 209v-44c0-2.761 2.239-5 5-5h-29.071c-2.761 0-5 2.239-5 5v44c0 2.761 2.239 5 5 5h29.071c-2.762 0-5-2.239-5-5z" fill="#bec8f7"/></g><g><path d="m394.786 278v-44c0-2.761 2.239-5 5-5h-29.071c-2.761 0-5 2.239-5 5v44c0 2.761 2.239 5 5 5h29.071c-2.762 0-5-2.239-5-5z" fill="#bec8f7"/></g><g><path d="m394.786 347v-44c0-2.761 2.239-5 5-5h-29.071c-2.761 0-5 2.239-5 5v44c0 2.761 2.239 5 5 5h29.071c-2.762 0-5-2.239-5-5z" fill="#bec8f7"/></g><g><path d="m394.786 416v-44c0-2.761 2.239-5 5-5h-29.071c-2.761 0-5 2.239-5 5v44c0 2.761 2.239 5 5 5h29.071c-2.762 0-5-2.239-5-5z" fill="#bec8f7"/></g><g><path d="m467.929 140v-44c0-2.761 2.239-5 5-5h-29.071c-2.761 0-5 2.239-5 5v44c0 2.761 2.239 5 5 5h29.071c-2.762 0-5-2.239-5-5z" fill="#bec8f7"/></g><g><path d="m467.929 209v-44c0-2.761 2.239-5 5-5h-29.071c-2.761 0-5 2.239-5 5v44c0 2.761 2.239 5 5 5h29.071c-2.762 0-5-2.239-5-5z" fill="#bec8f7"/></g><g><path d="m467.929 278v-44c0-2.761 2.239-5 5-5h-29.071c-2.761 0-5 2.239-5 5v44c0 2.761 2.239 5 5 5h29.071c-2.762 0-5-2.239-5-5z" fill="#bec8f7"/></g><g><path d="m467.929 347v-44c0-2.761 2.239-5 5-5h-29.071c-2.761 0-5 2.239-5 5v44c0 2.761 2.239 5 5 5h29.071c-2.762 0-5-2.239-5-5z" fill="#bec8f7"/></g><g><path d="m467.929 416v-44c0-2.761 2.239-5 5-5h-29.071c-2.761 0-5 2.239-5 5v44c0 2.761 2.239 5 5 5h29.071c-2.762 0-5-2.239-5-5z" fill="#bec8f7"/></g><g><g><circle cx="256" cy="190" fill="#3c58a0" r="160"/></g><g><path d="m96 190c0 88.366 71.634 160 160 160 44.183 0 84.183-17.909 113.137-46.863-5.858 5.858-15.355 5.858-21.213 0s-5.858-15.355 0-21.213l-183.848-183.848c-5.858 5.858-15.355 5.858-21.213 0s-5.858-15.355 0-21.213c-28.954 28.954-46.863 68.954-46.863 113.137z" fill="#1c2e7a"/></g><g><circle cx="256" cy="190" fill="#ff7186" r="130"/></g><g><g><g><path d="m368.416 178.532c4.834 6.878 4.834 16.057 0 22.935-17.046 24.252-60.947 78.533-112.416 78.533s-95.37-54.281-112.416-78.532c-4.834-6.878-4.834-16.057 0-22.935 17.046-24.252 60.947-78.533 112.416-78.533s95.37 54.281 112.416 78.532z" fill="#fff"/></g></g><g><g><circle cx="256" cy="190" fill="#ff4155" r="60"/></g></g><g><g><circle cx="256" cy="190" fill="#e80054" r="40"/></g></g><g><g><circle cx="276" cy="170" fill="#ff7186" r="20"/></g></g></g></g></g></svg>