<svg id="Capa_1" enable-background="new 0 0 512 512" height="512" viewBox="0 0 512 512" width="512" xmlns="http://www.w3.org/2000/svg"><g><g><path d="m466 402.42c28.985-41.493 46-91.966 46-146.42 0-141.385-114.615-256-256-256s-256 114.615-256 256c0 54.454 17.015 104.927 46 146.42z" fill="#1c2e7a"/></g><g><g><g><path d="m119.032 13.045h273.936v163.057h-273.936z" fill="#d3dcfb"/></g><g><path d="m145.121 13.045h-26.089v163.057h273.936v-13.971h-98.76c-82.339 0-149.087-66.748-149.087-149.086z" fill="#bec8f7"/></g><g><path d="m132.077 189.146h247.847c7.204 0 13.045-5.84 13.045-13.045-8.319 0-16.264-3.458-21.933-9.547l-115.036-123.558-115.035 123.558c-5.669 6.089-13.614 9.547-21.933 9.547 0 7.205 5.84 13.045 13.045 13.045z" fill="#e9efff"/></g><g><path d="m371.035 166.554-4.118-4.423h-72.709c-41.973 0-79.888-17.352-106.982-45.266l-46.261 49.689c-5.669 6.089-13.614 9.547-21.933 9.547 0 7.204 5.84 13.045 13.045 13.045h247.847c7.204 0 13.045-5.84 13.045-13.045-8.32.001-16.265-3.458-21.934-9.547z" fill="#d3dcfb"/></g><g><path d="m379.923 0h-247.846c-7.204 0-13.045 5.84-13.045 13.045 8.51 0 16.833 2.492 23.942 7.17l89.084 58.608c14.53 9.559 33.354 9.559 47.884 0l89.084-58.608c7.109-4.677 15.432-7.17 23.942-7.17 0-7.205-5.84-13.045-13.045-13.045z" fill="#fff"/></g><g><path d="m145.384 21.799c-.168-2.898-.263-5.815-.263-8.755v-13.044h-13.045c-7.204 0-13.045 5.84-13.045 13.045 8.51 0 16.833 2.492 23.942 7.169z" fill="#e9efff"/></g></g><g><g><path d="m86.403 116.152h339.195v201.902h-339.195z" fill="#d3dcfb"/></g><g><path d="m118.707 116.152h-32.304v201.902h339.195v-17.299h-122.288c-101.954 0-184.603-82.649-184.603-184.603z" fill="#bec8f7"/></g><g><path d="m102.555 334.206h306.891c8.921 0 16.152-7.232 16.152-16.152-10.301 0-20.139-4.282-27.158-11.822l-142.44-152.994-142.439 152.994c-7.019 7.54-16.857 11.822-27.158 11.822 0 8.92 7.231 16.152 16.152 16.152z" fill="#e9efff"/></g><g><path d="m398.439 306.232-5.099-5.477h-90.03c-51.972 0-98.919-21.486-132.467-56.049l-57.281 61.526c-7.019 7.539-16.857 11.822-27.158 11.822 0 8.921 7.232 16.152 16.152 16.152h306.891c8.921 0 16.152-7.232 16.152-16.152-10.303 0-20.141-4.283-27.16-11.822z" fill="#d3dcfb"/></g><g><path d="m409.445 100h-306.89c-8.921 0-16.152 7.232-16.152 16.152 10.537 0 20.843 3.086 29.646 8.877l110.306 72.569c17.992 11.837 41.3 11.837 59.292 0l110.306-72.569c8.803-5.791 19.109-8.877 29.646-8.877-.002-8.92-7.233-16.152-16.154-16.152z" fill="#fff"/></g><g><path d="m119.032 126.993c-.208-3.588-.325-7.2-.325-10.84v-16.153h-16.152c-8.921 0-16.152 7.232-16.152 16.152 10.537 0 20.843 3.086 29.646 8.877z" fill="#e9efff"/></g></g><g><g><path d="m46 260v142.42c16.925 24.229 37.946 45.378 62.042 62.478h295.917c24.095-17.1 45.116-38.249 62.042-62.478v-142.42z" fill="#d3dcfb"/></g><g><path d="m108.042 464.898h105.142c-75.366-37.368-127.184-115.075-127.184-204.898h-40v142.42c16.925 24.229 37.946 45.378 62.042 62.478z" fill="#bec8f7"/></g><g><path d="m256 305.921-148.01 158.977c41.789 29.662 92.863 47.102 148.01 47.102s106.221-17.44 148.01-47.102z" fill="#e9efff"/></g><g><path d="m256 512c38.232 0 74.498-8.395 107.079-23.42h-48.499c-64.353 0-122.484-26.604-164.025-69.401l-42.565 45.719c41.789 29.662 92.863 47.102 148.01 47.102z" fill="#d3dcfb"/></g><g><path d="m446 240h-380c-11.046 0-20 8.954-20 20 13.047 0 25.809 3.821 36.708 10.992l136.583 89.857c22.278 14.656 51.139 14.656 73.417 0l136.583-89.857c10.9-7.171 23.662-10.992 36.709-10.992 0-11.046-8.954-20-20-20z" fill="#fff"/></g><g><path d="m86.403 273.423c-.258-4.443-.403-8.916-.403-13.423v-20h-20c-11.046 0-20 8.954-20 20 13.047 0 25.809 3.821 36.708 10.992z" fill="#e9efff"/></g></g><g><circle cx="425.597" cy="240" fill="#ff4155" r="70"/></g><g><g><g><path d="m401.839 272.5c-4.142 0-7.5-3.357-7.5-7.5v-40.539h-2.768c-4.142 0-7.5-3.357-7.5-7.5s3.358-7.5 7.5-7.5h10.268c4.142 0 7.5 3.357 7.5 7.5v48.039c0 4.143-3.358 7.5-7.5 7.5z" fill="#fff"/></g></g><g><g><path d="m445.731 272.5c-11.795 0-21.392-9.597-21.392-21.392v-22.217c0-11.795 9.597-21.392 21.392-21.392s21.392 9.597 21.392 21.392v22.217c0 11.795-9.596 21.392-21.392 21.392zm0-50c-3.524 0-6.392 2.867-6.392 6.392v22.217c0 3.524 2.868 6.392 6.392 6.392s6.392-2.867 6.392-6.392v-22.217c0-3.525-2.867-6.392-6.392-6.392z" fill="#fff"/></g></g></g></g></g></svg>