<svg id="Capa_1" enable-background="new 0 0 512 512" height="512" viewBox="0 0 512 512" width="512" xmlns="http://www.w3.org/2000/svg"><g><g><path d="m256 0c-141.385 0-256 114.615-256 256 0 116.136 77.342 214.192 183.323 245.517h145.354c105.981-31.325 183.323-129.381 183.323-245.517 0-141.385-114.615-256-256-256z" fill="#ff4155"/></g><g><path d="m296 391.7v-26.7h-80v26.7c0 39.092-11.407 77.236-32.677 109.817 23.041 6.81 47.428 10.483 72.677 10.483s49.636-3.673 72.677-10.483c-21.27-32.581-32.677-70.725-32.677-109.817z" fill="#d3dcfb"/></g><g><path d="m256 391.7v-26.7h-40v26.7c0 39.092-11.407 77.236-32.677 109.817 11.802 3.488 23.96 6.147 36.403 7.917 24.533-32.748 36.274-79.646 36.274-117.734z" fill="#bec8f7"/></g><g><path d="m512 340-256 40-256-40v-260c0-11.046 8.954-20 20-20h472c11.046 0 20 8.954 20 20z" fill="#1c2e7a"/></g><g><path d="m91.415 60h-71.415c-11.046 0-20 8.954-20 20v260l91.415 14.284v-264.284c-8.284 0-15-6.716-15-15s6.716-15 15-15z" fill="#112360"/></g><g><path d="m256 380 226-35.312v-254.688h-452v254.688z" fill="#ffb332"/></g><g><path d="m76.337 348.633h340.73c22.121-40.228 24.619-76.062 10.106-102.6-12.935-23.62-35.49-48.531-47.094-60.6-3.593-3.753-9.954-1.65-10.592 3.513-4.085 32.749 31.551 78.272-6.64 105.964-42.689 30.925-78.977-1.238-61.651-40.826 17.312-39.588 37.938-84.952 17.312-130.315-14.185-31.205-40.866-60.853-56.129-89.796-5.097-9.661-8.916-19.255-10.579-28.796-.852-4.871-6.773-6.893-10.326-3.473-4.139 3.979-8.756 9.94-11.83 18.457-3.872 10.685-5.323 25.39-.412 45.27 13.613 55.051 45.164 97.101 6.813 119.377-38.351 22.263-56.289-24.126-45.164-48.863 5.429-12.056 3.22-23.819-.466-32.708-2.249-5.416-10.127-4.964-11.684.692-3.513 12.801-12.309 31.697-34.239 51.192-38.963 34.638 19.175 79.163 21.65 113.802 2.302 32.243-41.997 49.475-64.605 10.845-2.435-4.165-8.423-4.178-10.765.04-6.627 11.976-16.155 34.186-14.93 61.492.112 2.521.28 4.962.495 7.333z" fill="#ffdd40"/></g><g><path d="m284.865 188.206c.762-5.65 8.84-5.797 9.873-.19 3.664 19.889 3.107 49.265-17.654 81.282-37.596 57.979 34.91 79.335 34.91 79.335h-141.632s49.021-17.91 34.468-61.133c-8.389-24.914-5.057-47.805-.729-62.728 1.366-4.71 7.956-4.844 9.54-.203 12.164 35.634 62.562 27.836 71.224-36.363z" fill="#ff9100"/></g><g><path d="m492 420h-472c-11.046 0-20-8.954-20-20v-60h512v60c0 11.046-8.954 20-20 20z" fill="#e9efff"/></g><g><path d="m113.383 400v-60h-113.383v60c0 11.046 8.954 20 20 20h113.383c-11.046 0-20-8.954-20-20z" fill="#d3dcfb"/></g><g><path d="m293.5 387.5h-75c-4.142 0-7.5-3.358-7.5-7.5 0-4.142 3.358-7.5 7.5-7.5h75c4.142 0 7.5 3.358 7.5 7.5 0 4.142-3.358 7.5-7.5 7.5z" fill="#d3dcfb"/></g></g></svg>