<svg id="Capa_1" enable-background="new 0 0 512 512" height="512" viewBox="0 0 512 512" width="512" xmlns="http://www.w3.org/2000/svg"><g><g><circle cx="256" cy="256" fill="#ffdd40" r="256"/></g><g><path d="m272.794 47.206c-115.313-9.275-216.313 76.687-225.587 192-9.275 115.314 76.686 216.313 192 225.588 115.313 9.275 216.313-76.686 225.587-192 9.275-115.314-76.687-216.313-192-225.588zm144.794 242.382c-18.55 89.242-105.933 146.55-195.175 128s-146.55-105.933-128-195.175 105.933-146.55 195.175-128c89.242 18.549 146.549 105.932 128 195.175z" fill="#fff"/></g><g><path d="m239.206 464.794c63.547 5.111 122.739-18.708 164.636-60.415-8.69 8.401-22.538 8.326-31.118-.254-8.671-8.671-8.671-22.729 0-31.4l-.018-.018c-38.015 37.944-93.777 56.629-150.294 44.881-89.242-18.55-146.55-105.933-128-195.175 6.802-32.726 22.869-61.148 44.881-83.119l-.018-.018c-8.671 8.671-22.729 8.671-31.4 0-8.567-8.567-8.654-22.385-.291-31.078-33.81 33.917-56.238 79.533-60.378 131.008-9.275 115.314 76.687 216.313 192 225.588z" fill="#d3dcfb"/></g><g><circle cx="256" cy="256" fill="#ffb332" r="124.986"/></g><g><g><path d="m386.108 189.532c3.814-3.814 14.873-2.285 17.197-6.844 2.409-4.725-5.377-12.802-4.568-17.931.816-5.181 10.694-10.465 9.878-15.646-.808-5.129-11.81-7.108-14.219-11.833-2.324-4.559 2.597-14.642-1.217-18.456s-13.897 1.107-18.456-1.217c-4.725-2.409-6.704-13.411-11.833-14.219-5.181-.816-10.465 9.062-15.646 9.878-5.129.808-13.206-6.977-17.931-4.568-4.559 2.324-3.029 13.383-6.843 17.197s-14.873 2.285-17.197 6.844c-2.409 4.725 5.377 12.802 4.568 17.931-.816 5.181-10.694 10.465-9.878 15.646.808 5.129 11.81 7.108 14.219 11.833 2.324 4.559-2.597 14.642 1.217 18.456s13.897-1.107 18.456 1.217c4.725 2.409 6.704 13.411 11.833 14.219 5.181.816 10.465-9.062 15.646-9.878 5.129-.808 13.206 6.977 17.931 4.568 4.558-2.324 3.029-13.383 6.843-17.197z" fill="#ff4155"/></g><g><circle cx="354.288" cy="157.712" fill="#ffb332" r="30"/></g><g><circle cx="354.288" cy="157.712" fill="#ffdd40" r="15"/></g><g><path d="m358.531 153.47c-2.929-2.929-7.678-2.929-10.607 0l-22.981 22.981 10.607 10.607 22.981-22.981c2.928-2.93 2.928-7.679 0-10.607z" fill="#fff"/></g><g><path d="m323.175 217.109-28.284-28.284c-7.81-7.81-7.81-20.474 0-28.284 7.81-7.81 20.474-7.81 28.284 0l28.284 28.284c7.81 7.81 7.81 20.474 0 28.284-7.81 7.811-20.473 7.811-28.284 0z" fill="#112360"/></g><g><circle cx="256" cy="256" fill="#2a428c" r="95"/></g><g><path d="m242.986 242.986c27.464-27.464 67.557-34.591 101.582-21.394-4.63-11.939-11.757-23.132-21.394-32.768-37.1-37.1-97.25-37.1-134.35 0s-37.1 97.25 0 134.35c9.636 9.636 20.829 16.763 32.768 21.394-13.196-34.025-6.069-74.118 21.394-101.582z" fill="#1c2e7a"/></g></g><g><path d="m256 115.255c-8.284 0-15-6.716-15-15v-63.064c0-8.284 6.716-15 15-15 8.284 0 15 6.716 15 15v63.064c0 8.285-6.716 15-15 15z" fill="#fff"/></g><g><path d="m256 396.745c8.284 0 15 6.716 15 15v63.064c0 8.284-6.716 15-15 15-8.284 0-15-6.716-15-15v-63.064c0-8.285 6.716-15 15-15z" fill="#fff"/></g><g><path d="m396.745 256c0-8.284 6.716-15 15-15h63.064c8.284 0 15 6.716 15 15 0 8.284-6.716 15-15 15h-63.064c-8.285 0-15-6.716-15-15z" fill="#fff"/></g><g><path d="m115.255 256c0 8.284-6.716 15-15 15h-63.064c-8.284 0-15-6.716-15-15 0-8.284 6.716-15 15-15h63.064c8.285 0 15 6.716 15 15z" fill="#fff"/></g></g></svg>