<svg id="Capa_1" enable-background="new 0 0 512 512" height="512" viewBox="0 0 512 512" width="512" xmlns="http://www.w3.org/2000/svg"><g><g><path d="m465.986 402.44c28.993-41.497 46.014-91.977 46.014-146.44 0-141.385-114.615-256-256-256s-256 114.615-256 256c0 54.463 17.021 104.943 46.014 146.44z" fill="#4fabf7"/></g><g><path d="m466 60v342.44c-46.27 66.23-123.08 109.56-210 109.56s-163.73-43.33-210-109.56v-342.44l55.17-7.88 154.83-22.12 154.83 22.12z" fill="#4b6bb2"/></g><g><path d="m125.67 48.62-24.5 3.5-55.17 7.88v342.44c46.27 66.23 123.08 109.56 210 109.56s163.73-43.33 210-109.56c-187.959 0-340.329-152.371-340.329-340.329v-13.491z" fill="#3c58a0"/></g><g><g><path d="m466 93.794v-32.391c-.099-.096-.184-.2-.285-.294-.526-.49-1.073-.949-1.635-1.383l-21.853-3.121c-3.121 1.209-5.963 3.094-8.313 5.614l-20.46 21.94c-8.461 9.074-7.963 23.34 1.11 31.801v.001c4.199 3.915 9.613 6.044 15.325 6.044.268 0 .537-.004.806-.014 6.007-.21 11.571-2.746 15.67-7.142zm-35.829 13.206c-1.987.097-3.911-.645-5.376-2.01v-.001c-1.466-1.366-2.311-3.221-2.381-5.223s.645-3.912 2.011-5.377l20.46-21.94c1.366-1.465 3.221-2.311 5.223-2.381.09-.003.18-.004.269-.004 1.904 0 3.709.71 5.108 2.014 3.024 2.821 3.19 7.576.37 10.601l-20.46 21.941c-1.367 1.465-3.221 2.311-5.224 2.38z" fill="#1c2e7a"/></g><g><g><path d="m399.218 139.916c-1.832 0-3.668-.667-5.113-2.015-3.029-2.825-3.195-7.571-.37-10.601l20.46-21.94c2.825-3.03 7.57-3.195 10.601-.37 3.029 2.825 3.195 7.571.37 10.601l-20.46 21.94c-1.478 1.584-3.48 2.385-5.488 2.385z" fill="#112360"/></g></g><g><g><path d="m368.51 187.827c-5.712 0-11.126-2.13-15.325-6.045-4.396-4.099-6.932-9.664-7.142-15.67-.209-6.007 1.933-11.735 6.032-16.131l20.459-21.94c4.099-4.396 9.664-6.932 15.67-7.142 6.01-.191 11.735 1.933 16.131 6.032 4.396 4.098 6.932 9.663 7.141 15.669.21 6.007-1.932 11.735-6.03 16.131l-20.46 21.94c-4.099 4.396-9.664 6.932-15.67 7.142-.269.009-.539.014-.806.014zm20.486-51.941c-.089 0-.179.002-.268.005-2.003.07-3.857.915-5.224 2.381l-20.46 21.94c-1.367 1.465-2.081 3.374-2.011 5.376.07 2.003.915 3.857 2.381 5.224v.001c1.465 1.365 3.374 2.08 5.376 2.01 2.003-.07 3.857-.915 5.224-2.381l20.46-21.94c1.366-1.465 2.08-3.374 2.011-5.377-.07-2.002-.916-3.856-2.381-5.223-1.399-1.306-3.204-2.016-5.108-2.016z" fill="#1c2e7a"/></g></g><g><g><path d="m337.838 205.737c-1.832 0-3.668-.667-5.113-2.015-3.029-2.825-3.195-7.571-.37-10.601l20.46-21.94c2.825-3.029 7.571-3.195 10.601-.37s3.195 7.571.37 10.601l-20.46 21.94c-1.478 1.585-3.48 2.385-5.488 2.385z" fill="#112360"/></g></g><g><g><path d="m307.131 253.649c-5.712 0-11.127-2.13-15.326-6.045 0 0 0 0 0-.001-9.073-8.462-9.571-22.728-1.109-31.8l20.459-21.941c4.099-4.396 9.664-6.932 15.67-7.141 6.023-.218 11.735 1.933 16.131 6.03 4.396 4.1 6.932 9.665 7.142 15.671.209 6.006-1.933 11.734-6.032 16.13l-20.459 21.941c-4.099 4.396-9.664 6.932-15.67 7.141-.271.011-.539.015-.806.015zm-5.096-17.015c1.465 1.366 3.36 2.077 5.377 2.011 2.002-.07 3.856-.916 5.223-2.381l20.46-21.941c2.82-3.024 2.654-7.779-.37-10.601-1.465-1.365-3.367-2.07-5.377-2.01-2.002.07-3.856.916-5.223 2.381l-20.46 21.941c-2.82 3.024-2.654 7.779.37 10.6z" fill="#1c2e7a"/></g></g><g><g><path d="m184.371 385.293c-5.712 0-11.127-2.13-15.326-6.045 0 0 0 0 0-.001-4.396-4.099-6.932-9.664-7.142-15.67-.209-6.006 1.933-11.734 6.032-16.13l20.459-21.941c4.099-4.396 9.664-6.932 15.67-7.141 6.029-.226 11.735 1.932 16.131 6.03 9.073 8.463 9.571 22.729 1.109 31.801l-20.459 21.941c-4.099 4.396-9.664 6.932-15.67 7.141-.269.01-.536.015-.804.015zm-5.096-17.016c1.465 1.365 3.354 2.07 5.377 2.011 2.002-.07 3.856-.916 5.223-2.381l20.46-21.941c2.82-3.024 2.654-7.779-.37-10.601-1.465-1.364-3.352-2.077-5.377-2.01-2.002.07-3.856.916-5.223 2.381l-20.46 21.941c-2.82 3.024-2.654 7.779.37 10.6z" fill="#1c2e7a"/></g></g><g><g><path d="m153.698 403.203c-1.832 0-3.668-.667-5.113-2.015-3.029-2.825-3.195-7.571-.37-10.601l20.46-21.94c2.825-3.03 7.57-3.195 10.601-.37 3.029 2.825 3.195 7.571.37 10.601l-20.46 21.94c-1.478 1.584-3.48 2.385-5.488 2.385z" fill="#112360"/></g></g><g><g><path d="m122.99 451.114c-5.712 0-11.126-2.13-15.325-6.045-4.396-4.099-6.932-9.664-7.141-15.67-.21-6.007 1.932-11.735 6.03-16.131l20.46-21.94c4.099-4.396 9.664-6.932 15.67-7.142 6-.185 11.736 1.933 16.131 6.032 4.396 4.098 6.932 9.663 7.142 15.669.209 6.007-1.933 11.735-6.032 16.131l-20.459 21.94c-4.099 4.396-9.664 6.932-15.67 7.142-.269.009-.538.014-.806.014zm20.487-51.941c-.089 0-.179.002-.268.005-2.003.07-3.857.915-5.224 2.381l-20.46 21.94c-1.366 1.465-2.08 3.374-2.011 5.377.07 2.002.916 3.856 2.381 5.223v.001c1.464 1.365 3.385 2.088 5.376 2.01 2.003-.07 3.857-.915 5.224-2.381l20.46-21.94c1.367-1.465 2.081-3.374 2.011-5.376-.07-2.003-.915-3.857-2.381-5.224-1.399-1.306-3.204-2.016-5.108-2.016z" fill="#1c2e7a"/></g></g><g><path d="m107.295 434.469-16.182 17.353c3.834 3.231 7.764 6.352 11.785 9.358l15.368-16.48c2.825-3.029 2.659-7.775-.37-10.601s-7.776-2.661-10.601.37z" fill="#112360"/></g></g><g><g><path d="m78.086 62.219c-2.35-2.52-5.192-4.405-8.313-5.614l-21.852 3.121c-.562.434-1.11.893-1.636 1.384-.101.094-.186.199-.285.294v32.39l19.635 21.056c4.099 4.396 9.664 6.932 15.67 7.142.27.01.537.014.805.014 5.712 0 11.128-2.13 15.326-6.045 4.396-4.099 6.932-9.664 7.142-15.67.209-6.006-1.933-11.734-6.031-16.131zm9.119 42.771c-1.464 1.365-3.379 2.107-5.376 2.01-2.003-.069-3.857-.915-5.224-2.38v-.001l-20.46-21.94c-2.82-3.024-2.654-7.779.37-10.6 1.399-1.305 3.204-2.015 5.108-2.015.089 0 .179.001.269.004 2.002.07 3.856.916 5.223 2.381l20.46 21.94c2.821 3.025 2.654 7.781-.37 10.601z" fill="#1c2e7a"/></g><g><g><path d="m112.782 139.916c-2.008 0-4.01-.801-5.487-2.385l-20.46-21.94c-2.825-3.029-2.659-7.775.37-10.601 3.03-2.825 7.775-2.658 10.601.37l20.46 21.94c2.825 3.029 2.659 7.775-.37 10.601-1.446 1.348-3.283 2.015-5.114 2.015z" fill="#112360"/></g></g><g><g><path d="m143.49 187.827c-.269 0-.536-.005-.806-.014-6.006-.21-11.571-2.746-15.67-7.142l-20.46-21.94c-4.099-4.396-6.24-10.124-6.03-16.131.209-6.006 2.745-11.571 7.141-15.67s10.133-6.229 16.131-6.031c6.006.21 11.571 2.746 15.67 7.142l20.46 21.94c4.099 4.396 6.24 10.124 6.031 16.131-.21 6.006-2.746 11.571-7.142 15.67-4.198 3.915-9.613 6.045-15.325 6.045zm-20.486-51.941c-1.904 0-3.709.71-5.108 2.015-1.465 1.367-2.311 3.222-2.381 5.224-.069 2.003.645 3.912 2.011 5.377l20.46 21.94c1.366 1.466 3.221 2.311 5.224 2.381 1.989.071 3.911-.645 5.376-2.01 1.466-1.367 2.311-3.222 2.381-5.225.07-2.002-.644-3.911-2.01-5.376l-20.461-21.94c-1.366-1.466-3.221-2.311-5.224-2.381-.089-.003-.179-.005-.268-.005z" fill="#1c2e7a"/></g></g><g><g><path d="m174.162 205.737c-2.008 0-4.01-.801-5.487-2.385l-20.46-21.94c-2.825-3.029-2.659-7.775.37-10.601 3.03-2.826 7.775-2.658 10.601.37l20.46 21.94c2.825 3.029 2.659 7.775-.37 10.601-1.446 1.348-3.283 2.015-5.114 2.015z" fill="#112360"/></g></g><g><g><path d="m204.869 253.649c-.268 0-.535-.005-.805-.015-6.006-.209-11.571-2.745-15.67-7.141l-20.46-21.941c-4.099-4.396-6.24-10.124-6.031-16.13.21-6.006 2.746-11.571 7.142-15.67s10.105-6.247 16.131-6.031c6.006.209 11.571 2.745 15.67 7.141l20.46 21.941c8.461 9.072 7.963 23.338-1.11 31.8-4.2 3.917-9.615 6.045-15.327 6.046zm-20.485-51.941c-1.904 0-3.709.71-5.108 2.015-3.024 2.82-3.19 7.575-.371 10.6l20.461 21.941c1.366 1.465 3.221 2.311 5.223 2.381 2.026.067 3.912-.645 5.377-2.011 3.024-2.82 3.19-7.575.371-10.6l-20.461-21.941c-1.366-1.465-3.221-2.311-5.223-2.381-.09-.003-.18-.004-.269-.004z" fill="#1c2e7a"/></g></g><g><g><path d="m327.629 385.293c-.268 0-.535-.005-.805-.015-6.006-.209-11.571-2.745-15.67-7.141l-20.46-21.941c-8.461-9.072-7.963-23.338 1.11-31.8 4.396-4.1 10.122-6.255 16.131-6.031 6.006.209 11.571 2.745 15.67 7.141l20.46 21.941c4.099 4.396 6.24 10.124 6.031 16.13-.21 6.006-2.746 11.571-7.142 15.67-4.198 3.916-9.613 6.045-15.325 6.046zm-20.485-51.941c-1.904 0-3.709.71-5.108 2.015-3.024 2.82-3.19 7.575-.371 10.6l20.461 21.941c1.366 1.465 3.221 2.311 5.223 2.381 2.011.061 3.912-.645 5.377-2.011 3.024-2.82 3.19-7.575.371-10.6l-20.461-21.941c-1.366-1.465-3.221-2.311-5.223-2.381-.091-.003-.181-.004-.269-.004z" fill="#1c2e7a"/></g></g><g><g><path d="m358.302 403.203c-2.008 0-4.01-.801-5.487-2.385l-20.46-21.94c-2.825-3.029-2.659-7.775.37-10.601 3.03-2.825 7.775-2.658 10.601.37l20.46 21.94c2.825 3.029 2.659 7.775-.37 10.601-1.446 1.348-3.283 2.015-5.114 2.015z" fill="#112360"/></g></g><g><g><path d="m389.01 451.114c-.269 0-.536-.005-.806-.014-6.006-.21-11.571-2.746-15.67-7.142l-20.46-21.94c-4.099-4.396-6.24-10.124-6.031-16.131.21-6.006 2.746-11.571 7.142-15.67s10.139-6.223 16.131-6.031c6.006.21 11.571 2.746 15.67 7.142l20.46 21.94c4.099 4.396 6.24 10.124 6.03 16.131-.209 6.006-2.745 11.571-7.141 15.67-4.198 3.915-9.613 6.045-15.325 6.045zm-20.487-51.941c-1.904 0-3.709.71-5.108 2.015-1.466 1.367-2.311 3.222-2.381 5.225-.07 2.002.644 3.911 2.01 5.376l20.461 21.94c1.366 1.466 3.221 2.311 5.224 2.381 2.002.079 3.911-.645 5.376-2.01 1.465-1.367 2.311-3.222 2.381-5.224.069-2.003-.645-3.912-2.011-5.377l-20.46-21.94c-1.366-1.466-3.221-2.311-5.224-2.381-.089-.003-.179-.005-.268-.005z" fill="#1c2e7a"/></g></g><g><path d="m404.705 434.469c-2.825-3.028-7.57-3.195-10.601-.37-3.029 2.825-3.195 7.571-.37 10.601l15.368 16.48c4.021-3.006 7.951-6.126 11.785-9.358z" fill="#112360"/></g></g><g><g><path d="m458.5 285.75c0-4.136 3.364-7.5 7.5-7.5v-15c-12.406 0-22.5 10.094-22.5 22.5s10.094 22.5 22.5 22.5v-15c-4.136 0-7.5-3.364-7.5-7.5z" fill="#1c2e7a"/></g><g><g><path d="m451 293.25h-30c-4.143 0-7.5-3.357-7.5-7.5s3.357-7.5 7.5-7.5h30c4.143 0 7.5 3.357 7.5 7.5s-3.357 7.5-7.5 7.5z" fill="#112360"/></g></g><g><g><path d="m406 308.25h-30c-12.406 0-22.5-10.094-22.5-22.5s10.094-22.5 22.5-22.5h30c12.406 0 22.5 10.094 22.5 22.5s-10.094 22.5-22.5 22.5zm-30-30c-4.136 0-7.5 3.364-7.5 7.5s3.364 7.5 7.5 7.5h30c4.136 0 7.5-3.364 7.5-7.5s-3.364-7.5-7.5-7.5z" fill="#1c2e7a"/></g></g><g><g><path d="m361 293.25h-30c-4.143 0-7.5-3.357-7.5-7.5s3.357-7.5 7.5-7.5h30c4.143 0 7.5 3.357 7.5 7.5s-3.357 7.5-7.5 7.5z" fill="#112360"/></g></g><g><g><path d="m181 293.25h-30c-4.143 0-7.5-3.357-7.5-7.5s3.357-7.5 7.5-7.5h30c4.143 0 7.5 3.357 7.5 7.5s-3.357 7.5-7.5 7.5z" fill="#112360"/></g></g><g><g><path d="m136 308.25h-30c-12.406 0-22.5-10.094-22.5-22.5s10.094-22.5 22.5-22.5h30c12.406 0 22.5 10.094 22.5 22.5s-10.094 22.5-22.5 22.5zm-30-30c-4.136 0-7.5 3.364-7.5 7.5s3.364 7.5 7.5 7.5h30c4.136 0 7.5-3.364 7.5-7.5s-3.364-7.5-7.5-7.5z" fill="#1c2e7a"/></g></g><g><g><path d="m91 293.25h-30c-4.143 0-7.5-3.357-7.5-7.5s3.357-7.5 7.5-7.5h30c4.143 0 7.5 3.357 7.5 7.5s-3.357 7.5-7.5 7.5z" fill="#112360"/></g></g><g><path d="m53.5 285.75c0 4.136-3.364 7.5-7.5 7.5v15c12.406 0 22.5-10.094 22.5-22.5s-10.094-22.5-22.5-22.5v15c4.136 0 7.5 3.364 7.5 7.5z" fill="#1c2e7a"/></g></g><g><g><path d="m256 512c2.509 0 5.008-.04 7.5-.112v-16.138c0-4.143-3.357-7.5-7.5-7.5s-7.5 3.357-7.5 7.5v16.138c2.492.072 4.991.112 7.5.112z" fill="#112360"/></g><g><g><path d="m256 503.25c-12.406 0-22.5-10.094-22.5-22.5v-30c0-12.406 10.094-22.5 22.5-22.5s22.5 10.094 22.5 22.5v30c0 12.406-10.094 22.5-22.5 22.5zm0-60c-4.136 0-7.5 3.364-7.5 7.5v30c0 4.136 3.364 7.5 7.5 7.5s7.5-3.364 7.5-7.5v-30c0-4.136-3.364-7.5-7.5-7.5z" fill="#1c2e7a"/></g></g><g><g><path d="m256 443.25c-4.143 0-7.5-3.357-7.5-7.5v-30c0-4.143 3.357-7.5 7.5-7.5s7.5 3.357 7.5 7.5v30c0 4.143-3.357 7.5-7.5 7.5z" fill="#112360"/></g></g><g><g><path d="m256 413.25c-12.406 0-22.5-10.094-22.5-22.5v-30c0-12.406 10.094-22.5 22.5-22.5s22.5 10.094 22.5 22.5v30c0 12.406-10.094 22.5-22.5 22.5zm0-60c-4.136 0-7.5 3.364-7.5 7.5v30c0 4.136 3.364 7.5 7.5 7.5s7.5-3.364 7.5-7.5v-30c0-4.136-3.364-7.5-7.5-7.5z" fill="#1c2e7a"/></g></g><g><g><path d="m256 143.25c-12.406 0-22.5-10.094-22.5-22.5v-30c0-12.406 10.094-22.5 22.5-22.5s22.5 10.094 22.5 22.5v30c0 12.406-10.094 22.5-22.5 22.5zm0-60c-4.136 0-7.5 3.364-7.5 7.5v30c0 4.136 3.364 7.5 7.5 7.5s7.5-3.364 7.5-7.5v-30c0-4.136-3.364-7.5-7.5-7.5z" fill="#1c2e7a"/></g></g><g><g><path d="m256 83.25c-4.143 0-7.5-3.357-7.5-7.5v-30c0-4.143 3.357-7.5 7.5-7.5s7.5 3.357 7.5 7.5v30c0 4.143-3.357 7.5-7.5 7.5z" fill="#112360"/></g></g></g><g><path d="m466 60h-420v-40c0-11.046 8.954-20 20-20h380c11.046 0 20 8.954 20 20z" fill="#2a428c"/></g><g><path d="m114.557 50c0-5.523 4.477-10 10-10v-20c-5.523 0-10-4.477-10-10s4.477-10 10-10h-58.557c-11.046 0-20 8.954-20 20v40h78.557c-5.523 0-10-4.477-10-10z" fill="#1c2e7a"/></g><g><circle cx="423.5" cy="30" fill="#ff4155" r="10"/></g><g><circle cx="388.5" cy="30" fill="#ffdd40" r="10"/></g><g><circle cx="353.5" cy="30" fill="#38c674" r="10"/></g><g><path d="m88.5 40h215c5.523 0 10-4.477 10-10 0-5.523-4.477-10-10-10h-215c-5.523 0-10 4.477-10 10 0 5.523 4.477 10 10 10z" fill="#3c58a0"/></g><g><g><path d="m256 123.25c-33.137 0-60 26.863-60 60v50h30v-50c0-16.569 13.431-30 30-30s30 13.431 30 30v50h30v-50c0-33.137-26.863-60-60-60z" fill="#fff"/></g><g><path d="m241 138.25c0-8.284 6.716-15 15-15-33.137 0-60 26.863-60 60v50h30v-50c0-16.569 13.431-30 30-30-8.284 0-15-6.716-15-15z" fill="#d3dcfb"/></g><g><path d="m316 360.75h-120c-16.569 0-30-13.431-30-30v-90c0-16.569 13.431-30 30-30h120c16.569 0 30 13.431 30 30v90c0 16.569-13.431 30-30 30z" fill="#ffdd40"/></g><g><path d="m196 330.75v-90c0-16.568 13.431-30 30-30h-30c-16.569 0-30 13.432-30 30v90c0 16.568 13.431 30 30 30h30c-16.569 0-30-13.431-30-30z" fill="#ffb332"/></g><g><path d="m271 270.75c0-8.284-6.716-15-15-15s-15 6.716-15 15c0 5.549 3.021 10.382 7.5 12.977v24.523c0 4.142 3.358 7.5 7.5 7.5s7.5-3.358 7.5-7.5v-24.523c4.479-2.595 7.5-7.428 7.5-12.977z" fill="#ffb332"/></g><g><path d="m208.5 270.75h-42.5v-15h42.5c4.142 0 7.5 3.358 7.5 7.5 0 4.142-3.358 7.5-7.5 7.5z" fill="#ffb332"/></g><g><path d="m208.5 315.75h-42.5v-15h42.5c4.142 0 7.5 3.358 7.5 7.5 0 4.142-3.358 7.5-7.5 7.5z" fill="#ffb332"/></g><g><path d="m208.5 293.25h-42.5v-15h42.5c4.142 0 7.5 3.358 7.5 7.5 0 4.142-3.358 7.5-7.5 7.5z" fill="#ffb332"/></g><g><path d="m303.5 270.75h42.5v-15h-42.5c-4.142 0-7.5 3.358-7.5 7.5 0 4.142 3.358 7.5 7.5 7.5z" fill="#ffb332"/></g><g><path d="m303.5 315.75h42.5v-15h-42.5c-4.142 0-7.5 3.358-7.5 7.5 0 4.142 3.358 7.5 7.5 7.5z" fill="#ffb332"/></g><g><path d="m303.5 293.25h42.5v-15h-42.5c-4.142 0-7.5 3.358-7.5 7.5 0 4.142 3.358 7.5 7.5 7.5z" fill="#ffb332"/></g></g></g></svg>